{
.appVersion = "895";
DisplayStrings = (
"We, the people of the \012United States, in order \012to form a more perfect \012union, ensure domestic \012tranquility, provide for \012the common defense, \012promote the general \012welfare, make secure the\012blessings of liberty for \012ourselves and our \012posterity, do ordain and \012establish this \012Constitution for the \012United States of \012America.",
" \012Most states now allow early voting. nooononononon",
cloud.gov,
" 18Franklin",
"selection as a candidate",
"Overview  Documentation  Updates",
"/zero.tf/one.tf/comma.tf/two.tf/three.tf/four.tf/comma.tf/five.tf/six.tf/seven.tf/period.tf/eight.tf/nine.tf \012/four.tf/five.tf/comma.tf/two.tf/one.tf/seven.tf/comma.tf/six.tf/four.tf/five.tf/period.tf/seven.tf/five.tf/zero.osf",
"/two.osf pm",
"3/three.osf pm",
"l/Jcircumflex jpq\U00E7/Abreve",
"threes No Help",
"Mnemonic Nos Eisley",
"EG Marshall",
"powers awe ewe windward",
"\U00A3",
"e/quoteright re/quoteright body mus/quoteright  get stun.",
789012938371713
);
customParameters = (
{
name = fsType;
value = (
);
},
{
name = licenseURL;
value = "http://scripts.sil.org/OFL";
},
{
name = license;
value = "This Font Software is licensed under the SIL Open Font License, Version 1.1. This license is available with a FAQ at: http://scripts.sil.org/OFL";
},
{
name = trademark;
value = "18Franklin is based on Libre Franklin, which is a trademark of Impallari Type.";
},
{
name = description;
value = "Libre Franklin is a reinterpretation and expansion of the 1912 Morris Fuller Benton’s classic.";
},
{
name = vendorID;
value = IMPA;
},
{
name = note;
value = "Based on Libre Franklin";
},
{
name = vsuffix;
value = "-v.018";
}
);
date = "2016-11-15 04:52:40 +0000";
designer = "Pablo Impallari, Rodrigo Fuenzalida (Modified by Dan O. Williams)";
familyName = 18Franklin;
featurePrefixes = (
{
automatic = 1;

glyphs = (
{
glyphname = A;
lastChange = "2016-11-02 00:47:50 +0000";
layers = (
{
anchors = (
{
name = ogonek;
position = "{746, 9}";
},
{
name = top;
position = "{395, 742}";
}
);
background = {
anchors = (
{
name = ogonek;
position = "{746, 9}";
},
{
name = top;
position = "{395, 742}";
}
);
paths = (
{
closed = 1;
nodes = (
"195 0 LINE SMOOTH",
"209 0 OFFCURVE",
"216 7 OFFCURVE",
"219 15 CURVE SMOOTH",
"260 133 LINE SMOOTH",
"262 140 OFFCURVE",
"267 144 OFFCURVE",
"275 144 CURVE SMOOTH",
"487 144 LINE SMOOTH",
"497 144 OFFCURVE",
"499 139 OFFCURVE",
"502 132 CURVE SMOOTH",
"541 17 LINE SMOOTH",
"545 4 OFFCURVE",
"553 0 OFFCURVE",
"563 0 CURVE SMOOTH",
"759 0 LINE SMOOTH",
"774 0 OFFCURVE",
"778 20 OFFCURVE",
"773 34 CURVE SMOOTH",
"533 715 LINE SMOOTH",
"527 731 OFFCURVE",
"514 742 OFFCURVE",
"497 742 CURVE SMOOTH",
"300 742 LINE SMOOTH",
"282 742 OFFCURVE",
"276 735 OFFCURVE",
"270 719 CURVE SMOOTH",
"28 37 LINE SMOOTH",
"20 15 OFFCURVE",
"28 0 OFFCURVE",
"43 0 CURVE SMOOTH"
);
},
{
closed = 1;
nodes = (
"311 314 OFFCURVE",
"308 322 OFFCURVE",
"313 335 CURVE SMOOTH",
"374 505 LINE SMOOTH",
"376 512 OFFCURVE",
"383 512 OFFCURVE",
"386 505 CURVE SMOOTH",
"446 334 LINE SMOOTH",
"450 321 OFFCURVE",
"448 314 OFFCURVE",
"437 314 CURVE SMOOTH",
"323 314 LINE SMOOTH"
);
}
);
};
layerId = "258ED206-D907-4350-8EBA-CBDDA1C16BF7";
paths = (
{
closed = 1;
nodes = (
"214 0 LINE",
"264 144 LINE",
"498 144 LINE",
"547 0 LINE",
"785 0 LINE",
"523 742 LINE",
"278 742 LINE",
"15 0 LINE"
);
},
{
closed = 1;
nodes = (
"380 521 LINE",
"453 314 LINE",
"306 314 LINE"
);
}
);
width = 809;
},
{
anchors = (
{
name = ogonek;
position = "{639, 11}";
},
{
name = top;
position = "{350, 742}";
}
);
background = {
anchors = (
{
name = ogonek;
position = "{639, 11}";
},
{
name = top;
position = "{350, 742}";
}
);
paths = (
{
closed = 1;
nodes = (
"85 0 LINE SMOOTH",
"91 0 OFFCURVE",
"95 2 OFFCURVE",
"96 7 CURVE SMOOTH",
"179 231 LINE SMOOTH",
"181 236 OFFCURVE",
"183 238 OFFCURVE",
"189 238 CURVE SMOOTH",
"511 238 LINE SMOOTH",
"517 238 OFFCURVE",
"519 236 OFFCURVE",
"521 231 CURVE SMOOTH",
"602 8 LINE SMOOTH",
"604 2 OFFCURVE",
"608 0 OFFCURVE",
"615 0 CURVE SMOOTH",
"639 0 LINE SMOOTH",
"646 0 OFFCURVE",
"649 4 OFFCURVE",
"647 10 CURVE SMOOTH",
"385 732 LINE SMOOTH",
"383 739 OFFCURVE",
"377 742 OFFCURVE",
"367 742 CURVE SMOOTH",
"334 742 LINE SMOOTH",
"325 742 OFFCURVE",
"321 739 OFFCURVE",
"318 731 CURVE SMOOTH",
"53 9 LINE SMOOTH",
"51 3 OFFCURVE",
"54 0 OFFCURVE",
"60 0 CURVE SMOOTH"
);
},
{
closed = 1;
nodes = (
"197 278 OFFCURVE",
"195 279 OFFCURVE",
"198 286 CURVE SMOOTH",
"343 677 LINE SMOOTH",
"348 691 OFFCURVE",
"353 691 OFFCURVE",
"358 678 CURVE SMOOTH",
"501 288 LINE SMOOTH",
"503 282 OFFCURVE",
"502 278 OFFCURVE",
"494 278 CURVE SMOOTH",
"203 278 LINE SMOOTH"
);
}
);
};
layerId = "91AB5BCA-6A50-42DA-B2F7-8181BF189245";
paths = (
{
closed = 1;
nodes = (
"93 0 LINE",
"182 238 LINE",
"518 238 LINE",
"605 0 LINE",
"651 0 LINE",
"381 742 LINE",
"322 742 LINE",
"50 0 LINE"
);
},
{
closed = 1;
nodes = (
"351 698 LINE",
"505 278 LINE",
"195 278 LINE"
);
}
);
width = 700;
}
);
leftKerningGroup = A;
rightKerningGroup = A;
unicode = 0041;
},
{
glyphname = Aringacute;
lastChange = "2016-11-02 00:47:50 +0000";
layers = (
{
background = {
paths = (
{
closed = 1;
nodes = (
"214 3 LINE",
"264 147 LINE",
"498 147 LINE",
"547 3 LINE",
"785 3 LINE",
"523 745 LINE",
"278 745 LINE",
"15 3 LINE"
);
},
{
closed = 1;
nodes = (
"380 524 LINE",
"453 317 LINE",
"306 317 LINE"
);
},
{
closed = 1;
nodes = (
"461 693 OFFCURVE",
"510 734 OFFCURVE",
"510 796 CURVE SMOOTH",
"510 856 OFFCURVE",
"461 899 OFFCURVE",
"400 899 CURVE SMOOTH",
"340 899 OFFCURVE",
"290 857 OFFCURVE",
"290 798 CURVE SMOOTH",
"290 735 OFFCURVE",
"339 693 OFFCURVE",
"400 693 CURVE SMOOTH"
);
},
{
closed = 1;
nodes = (
"373 746 OFFCURVE",
"350 769 OFFCURVE",
"350 795 CURVE SMOOTH",
"350 822 OFFCURVE",
"373 842 OFFCURVE",
"399 842 CURVE SMOOTH",
"426 842 OFFCURVE",
"447 822 OFFCURVE",
"447 795 CURVE SMOOTH",
"447 769 OFFCURVE",
"426 746 OFFCURVE",
"399 746 CURVE SMOOTH"
);
},
{
closed = 1;
nodes = (
"443 875 LINE",
"468 935 LINE SMOOTH",
"474 949 OFFCURVE",
"470 964 OFFCURVE",
"454 964 CURVE SMOOTH",
"409 964 LINE SMOOTH",
"390 964 OFFCURVE",
"377 958 OFFCURVE",
"371 933 CURVE SMOOTH",
"357 875 LINE"
);
}
);
};
layerId = "258ED206-D907-4350-8EBA-CBDDA1C16BF7";
paths = (
{
closed = 1;
nodes = (
"214 3 LINE",
"264 147 LINE",
"498 147 LINE",
"547 3 LINE",
"785 3 LINE",
"523 745 LINE",
"278 745 LINE",
"15 3 LINE"
);
},
{
closed = 1;
nodes = (
"380 524 LINE",
"453 317 LINE",
"306 317 LINE"
);
},
{
closed = 1;
nodes = (
"461 693 OFFCURVE",
"510 734 OFFCURVE",
"510 796 CURVE SMOOTH",
"510 856 OFFCURVE",
"461 899 OFFCURVE",
"400 899 CURVE SMOOTH",
"340 899 OFFCURVE",
"290 857 OFFCURVE",
"290 798 CURVE SMOOTH",
"290 735 OFFCURVE",
"339 693 OFFCURVE",
"400 693 CURVE SMOOTH"
);
},
{
closed = 1;
nodes = (
"373 746 OFFCURVE",
"350 769 OFFCURVE",
"350 795 CURVE SMOOTH",
"350 822 OFFCURVE",
"373 842 OFFCURVE",
"399 842 CURVE SMOOTH",
"426 842 OFFCURVE",
"447 822 OFFCURVE",
"447 795 CURVE SMOOTH",
"447 769 OFFCURVE",
"426 746 OFFCURVE",
"399 746 CURVE SMOOTH"
);
},
{
closed = 1;
nodes = (
"443 875 LINE",
"480 964 LINE",
"378 964 LINE",
"357 875 LINE"
);
}
);
width = 809;
},
{
background = {
paths = (
{
closed = 1;
nodes = (
"418 857 OFFCURVE",
"374 900 OFFCURVE",
"318 900 CURVE SMOOTH",
"263 900 OFFCURVE",
"218 857 OFFCURVE",
"218 804 CURVE SMOOTH",
"218 746 OFFCURVE",
"262 702 OFFCURVE",
"318 702 CURVE SMOOTH",
"374 702 OFFCURVE",
"418 745 OFFCURVE",
"418 802 CURVE SMOOTH"
);
},
{
closed = 1;
nodes = (
"375 770 OFFCURVE",
"350 742 OFFCURVE",
"317 742 CURVE SMOOTH",
"286 742 OFFCURVE",
"258 770 OFFCURVE",
"258 801 CURVE SMOOTH",
"258 836 OFFCURVE",
"286 860 OFFCURVE",
"317 860 CURVE SMOOTH",
"350 860 OFFCURVE",
"375 836 OFFCURVE",
"375 801 CURVE SMOOTH"
);
},
{
closed = 1;
nodes = (
"294 742 OFFCURVE",
"290 739 OFFCURVE",
"287 731 CURVE SMOOTH",
"40 9 LINE",
"38 4 OFFCURVE",
"41 0 OFFCURVE",
"47 0 CURVE SMOOTH",
"69 0 LINE SMOOTH",
"75 0 OFFCURVE",
"78 2 OFFCURVE",
"80 7 CURVE",
"157 231 LINE SMOOTH",
"159 236 OFFCURVE",
"161 238 OFFCURVE",
"167 238 CURVE SMOOTH",
"463 238 LINE SMOOTH",
"469 238 OFFCURVE",
"471 236 OFFCURVE",
"473 231 CURVE SMOOTH",
"549 8 LINE SMOOTH",
"551 2 OFFCURVE",
"554 0 OFFCURVE",
"561 0 CURVE SMOOTH",
"588 0 LINE SMOOTH",
"595 0 OFFCURVE",
"598 4 OFFCURVE",
"596 10 CURVE SMOOTH",
"353 732 LINE",
"351 739 OFFCURVE",
"345 742 OFFCURVE",
"335 742 CURVE SMOOTH",
"303 742 LINE SMOOTH"
);
},
{
closed = 1;
nodes = (
"457 282 OFFCURVE",
"456 278 OFFCURVE",
"448 278 CURVE SMOOTH",
"179 278 LINE SMOOTH",
"173 278 OFFCURVE",
"172 279 OFFCURVE",
"175 286 CURVE SMOOTH",
"308 677 LINE SMOOTH",
"313 691 OFFCURVE",
"319 691 OFFCURVE",
"323 678 CURVE SMOOTH",
"455 288 LINE SMOOTH"
);
},
{
closed = 1;
nodes = (
"328 964 OFFCURVE",
"323 960 OFFCURVE",
"321 951 CURVE SMOOTH",
"303 875 LINE",
"341 875 LINE",
"372 948 LINE SMOOTH",
"376 958 OFFCURVE",
"373 964 OFFCURVE",
"362 964 CURVE SMOOTH",
"339 964 LINE SMOOTH"
);
}
);
};
layerId = "91AB5BCA-6A50-42DA-B2F7-8181BF189245";
paths = (
{
closed = 1;
nodes = (
"78 0 LINE",
"159 238 LINE",
"471 238 LINE",
"552 0 LINE",
"599 0 LINE",
"350 742 LINE",
"291 742 LINE",
"37 0 LINE"
);
},
{
closed = 1;
nodes = (
"316 700 LINE",
"458 278 LINE",
"172 278 LINE"
);
},
{
closed = 1;
nodes = (
"374 702 OFFCURVE",
"418 745 OFFCURVE",
"418 802 CURVE SMOOTH",
"418 857 OFFCURVE",
"374 900 OFFCURVE",
"318 900 CURVE SMOOTH",
"263 900 OFFCURVE",
"218 857 OFFCURVE",
"218 804 CURVE SMOOTH",
"218 746 OFFCURVE",
"262 702 OFFCURVE",
"318 702 CURVE SMOOTH"
);
},
{
closed = 1;
nodes = (
"286 742 OFFCURVE",
"258 770 OFFCURVE",
"258 801 CURVE SMOOTH",
"258 836 OFFCURVE",
"286 860 OFFCURVE",
"317 860 CURVE SMOOTH",
"350 860 OFFCURVE",
"375 836 OFFCURVE",
"375 801 CURVE SMOOTH",
"375 770 OFFCURVE",
"350 742 OFFCURVE",
"317 742 CURVE SMOOTH"
);
},
{
closed = 1;
nodes = (
"341 875 LINE",
"379 964 LINE",
"324 964 LINE",
"303 875 LINE"
);
}
);
width = 637;
}
);
leftKerningGroup = A;
rightKerningGroup = A;
unicode = 01FA;
},
{
glyphname = AE;
lastChange = "2016-11-02 00:47:50 +0000";
layers = (
{
anchors = (
{
name = top;
position = "{721, 742}";
}
);
background = {
anchors = (
{
name = top;
position = "{721, 742}";
}
);
paths = (
{
closed = 1;
nodes = (
"747 164 LINE SMOOTH",
"738 164 OFFCURVE",
"735 167 OFFCURVE",
"735 178 CURVE SMOOTH",
"735 278 LINE SMOOTH",
"735 286 OFFCURVE",
"741 292 OFFCURVE",
"751 292 CURVE SMOOTH",
"936 292 LINE SMOOTH",
"949 292 OFFCURVE",
"954 300 OFFCURVE",
"954 309 CURVE SMOOTH",
"954 433 LINE SMOOTH",
"954 446 OFFCURVE",
"947 453 OFFCURVE",
"933 453 CURVE SMOOTH",
"753 453 LINE SMOOTH",
"743 453 OFFCURVE",
"735 460 OFFCURVE",
"735 474 CURVE SMOOTH",
"735 559 LINE SMOOTH",
"735 572 OFFCURVE",
"743 578 OFFCURVE",
"758 578 CURVE SMOOTH",
"1058 578 LINE SMOOTH",
"1076 578 OFFCURVE",
"1084 589 OFFCURVE",
"1084 605 CURVE SMOOTH",
"1085 721 LINE SMOOTH",
"1085 734 OFFCURVE",
"1079 742 OFFCURVE",
"1067 742 CURVE SMOOTH",
"418 742 LINE SMOOTH",
"401 742 OFFCURVE",
"393 735 OFFCURVE",
"385 719 CURVE SMOOTH",
"31 37 LINE SMOOTH",
"19 15 OFFCURVE",
"25 0 OFFCURVE",
"40 0 CURVE SMOOTH",
"192 0 LINE SMOOTH",
"206 0 OFFCURVE",
"214 7 OFFCURVE",
"218 15 CURVE SMOOTH",
"277 133 LINE",
"280 140 OFFCURVE",
"286 144 OFFCURVE",
"294 144 CURVE SMOOTH",
"495 144 LINE SMOOTH",
"505 144 OFFCURVE",
"508 139 OFFCURVE",
"508 130 CURVE SMOOTH",
"508 25 LINE SMOOTH",
"508 8 OFFCURVE",
"515 0 OFFCURVE",
"535 0 CURVE SMOOTH",
"1070 0 LINE SMOOTH",
"1087 0 OFFCURVE",
"1094 10 OFFCURVE",
"1094 22 CURVE SMOOTH",
"1094 145 LINE SMOOTH",
"1094 159 OFFCURVE",
"1086 164 OFFCURVE",
"1072 164 CURVE SMOOTH"
);
},
{
closed = 1;
nodes = (
"372 314 LINE SMOOTH",
"360 314 OFFCURVE",
"358 322 OFFCURVE",
"366 335 CURVE",
"468 537 LINE SMOOTH",
"484 567 OFFCURVE",
"508 565 OFFCURVE",
"508 535 CURVE SMOOTH",
"508 334 LINE SMOOTH",
"508 321 OFFCURVE",
"501 314 OFFCURVE",
"489 314 CURVE SMOOTH"
);
}
);
};
layerId = "258ED206-D907-4350-8EBA-CBDDA1C16BF7";
paths = (
{
closed = 1;
nodes = (
"735 164 LINE",
"735 292 LINE",
"954 292 LINE",
"954 453 LINE",
"735 453 LINE",
"735 578 LINE",
"1084 578 LINE",
"1085 742 LINE",
"397 742 LINE",
"12 0 LINE",
"211 0 LINE",
"282 144 LINE",
"508 144 LINE",
"508 0 LINE",
"1094 0 LINE",
"1094 164 LINE"
);
},
{
closed = 1;
nodes = (
"355 314 LINE",
"508 616 LINE",
"508 314 LINE"
);
}
);
width = 1137;
},
{
anchors = (
{
name = top;
position = "{682, 742}";
}
);
background = {
anchors = (
{
name = top;
position = "{682, 742}";
}
);
paths = (
{
closed = 1;
nodes = (
"551 40 LINE SMOOTH",
"544 40 OFFCURVE",
"542 41 OFFCURVE",
"542 49 CURVE SMOOTH",
"542 346 LINE SMOOTH",
"542 354 OFFCURVE",
"544 355 OFFCURVE",
"551 355 CURVE SMOOTH",
"819 355 LINE SMOOTH",
"825 355 OFFCURVE",
"827 356 OFFCURVE",
"827 362 CURVE SMOOTH",
"827 388 LINE SMOOTH",
"827 393 OFFCURVE",
"825 395 OFFCURVE",
"820 395 CURVE SMOOTH",
"551 395 LINE SMOOTH",
"544 395 OFFCURVE",
"542 396 OFFCURVE",
"542 402 CURVE SMOOTH",
"542 693 LINE SMOOTH",
"542 701 OFFCURVE",
"544 702 OFFCURVE",
"551 702 CURVE SMOOTH",
"889 702 LINE SMOOTH",
"895 702 OFFCURVE",
"897 703 OFFCURVE",
"897 709 CURVE SMOOTH",
"897 735 LINE SMOOTH",
"897 740 OFFCURVE",
"895 742 OFFCURVE",
"890 742 CURVE SMOOTH",
"485 742 LINE SMOOTH",
"476 742 OFFCURVE",
"471 739 OFFCURVE",
"467 731 CURVE",
"54 9 LINE SMOOTH",
"51 4 OFFCURVE",
"53 0 OFFCURVE",
"59 0 CURVE SMOOTH",
"84 0 LINE SMOOTH",
"90 0 OFFCURVE",
"93 2 OFFCURVE",
"96 7 CURVE SMOOTH",
"225 231 LINE SMOOTH",
"228 236 OFFCURVE",
"231 238 OFFCURVE",
"237 238 CURVE SMOOTH",
"491 238 LINE SMOOTH",
"494 238 OFFCURVE",
"496 236 OFFCURVE",
"496 233 CURVE SMOOTH",
"496 10 LINE SMOOTH",
"496 2 OFFCURVE",
"498 0 OFFCURVE",
"505 0 CURVE SMOOTH",
"905 0 LINE SMOOTH",
"910 0 OFFCURVE",
"912 2 OFFCURVE",
"912 7 CURVE SMOOTH",
"912 33 LINE SMOOTH",
"912 39 OFFCURVE",
"910 40 OFFCURVE",
"904 40 CURVE SMOOTH"
);
},
{
closed = 1;
nodes = (
"256 278 LINE SMOOTH",
"250 278 OFFCURVE",
"249 279 OFFCURVE",
"253 286 CURVE SMOOTH",
"481 677 LINE SMOOTH",
"489 691 OFFCURVE",
"495 691 OFFCURVE",
"496 678 CURVE",
"496 287 LINE SMOOTH",
"496 282 OFFCURVE",
"494 278 OFFCURVE",
"488 278 CURVE SMOOTH"
);
}
);
};
layerId = "91AB5BCA-6A50-42DA-B2F7-8181BF189245";
paths = (
{
closed = 1;
nodes = (
"542 40 LINE",
"542 355 LINE",
"827 355 LINE",
"827 395 LINE",
"542 395 LINE",
"542 702 LINE",
"897 702 LINE",
"897 742 LINE",
"473 742 LINE",
"49 0 LINE",
"92 0 LINE",
"229 238 LINE",
"496 238 LINE",
"496 0 LINE",
"912 0 LINE",
"912 40 LINE"
);
},
{
closed = 1;
nodes = (
"248 278 LINE",
"496 703 LINE",
"496 278 LINE"
);
}
);
width = 964;
}
);
leftKerningGroup = AE;
leftMetricsKey = A;
rightMetricsKey = E;
unicode = 00C6;
},
{
glyphname = B;
lastChange = "2016-11-10 18:36:55 +0000";
layers = (
{
background = {
paths = (
{
closed = 1;
nodes = (
"391 0 LINE SMOOTH",
"607 0 OFFCURVE",
"710 65 OFFCURVE",
"710 202 CURVE SMOOTH",
"710 287 OFFCURVE",
"671 338 OFFCURVE",
"561 379 CURVE SMOOTH",
"558 380 OFFCURVE",
"558 385 OFFCURVE",
"561 386 CURVE SMOOTH",
"661 432 OFFCURVE",
"692 477 OFFCURVE",
"692 546 CURVE SMOOTH",
"692 675 OFFCURVE",
"582 742 OFFCURVE",
"375 742 CURVE SMOOTH",
"77 742 LINE SMOOTH",
"62 742 OFFCURVE",
"52 731 OFFCURVE",
"52 716 CURVE SMOOTH",
"52 22 LINE SMOOTH",
"52 10 OFFCURVE",
"61 0 OFFCURVE",
"75 0 CURVE SMOOTH"
);
},
{
closed = 1;
nodes = (
"283 150 OFFCURVE",
"279 157 OFFCURVE",
"279 172 CURVE SMOOTH",
"279 277 LINE SMOOTH",
"279 292 OFFCURVE",
"285 298 OFFCURVE",
"302 298 CURVE SMOOTH",
"391 298 LINE SMOOTH",
"441 298 OFFCURVE",
"474 268 OFFCURVE",
"474 227 CURVE SMOOTH",
"474 188 OFFCURVE",
"444 150 OFFCURVE",
"386 150 CURVE SMOOTH",
"296 150 LINE SMOOTH"
);
},
{
closed = 1;
nodes = (
"283 452 OFFCURVE",
"279 459 OFFCURVE",
"279 474 CURVE SMOOTH",
"279 572 LINE SMOOTH",
"279 587 OFFCURVE",
"285 592 OFFCURVE",
"302 592 CURVE SMOOTH",
"384 592 LINE SMOOTH",
"431 592 OFFCURVE",
"468 564 OFFCURVE",
"468 520 CURVE SMOOTH",
"468 481 OFFCURVE",
"438 452 OFFCURVE",
"391 452 CURVE SMOOTH",
"296 452 LINE SMOOTH"
);
}
);
};
layerId = "258ED206-D907-4350-8EBA-CBDDA1C16BF7";
paths = (
{
closed = 1;
nodes = (
"371 0 LINE SMOOTH",
"587 0 OFFCURVE",
"670 64 OFFCURVE",
"670 202 CURVE",
"670 257 OFFCURVE",
"663 343 OFFCURVE",
"532 382 CURVE",
"624 427 OFFCURVE",
"652 477 OFFCURVE",
"652 546 CURVE SMOOTH",
"652 672 OFFCURVE",
"562 742 OFFCURVE",
"355 742 CURVE SMOOTH",
"52 742 LINE",
"52 0 LINE"
);
},
{
closed = 1;
nodes = (
"259 298 LINE",
"371 298 LINE",
"421 298 OFFCURVE",
"454 268 OFFCURVE",
"454 227 CURVE SMOOTH",
"454 188 OFFCURVE",
"424 150 OFFCURVE",
"366 150 CURVE",
"259 150 LINE"
);
},
{
closed = 1;
nodes = (
"259 592 LINE",
"364 592 LINE SMOOTH",
"411 592 OFFCURVE",
"448 564 OFFCURVE",
"448 520 CURVE SMOOTH",
"448 481 OFFCURVE",
"418 452 OFFCURVE",
"371 452 CURVE SMOOTH",
"259 452 LINE"
);
}
);
width = 703;
},
{
background = {
paths = (
{
closed = 1;
nodes = (
"331 0 LINE SMOOTH",
"506 0 OFFCURVE",
"609 65 OFFCURVE",
"609 197 CURVE SMOOTH",
"609 297 OFFCURVE",
"550 356 OFFCURVE",
"460 373 CURVE SMOOTH",
"454 374 OFFCURVE",
"454 380 OFFCURVE",
"460 382 CURVE SMOOTH",
"548 409 OFFCURVE",
"591 467 OFFCURVE",
"591 551 CURVE SMOOTH",
"591 675 OFFCURVE",
"494 742 OFFCURVE",
"328 742 CURVE SMOOTH",
"123 742 LINE SMOOTH",
"116 742 OFFCURVE",
"114 740 OFFCURVE",
"114 732 CURVE SMOOTH",
"114 8 LINE SMOOTH",
"114 3 OFFCURVE",
"117 0 OFFCURVE",
"122 0 CURVE SMOOTH"
);
},
{
closed = 1;
nodes = (
"162 40 OFFCURVE",
"160 43 OFFCURVE",
"160 50 CURVE SMOOTH",
"160 346 LINE SMOOTH",
"160 353 OFFCURVE",
"163 355 OFFCURVE",
"171 355 CURVE SMOOTH",
"340 355 LINE SMOOTH",
"465 355 OFFCURVE",
"561 311 OFFCURVE",
"561 191 CURVE SMOOTH",
"561 82 OFFCURVE",
"484 40 OFFCURVE",
"326 40 CURVE SMOOTH",
"167 40 LINE SMOOTH"
);
},
{
closed = 1;
nodes = (
"162 395 OFFCURVE",
"160 398 OFFCURVE",
"160 405 CURVE SMOOTH",
"160 694 LINE SMOOTH",
"160 700 OFFCURVE",
"163 702 OFFCURVE",
"169 702 CURVE SMOOTH",
"324 702 LINE SMOOTH",
"459 702 OFFCURVE",
"543 654 OFFCURVE",
"543 546 CURVE SMOOTH",
"543 424 OFFCURVE",
"433 395 OFFCURVE",
"340 395 CURVE SMOOTH",
"167 395 LINE SMOOTH"
);
}
);
};
layerId = "91AB5BCA-6A50-42DA-B2F7-8181BF189245";
paths = (
{
closed = 1;
nodes = (
"329 0 LINE",
"504 0 OFFCURVE",
"607 65 OFFCURVE",
"607 197 CURVE",
"607 295 OFFCURVE",
"552 358 OFFCURVE",
"442 376 CURVE",
"549 407 OFFCURVE",
"589 467 OFFCURVE",
"589 551 CURVE SMOOTH",
"589 675 OFFCURVE",
"492 742 OFFCURVE",
"326 742 CURVE SMOOTH",
"114 742 LINE",
"114 0 LINE"
);
},
{
closed = 1;
nodes = (
"158 355 LINE",
"338 355 LINE SMOOTH",
"463 355 OFFCURVE",
"559 311 OFFCURVE",
"559 191 CURVE SMOOTH",
"559 82 OFFCURVE",
"482 40 OFFCURVE",
"324 40 CURVE",
"158 40 LINE"
);
},
{
closed = 1;
nodes = (
"158 702 LINE",
"322 702 LINE SMOOTH",
"457 702 OFFCURVE",
"541 654 OFFCURVE",
"541 546 CURVE SMOOTH",
"541 424 OFFCURVE",
"431 395 OFFCURVE",
"338 395 CURVE SMOOTH",
"158 395 LINE"
);
}
);
width = 682;
}
);
rightKerningGroup = B;
unicode = 0042;
},
{
glyphname = C;
lastChange = "2016-11-02 00:47:50 +0000";
layers = (
{
anchors = (
{
name = bottom;
position = "{383, 0}";
},
{
name = top;
position = "{385, 742}";
}
);
background = {
anchors = (
{
name = bottom;
position = "{383, 0}";
},
{
name = top;
position = "{385, 742}";
}
);
paths = (
{
closed = 1;
nodes = (
"168 752 OFFCURVE",
"30 606 OFFCURVE",
"30 381 CURVE SMOOTH",
"30 155 OFFCURVE",
"168 -10 OFFCURVE",
"383 -10 CURVE SMOOTH",
"614 -10 OFFCURVE",
"700 167 OFFCURVE",
"710 221 CURVE SMOOTH",
"714 247 OFFCURVE",
"703 252 OFFCURVE",
"696 254 CURVE SMOOTH",
"571 279 LINE SMOOTH",
"555 282 OFFCURVE",
"546 279 OFFCURVE",
"543 271 CURVE SMOOTH",
"508 183 OFFCURVE",
"457 154 OFFCURVE",
"390 154 CURVE SMOOTH",
"309 154 OFFCURVE",
"268 212 OFFCURVE",
"268 377 CURVE SMOOTH",
"268 540 OFFCURVE",
"316 598 OFFCURVE",
"391 598 CURVE SMOOTH",
"459 598 OFFCURVE",
"486 544 OFFCURVE",
"498 475 CURVE",
"688 487 LINE",
"703 489 OFFCURVE",
"707 494 OFFCURVE",
"701 522 CURVE SMOOTH",
"675 655 OFFCURVE",
"554 752 OFFCURVE",
"385 752 CURVE SMOOTH"
);
}
);
};
layerId = "258ED206-D907-4350-8EBA-CBDDA1C16BF7";
paths = (
{
closed = 1;
nodes = (
"168 752 OFFCURVE",
"30 606 OFFCURVE",
"30 381 CURVE SMOOTH",
"30 155 OFFCURVE",
"168 -10 OFFCURVE",
"383 -10 CURVE SMOOTH",
"550 -10 OFFCURVE",
"694 96 OFFCURVE",
"715 250 CURVE",
"549 283 LINE",
"513 195 OFFCURVE",
"471 154 OFFCURVE",
"390 154 CURVE SMOOTH",
"309 154 OFFCURVE",
"268 212 OFFCURVE",
"268 377 CURVE SMOOTH",
"268 540 OFFCURVE",
"316 598 OFFCURVE",
"391 598 CURVE SMOOTH",
"459 598 OFFCURVE",
"486 544 OFFCURVE",
"498 475 CURVE",
"707 488 LINE",
"690 648 OFFCURVE",
"561 752 OFFCURVE",
"385 752 CURVE SMOOTH"
);
}
);
width = 747;
},
{
anchors = (
{
name = bottom;
position = "{381, 0}";
},
{
name = top;
position = "{375, 742}";
}
);
background = {
anchors = (
{
name = bottom;
position = "{381, 0}";
},
{
name = top;
position = "{375, 742}";
}
);
guideLines = (
{
angle = 90;
position = "{636, 369}";
}
);
paths = (
{
closed = 1;
nodes = (
"188 752 OFFCURVE",
"78 610 OFFCURVE",
"78 368 CURVE SMOOTH",
"78 127 OFFCURVE",
"188 -10 OFFCURVE",
"381 -10 CURVE SMOOTH",
"502 -10 OFFCURVE",
"602 61 OFFCURVE",
"637 171 CURVE SMOOTH",
"638 175 OFFCURVE",
"637 177 OFFCURVE",
"635 178 CURVE SMOOTH",
"601 188 LINE SMOOTH",
"598 189 OFFCURVE",
"596 188 OFFCURVE",
"595 186 CURVE SMOOTH",
"555 81 OFFCURVE",
"489 32 OFFCURVE",
"385 32 CURVE SMOOTH",
"212 32 OFFCURVE",
"126 153 OFFCURVE",
"126 368 CURVE SMOOTH",
"126 591 OFFCURVE",
"214 710 OFFCURVE",
"377 710 CURVE SMOOTH",
"478 710 OFFCURVE",
"558 647 OFFCURVE",
"581 552 CURVE SMOOTH",
"582 546 OFFCURVE",
"584 544 OFFCURVE",
"588 545 CURVE SMOOTH",
"624 549 LINE SMOOTH",
"629 549 OFFCURVE",
"630 551 OFFCURVE",
"629 556 CURVE SMOOTH",
"617 659 OFFCURVE",
"497 752 OFFCURVE",
"375 752 CURVE SMOOTH"
);
}
);
};
guideLines = (
{
angle = 90;
position = "{744, 369}";
}
);
layerId = "91AB5BCA-6A50-42DA-B2F7-8181BF189245";
paths = (
{
closed = 1;
nodes = (
"188 752 OFFCURVE",
"78 610 OFFCURVE",
"78 368 CURVE SMOOTH",
"78 127 OFFCURVE",
"188 -10 OFFCURVE",
"381 -10 CURVE SMOOTH",
"503 -10 OFFCURVE",
"604 63 OFFCURVE",
"639 177 CURVE",
"596 189 LINE",
"556 82 OFFCURVE",
"490 32 OFFCURVE",
"385 32 CURVE SMOOTH",
"212 32 OFFCURVE",
"126 153 OFFCURVE",
"126 368 CURVE SMOOTH",
"126 591 OFFCURVE",
"214 710 OFFCURVE",
"377 710 CURVE SMOOTH",
"479 710 OFFCURVE",
"560 644 OFFCURVE",
"583 544 CURVE",
"630 550 LINE",
"618 656 OFFCURVE",
"497 752 OFFCURVE",
"375 752 CURVE SMOOTH"
);
}
);
width = 695;
}
);
leftKerningGroup = O;
unicode = 0043;
},
{
glyphname = D;
lastChange = "2016-11-02 00:47:50 +0000";
layers = (
{
anchors = (
{
name = center;
position = "{390, 371}";
},
{
name = top;
position = "{390, 742}";
}
);
background = {
anchors = (
{
name = center;
position = "{390, 371}";
},
{
name = top;
position = "{390, 742}";
}
);
paths = (
{
closed = 1;
nodes = (
"52 0 LINE",
"344 0 LINE SMOOTH",
"607 0 OFFCURVE",
"740 157 OFFCURVE",
"740 373 CURVE SMOOTH",
"740 584 OFFCURVE",
"613 731 OFFCURVE",
"345 741 CURVE SMOOTH",
"281 743 OFFCURVE",
"73 742 OFFCURVE",
"52 742 CURVE"
);
},
{
closed = 1;
nodes = (
"299 585 LINE SMOOTH",
"451 585 OFFCURVE",
"502 513 OFFCURVE",
"502 376 CURVE SMOOTH",
"502 215 OFFCURVE",
"426 157 OFFCURVE",
"300 157 CURVE SMOOTH",
"279 157 LINE",
"279 585 LINE"
);
}
);
};
layerId = "258ED206-D907-4350-8EBA-CBDDA1C16BF7";
paths = (
{
closed = 1;
nodes = (
"52 0 LINE",
"344 0 LINE SMOOTH",
"607 0 OFFCURVE",
"740 157 OFFCURVE",
"740 373 CURVE SMOOTH",
"740 584 OFFCURVE",
"613 731 OFFCURVE",
"345 741 CURVE SMOOTH",
"281 743 OFFCURVE",
"73 742 OFFCURVE",
"52 742 CURVE"
);
},
{
closed = 1;
nodes = (
"299 585 LINE SMOOTH",
"451 585 OFFCURVE",
"502 513 OFFCURVE",
"502 376 CURVE SMOOTH",
"502 215 OFFCURVE",
"426 157 OFFCURVE",
"300 157 CURVE SMOOTH",
"279 157 LINE",
"279 585 LINE"
);
}
);
width = 781;
},
{
anchors = (
{
name = center;
position = "{342, 371}";
},
{
name = top;
position = "{336, 742}";
}
);
background = {
anchors = (
{
name = center;
position = "{342, 371}";
},
{
name = top;
position = "{336, 742}";
}
);
paths = (
{
closed = 1;
nodes = (
"114 0 LINE",
"225 0 LINE SMOOTH",
"497 0 OFFCURVE",
"626 115 OFFCURVE",
"626 376 CURVE SMOOTH",
"626 624 OFFCURVE",
"514 739 OFFCURVE",
"239 741 CURVE SMOOTH",
"177 741 OFFCURVE",
"116 742 OFFCURVE",
"114 742 CURVE"
);
},
{
closed = 1;
nodes = (
"162 701 OFFCURVE",
"210 701 OFFCURVE",
"228 701 CURVE SMOOTH",
"472 696 OFFCURVE",
"578 628 OFFCURVE",
"578 372 CURVE SMOOTH",
"578 130 OFFCURVE",
"479 40 OFFCURVE",
"221 40 CURVE SMOOTH",
"160 40 LINE",
"160 701 LINE"
);
}
);
};
layerId = "91AB5BCA-6A50-42DA-B2F7-8181BF189245";
paths = (
{
closed = 1;
nodes = (
"114 0 LINE",
"225 0 LINE SMOOTH",
"497 0 OFFCURVE",
"626 115 OFFCURVE",
"626 376 CURVE SMOOTH",
"626 624 OFFCURVE",
"514 739 OFFCURVE",
"239 741 CURVE SMOOTH",
"177 741 OFFCURVE",
"116 742 OFFCURVE",
"114 742 CURVE"
);
},
{
closed = 1;
nodes = (
"228 701 LINE SMOOTH",
"472 696 OFFCURVE",
"578 628 OFFCURVE",
"578 372 CURVE SMOOTH",
"578 130 OFFCURVE",
"479 40 OFFCURVE",
"221 40 CURVE SMOOTH",
"160 40 LINE",
"160 701 LINE"
);
}
);
width = 703;
}
);
rightKerningGroup = O;
unicode = 0044;
},
{
glyphname = Eth;
lastChange = "2016-11-02 00:47:50 +0000";
layers = (
{
background = {
components = (
{
name = D;
transform = "{1, 0, 0, 1, 20, 0}";
}
);
paths = (
{
closed = 1;
nodes = (
"432 426 OFFCURVE",
"425 434 OFFCURVE",
"414 434 CURVE SMOOTH",
"43 434 LINE SMOOTH",
"31 434 OFFCURVE",
"24 426 OFFCURVE",
"24 411 CURVE SMOOTH",
"24 318 LINE SMOOTH",
"24 301 OFFCURVE",
"30 293 OFFCURVE",
"50 293 CURVE SMOOTH",
"399 293 LINE SMOOTH",
"422 293 OFFCURVE",
"432 301 OFFCURVE",
"432 321 CURVE SMOOTH",
"432 414 LINE SMOOTH"
);
}
);
};
components = (
{
name = D;
transform = "{1, 0, 0, 1, 20, 0}";
}
);
layerId = "258ED206-D907-4350-8EBA-CBDDA1C16BF7";
paths = (
{
closed = 1;
nodes = (
"432 426 OFFCURVE",
"425 434 OFFCURVE",
"414 434 CURVE SMOOTH",
"43 434 LINE SMOOTH",
"31 434 OFFCURVE",
"24 426 OFFCURVE",
"24 411 CURVE SMOOTH",
"24 318 LINE SMOOTH",
"24 301 OFFCURVE",
"30 293 OFFCURVE",
"50 293 CURVE SMOOTH",
"399 293 LINE SMOOTH",
"422 293 OFFCURVE",
"432 301 OFFCURVE",
"432 321 CURVE SMOOTH",
"432 414 LINE SMOOTH"
);
}
);
width = 801;
},
{
background = {
components = (
{
name = D;
}
);
paths = (
{
closed = 1;
nodes = (
"342 392 OFFCURVE",
"340 395 OFFCURVE",
"335 395 CURVE SMOOTH",
"42 395 LINE SMOOTH",
"37 395 OFFCURVE",
"35 392 OFFCURVE",
"35 386 CURVE SMOOTH",
"35 363 LINE SMOOTH",
"35 356 OFFCURVE",
"37 353 OFFCURVE",
"45 353 CURVE SMOOTH",
"329 353 LINE SMOOTH",
"338 353 OFFCURVE",
"342 356 OFFCURVE",
"342 364 CURVE SMOOTH",
"342 387 LINE SMOOTH"
);
}
);
};
components = (
{
name = D;
transform = "{1, 0, 0, 1, -4, 0}";
}
);
layerId = "91AB5BCA-6A50-42DA-B2F7-8181BF189245";
paths = (
{
closed = 1;
nodes = (
"342 392 OFFCURVE",
"340 395 OFFCURVE",
"335 395 CURVE SMOOTH",
"42 395 LINE SMOOTH",
"37 395 OFFCURVE",
"35 392 OFFCURVE",
"35 386 CURVE SMOOTH",
"35 363 LINE SMOOTH",
"35 356 OFFCURVE",
"37 353 OFFCURVE",
"45 353 CURVE SMOOTH",
"329 353 LINE SMOOTH",
"338 353 OFFCURVE",
"342 356 OFFCURVE",
"342 364 CURVE SMOOTH",
"342 387 LINE SMOOTH"
);
}
);
width = 687;
}
);
rightKerningGroup = O;
rightMetricsKey = D;
unicode = 00D0;
},
{
glyphname = E;
lastChange = "2016-11-10 18:39:38 +0000";
layers = (
{
anchors = (
{
name = bottom;
position = "{334, 0}";
},
{
name = ogonek;
position = "{608, 10}";
},
{
name = top;
position = "{334, 742}";
}
);
background = {
anchors = (
{
name = bottom;
position = "{334, 0}";
},
{
name = ogonek;
position = "{608, 10}";
},
{
name = top;
position = "{334, 742}";
}
);
paths = (
{
closed = 1;
nodes = (
"50 25 LINE SMOOTH",
"50 8 OFFCURVE",
"57 0 OFFCURVE",
"77 0 CURVE SMOOTH",
"612 0 LINE SMOOTH",
"629 0 OFFCURVE",
"636 10 OFFCURVE",
"636 22 CURVE SMOOTH",
"636 145 LINE SMOOTH",
"636 159 OFFCURVE",
"628 164 OFFCURVE",
"614 164 CURVE SMOOTH",
"289 164 LINE SMOOTH",
"280 164 OFFCURVE",
"277 167 OFFCURVE",
"277 178 CURVE SMOOTH",
"277 278 LINE SMOOTH",
"277 286 OFFCURVE",
"283 292 OFFCURVE",
"293 292 CURVE SMOOTH",
"478 292 LINE SMOOTH",
"491 292 OFFCURVE",
"496 300 OFFCURVE",
"496 309 CURVE SMOOTH",
"496 433 LINE SMOOTH",
"496 446 OFFCURVE",
"489 453 OFFCURVE",
"475 453 CURVE SMOOTH",
"295 453 LINE SMOOTH",
"285 453 OFFCURVE",
"277 460 OFFCURVE",
"277 474 CURVE SMOOTH",
"277 559 LINE SMOOTH",
"277 572 OFFCURVE",
"285 578 OFFCURVE",
"300 578 CURVE SMOOTH",
"600 578 LINE SMOOTH",
"618 578 OFFCURVE",
"626 589 OFFCURVE",
"626 605 CURVE SMOOTH",
"627 721 LINE SMOOTH",
"627 734 OFFCURVE",
"621 742 OFFCURVE",
"609 742 CURVE SMOOTH",
"69 742 LINE SMOOTH",
"57 742 OFFCURVE",
"50 734 OFFCURVE",
"50 719 CURVE SMOOTH"
);
}
);
};
layerId = "258ED206-D907-4350-8EBA-CBDDA1C16BF7";
paths = (
{
closed = 1;
nodes = (
"627 0 LINE",
"627 164 LINE",
"267 164 LINE",
"267 292 LINE",
"487 292 LINE",
"487 453 LINE",
"268 453 LINE",
"268 578 LINE",
"617 578 LINE",
"618 742 LINE",
"50 742 LINE",
"50 0 LINE"
);
}
);
width = 670;
},
{
anchors = (
{
name = bottom;
position = "{364, 0}";
},
{
name = ogonek;
position = "{549, 10}";
},
{
name = top;
position = "{345, 742}";
}
);
background = {
anchors = (
{
name = bottom;
position = "{364, 0}";
},
{
name = ogonek;
position = "{549, 10}";
},
{
name = top;
position = "{345, 742}";
}
);
paths = (
{
closed = 1;
nodes = (
"114 10 LINE SMOOTH",
"114 2 OFFCURVE",
"116 0 OFFCURVE",
"123 0 CURVE SMOOTH",
"553 0 LINE SMOOTH",
"558 0 OFFCURVE",
"560 2 OFFCURVE",
"560 7 CURVE SMOOTH",
"560 33 LINE SMOOTH",
"560 39 OFFCURVE",
"558 40 OFFCURVE",
"552 40 CURVE SMOOTH",
"169 40 LINE SMOOTH",
"162 40 OFFCURVE",
"160 41 OFFCURVE",
"160 49 CURVE SMOOTH",
"160 346 LINE SMOOTH",
"160 354 OFFCURVE",
"162 355 OFFCURVE",
"169 355 CURVE SMOOTH",
"457 355 LINE SMOOTH",
"463 355 OFFCURVE",
"465 356 OFFCURVE",
"465 362 CURVE SMOOTH",
"465 388 LINE SMOOTH",
"465 393 OFFCURVE",
"463 395 OFFCURVE",
"458 395 CURVE SMOOTH",
"169 395 LINE SMOOTH",
"162 395 OFFCURVE",
"160 396 OFFCURVE",
"160 402 CURVE SMOOTH",
"160 693 LINE SMOOTH",
"160 701 OFFCURVE",
"162 702 OFFCURVE",
"169 702 CURVE SMOOTH",
"537 702 LINE SMOOTH",
"543 702 OFFCURVE",
"545 703 OFFCURVE",
"545 709 CURVE SMOOTH",
"545 735 LINE SMOOTH",
"545 740 OFFCURVE",
"543 742 OFFCURVE",
"538 742 CURVE SMOOTH",
"123 742 LINE SMOOTH",
"116 742 OFFCURVE",
"114 740 OFFCURVE",
"114 732 CURVE SMOOTH"
);
}
);
};
layerId = "91AB5BCA-6A50-42DA-B2F7-8181BF189245";
paths = (
{
closed = 1;
nodes = (
"560 0 LINE",
"560 39 LINE",
"160 40 LINE",
"160 355 LINE",
"465 355 LINE",
"465 395 LINE",
"160 395 LINE",
"160 702 LINE",
"545 702 LINE",
"545 742 LINE",
"114 742 LINE",
"114 0 LINE"
);
}
);
width = 612;
}
);
unicode = 0045;
},
{
glyphname = F;
lastChange = "2016-11-10 18:31:43 +0000";
layers = (
{
background = {
paths = (
{
closed = 1;
nodes = (
"52 25 LINE SMOOTH",
"52 8 OFFCURVE",
"58 0 OFFCURVE",
"79 0 CURVE",
"246 0 LINE SMOOTH",
"269 0 OFFCURVE",
"279 8 OFFCURVE",
"279 29 CURVE SMOOTH",
"279 271 LINE SMOOTH",
"279 280 OFFCURVE",
"285 286 OFFCURVE",
"295 286 CURVE SMOOTH",
"482 286 LINE SMOOTH",
"496 286 OFFCURVE",
"500 293 OFFCURVE",
"500 303 CURVE SMOOTH",
"500 425 LINE SMOOTH",
"500 438 OFFCURVE",
"494 445 OFFCURVE",
"480 445 CURVE SMOOTH",
"297 445 LINE SMOOTH",
"286 445 OFFCURVE",
"279 451 OFFCURVE",
"279 465 CURVE SMOOTH",
"279 559 LINE SMOOTH",
"279 572 OFFCURVE",
"286 578 OFFCURVE",
"302 578 CURVE SMOOTH",
"596 578 LINE SMOOTH",
"614 578 OFFCURVE",
"621 589 OFFCURVE",
"621 605 CURVE SMOOTH",
"622 721 LINE SMOOTH",
"622 734 OFFCURVE",
"616 742 OFFCURVE",
"604 742 CURVE SMOOTH",
"71 742 LINE SMOOTH",
"60 742 OFFCURVE",
"52 734 OFFCURVE",
"52 719 CURVE SMOOTH"
);
}
);
};
layerId = "258ED206-D907-4350-8EBA-CBDDA1C16BF7";
paths = (
{
closed = 1;
nodes = (
"72 0 LINE",
"279 0 LINE",
"279 286 LINE",
"500 286 LINE",
"500 445 LINE",
"279 445 LINE",
"279 578 LINE",
"621 578 LINE",
"622 742 LINE",
"72 742 LINE"
);
}
);
width = 656;
},
{
background = {
paths = (
{
closed = 1;
nodes = (
"114 10 LINE SMOOTH",
"114 2 OFFCURVE",
"116 0 OFFCURVE",
"123 0 CURVE SMOOTH",
"153 0 LINE SMOOTH",
"158 0 OFFCURVE",
"160 2 OFFCURVE",
"160 7 CURVE SMOOTH",
"160 333 LINE SMOOTH",
"160 341 OFFCURVE",
"162 342 OFFCURVE",
"169 342 CURVE SMOOTH",
"467 342 LINE SMOOTH",
"473 342 OFFCURVE",
"475 343 OFFCURVE",
"475 349 CURVE SMOOTH",
"475 375 LINE SMOOTH",
"475 380 OFFCURVE",
"473 382 OFFCURVE",
"468 382 CURVE SMOOTH",
"169 382 LINE SMOOTH",
"162 382 OFFCURVE",
"160 383 OFFCURVE",
"160 389 CURVE SMOOTH",
"160 693 LINE SMOOTH",
"160 701 OFFCURVE",
"162 702 OFFCURVE",
"169 702 CURVE SMOOTH",
"527 702 LINE SMOOTH",
"533 702 OFFCURVE",
"535 703 OFFCURVE",
"535 709 CURVE SMOOTH",
"535 735 LINE SMOOTH",
"535 740 OFFCURVE",
"533 742 OFFCURVE",
"528 742 CURVE SMOOTH",
"123 742 LINE SMOOTH",
"116 742 OFFCURVE",
"114 740 OFFCURVE",
"114 732 CURVE SMOOTH"
);
}
);
};
layerId = "91AB5BCA-6A50-42DA-B2F7-8181BF189245";
paths = (
{
closed = 1;
nodes = (
"114 0 LINE",
"158 0 LINE",
"158 342 LINE",
"473 342 LINE",
"473 382 LINE",
"158 382 LINE",
"158 702 LINE",
"533 702 LINE",
"533 742 LINE",
"114 742 LINE"
);
}
);
width = 581;
}
);
rightKerningGroup = F;
unicode = 0046;
},
{
glyphname = G;
lastChange = "2016-11-02 00:47:50 +0000";
layers = (
{
anchors = (
{
name = bottom;
position = "{382, 0}";
},
{
name = top;
position = "{382, 742}";
}
);
background = {
anchors = (
{
name = bottom;
position = "{382, 0}";
},
{
name = top;
position = "{382, 742}";
}
);
paths = (
{
closed = 1;
nodes = (
"498 -10 OFFCURVE",
"549 40 OFFCURVE",
"585 75 CURVE SMOOTH",
"590 81 OFFCURVE",
"593 81 OFFCURVE",
"596 77 CURVE SMOOTH",
"636 19 LINE SMOOTH",
"646 5 OFFCURVE",
"656 0 OFFCURVE",
"668 0 CURVE SMOOTH",
"706 0 LINE SMOOTH",
"716 0 OFFCURVE",
"723 8 OFFCURVE",
"723 17 CURVE SMOOTH",
"723 344 LINE SMOOTH",
"723 362 OFFCURVE",
"710 375 OFFCURVE",
"685 375 CURVE SMOOTH",
"405 377 LINE SMOOTH",
"390 377 OFFCURVE",
"384 370 OFFCURVE",
"384 360 CURVE SMOOTH",
"384 264 LINE SMOOTH",
"384 247 OFFCURVE",
"390 242 OFFCURVE",
"404 242 CURVE SMOOTH",
"498 242 LINE SMOOTH",
"508 242 OFFCURVE",
"511 236 OFFCURVE",
"507 225 CURVE",
"504 216 LINE",
"486 170 OFFCURVE",
"452 146 OFFCURVE",
"396 146 CURVE SMOOTH",
"320 146 OFFCURVE",
"268 193 OFFCURVE",
"268 374 CURVE SMOOTH",
"268 544 OFFCURVE",
"314 597 OFFCURVE",
"388 597 CURVE SMOOTH",
"460 597 OFFCURVE",
"495 547 OFFCURVE",
"505 492 CURVE SMOOTH",
"508 479 OFFCURVE",
"509 472 OFFCURVE",
"525 472 CURVE SMOOTH",
"696 498 LINE SMOOTH",
"712 500 OFFCURVE",
"716 505 OFFCURVE",
"710 533 CURVE SMOOTH",
"686 640 OFFCURVE",
"573 752 OFFCURVE",
"393 752 CURVE SMOOTH",
"179 752 OFFCURVE",
"30 599 OFFCURVE",
"30 368 CURVE SMOOTH",
"30 145 OFFCURVE",
"169 -10 OFFCURVE",
"380 -10 CURVE SMOOTH"
);
}
);
};
layerId = "258ED206-D907-4350-8EBA-CBDDA1C16BF7";
paths = (
{
closed = 1;
nodes = (
"502 -10 OFFCURVE",
"555 44 OFFCURVE",
"592 82 CURVE",
"649 0 LINE",
"723 0 LINE",
"723 375 LINE",
"384 377 LINE",
"384 242 LINE",
"513 242 LINE",
"504 216 LINE",
"486 170 OFFCURVE",
"452 146 OFFCURVE",
"396 146 CURVE SMOOTH",
"320 146 OFFCURVE",
"268 193 OFFCURVE",
"268 374 CURVE SMOOTH",
"268 544 OFFCURVE",
"314 597 OFFCURVE",
"388 597 CURVE SMOOTH",
"463 597 OFFCURVE",
"499 536 OFFCURVE",
"509 470 CURVE",
"717 501 LINE",
"693 624 OFFCURVE",
"577 752 OFFCURVE",
"393 752 CURVE SMOOTH",
"179 752 OFFCURVE",
"30 599 OFFCURVE",
"30 368 CURVE SMOOTH",
"30 145 OFFCURVE",
"169 -10 OFFCURVE",
"380 -10 CURVE SMOOTH"
);
}
);
width = 771;
},
{
anchors = (
{
name = bottom;
position = "{379, 0}";
},
{
name = top;
position = "{374, 742}";
}
);
background = {
anchors = (
{
name = bottom;
position = "{379, 0}";
},
{
name = top;
position = "{374, 742}";
}
);
paths = (
{
closed = 1;
nodes = (
"484 -10 OFFCURVE",
"557 45 OFFCURVE",
"596 115 CURVE SMOOTH",
"600 122 OFFCURVE",
"604 121 OFFCURVE",
"604 115 CURVE SMOOTH",
"604 9 LINE SMOOTH",
"604 0 OFFCURVE",
"609 0 OFFCURVE",
"617 0 CURVE SMOOTH",
"634 0 LINE SMOOTH",
"641 0 OFFCURVE",
"644 2 OFFCURVE",
"644 11 CURVE SMOOTH",
"644 371 LINE SMOOTH",
"644 375 OFFCURVE",
"642 377 OFFCURVE",
"638 377 CURVE SMOOTH",
"402 377 LINE SMOOTH",
"399 377 OFFCURVE",
"397 375 OFFCURVE",
"397 371 CURVE SMOOTH",
"397 348 LINE SMOOTH",
"397 344 OFFCURVE",
"399 342 OFFCURVE",
"404 342 CURVE SMOOTH",
"593 342 LINE SMOOTH",
"599 342 OFFCURVE",
"604 341 OFFCURVE",
"604 334 CURVE SMOOTH",
"604 255 LINE SMOOTH",
"604 161 OFFCURVE",
"532 32 OFFCURVE",
"374 32 CURVE SMOOTH",
"211 32 OFFCURVE",
"126 153 OFFCURVE",
"126 374 CURVE SMOOTH",
"126 584 OFFCURVE",
"213 710 OFFCURVE",
"374 710 CURVE SMOOTH",
"480 710 OFFCURVE",
"565 640 OFFCURVE",
"581 551 CURVE SMOOTH",
"582 546 OFFCURVE",
"585 544 OFFCURVE",
"588 545 CURVE SMOOTH",
"623 551 LINE SMOOTH",
"628 552 OFFCURVE",
"628 555 OFFCURVE",
"628 559 CURVE SMOOTH",
"616 663 OFFCURVE",
"497 752 OFFCURVE",
"374 752 CURVE SMOOTH",
"193 752 OFFCURVE",
"78 614 OFFCURVE",
"78 368 CURVE SMOOTH",
"78 129 OFFCURVE",
"188 -10 OFFCURVE",
"373 -10 CURVE SMOOTH"
);
}
);
};
layerId = "91AB5BCA-6A50-42DA-B2F7-8181BF189245";
paths = (
{
closed = 1;
nodes = (
"488 -10 OFFCURVE",
"564 51 OFFCURVE",
"604 129 CURVE",
"604 0 LINE",
"644 0 LINE",
"644 377 LINE",
"397 377 LINE",
"397 342 LINE",
"604 342 LINE",
"604 255 LINE SMOOTH",
"604 161 OFFCURVE",
"532 32 OFFCURVE",
"374 32 CURVE SMOOTH",
"211 32 OFFCURVE",
"126 153 OFFCURVE",
"126 374 CURVE SMOOTH",
"126 584 OFFCURVE",
"213 710 OFFCURVE",
"374 710 CURVE SMOOTH",
"481 710 OFFCURVE",
"566 637 OFFCURVE",
"582 544 CURVE",
"629 552 LINE",
"617 660 OFFCURVE",
"497 752 OFFCURVE",
"374 752 CURVE SMOOTH",
"193 752 OFFCURVE",
"78 614 OFFCURVE",
"78 368 CURVE SMOOTH",
"78 129 OFFCURVE",
"188 -10 OFFCURVE",
"373 -10 CURVE SMOOTH"
);
}
);
width = 730;
}
);
leftKerningGroup = O;
rightKerningGroup = G;
unicode = 0047;
},
{
glyphname = H;
lastChange = "2016-11-14 18:49:50 +0000";
layers = (
{
anchors = (
{
name = bottom;
position = "{378, 0}";
},
{
name = top;
position = "{380, 742}";
}
);
background = {
anchors = (
{
name = bottom;
position = "{378, 0}";
},
{
name = top;
position = "{380, 742}";
}
);
paths = (
{
closed = 1;
nodes = (
"477 297 OFFCURVE",
"483 290 OFFCURVE",
"483 282 CURVE SMOOTH",
"483 29 LINE SMOOTH",
"483 8 OFFCURVE",
"493 0 OFFCURVE",
"516 0 CURVE SMOOTH",
"683 0 LINE SMOOTH",
"704 0 OFFCURVE",
"710 8 OFFCURVE",
"710 25 CURVE SMOOTH",
"710 719 LINE SMOOTH",
"710 734 OFFCURVE",
"702 742 OFFCURVE",
"691 742 CURVE SMOOTH",
"501 742 LINE SMOOTH",
"490 742 OFFCURVE",
"483 734 OFFCURVE",
"483 721 CURVE SMOOTH",
"483 489 LINE SMOOTH",
"483 476 OFFCURVE",
"476 469 OFFCURVE",
"465 469 CURVE SMOOTH",
"297 469 LINE SMOOTH",
"286 469 OFFCURVE",
"279 476 OFFCURVE",
"279 489 CURVE SMOOTH",
"279 721 LINE SMOOTH",
"279 734 OFFCURVE",
"272 742 OFFCURVE",
"261 742 CURVE SMOOTH",
"71 742 LINE SMOOTH",
"60 742 OFFCURVE",
"52 734 OFFCURVE",
"52 719 CURVE SMOOTH",
"52 25 LINE SMOOTH",
"52 8 OFFCURVE",
"58 0 OFFCURVE",
"79 0 CURVE SMOOTH",
"246 0 LINE SMOOTH",
"269 0 OFFCURVE",
"279 8 OFFCURVE",
"279 29 CURVE SMOOTH",
"279 282 LINE SMOOTH",
"279 290 OFFCURVE",
"285 297 OFFCURVE",
"295 297 CURVE SMOOTH",
"467 297 LINE SMOOTH"
);
}
);
};
layerId = "258ED206-D907-4350-8EBA-CBDDA1C16BF7";
paths = (
{
closed = 1;
nodes = (
"475 0 LINE",
"692 0 LINE",
"692 742 LINE",
"475 742 LINE",
"475 469 LINE",
"271 469 LINE",
"271 742 LINE",
"54 742 LINE",
"54 0 LINE",
"271 0 LINE",
"271 297 LINE",
"475 297 LINE"
);
}
);
width = 746;
},
{
anchors = (
{
name = bottom;
position = "{363, 0}";
},
{
name = top;
position = "{363, 742}";
}
);
background = {
anchors = (
{
name = bottom;
position = "{363, 0}";
},
{
name = top;
position = "{363, 742}";
}
);
paths = (
{
closed = 1;
nodes = (
"563 366 OFFCURVE",
"565 364 OFFCURVE",
"565 359 CURVE SMOOTH",
"565 9 LINE SMOOTH",
"565 2 OFFCURVE",
"568 0 OFFCURVE",
"575 0 CURVE SMOOTH",
"602 0 LINE SMOOTH",
"608 0 OFFCURVE",
"611 3 OFFCURVE",
"611 10 CURVE SMOOTH",
"611 732 LINE SMOOTH",
"611 740 OFFCURVE",
"609 742 OFFCURVE",
"602 742 CURVE SMOOTH",
"573 742 LINE SMOOTH",
"567 742 OFFCURVE",
"565 739 OFFCURVE",
"565 733 CURVE SMOOTH",
"565 414 LINE SMOOTH",
"565 408 OFFCURVE",
"563 406 OFFCURVE",
"557 406 CURVE SMOOTH",
"169 406 LINE SMOOTH",
"162 406 OFFCURVE",
"160 407 OFFCURVE",
"160 415 CURVE SMOOTH",
"160 732 LINE SMOOTH",
"160 740 OFFCURVE",
"158 742 OFFCURVE",
"151 742 CURVE SMOOTH",
"123 742 LINE SMOOTH",
"116 742 OFFCURVE",
"114 740 OFFCURVE",
"114 732 CURVE SMOOTH",
"114 10 LINE SMOOTH",
"114 3 OFFCURVE",
"116 0 OFFCURVE",
"123 0 CURVE SMOOTH",
"150 0 LINE SMOOTH",
"157 0 OFFCURVE",
"160 3 OFFCURVE",
"160 9 CURVE SMOOTH",
"160 360 LINE SMOOTH",
"160 363 OFFCURVE",
"162 366 OFFCURVE",
"166 366 CURVE SMOOTH",
"558 366 LINE SMOOTH"
);
}
);
};
layerId = "91AB5BCA-6A50-42DA-B2F7-8181BF189245";
paths = (
{
closed = 1;
nodes = (
"565 0 LINE",
"611 0 LINE",
"611 742 LINE",
"565 742 LINE",
"565 406 LINE",
"160 406 LINE",
"160 742 LINE",
"114 742 LINE",
"114 0 LINE",
"160 0 LINE",
"160 366 LINE",
"565 366 LINE"
);
}
);
width = 725;
}
);
unicode = 0048;
},
{
glyphname = Hbar;
lastChange = "2016-11-02 00:47:50 +0000";
layers = (
{
background = {
components = (
{
name = H;
transform = "{1, 0, 0, 1, 25, 0}";
}
);
paths = (
{
closed = 1;
nodes = (
"799 651 OFFCURVE",
"793 658 OFFCURVE",
"783 658 CURVE SMOOTH",
"16 658 LINE SMOOTH",
"6 658 OFFCURVE",
"0 651 OFFCURVE",
"0 638 CURVE SMOOTH",
"0 577 LINE SMOOTH",
"0 562 OFFCURVE",
"5 555 OFFCURVE",
"22 555 CURVE SMOOTH",
"770 555 LINE SMOOTH",
"790 555 OFFCURVE",
"799 562 OFFCURVE",
"799 579 CURVE SMOOTH",
"799 640 LINE SMOOTH"
);
}
);
};
components = (
{
name = H;
transform = "{1, 0, 0, 1, 25, 0}";
}
);
layerId = "258ED206-D907-4350-8EBA-CBDDA1C16BF7";
paths = (
{
closed = 1;
nodes = (
"799 651 OFFCURVE",
"793 658 OFFCURVE",
"783 658 CURVE SMOOTH",
"16 658 LINE SMOOTH",
"6 658 OFFCURVE",
"0 651 OFFCURVE",
"0 638 CURVE SMOOTH",
"0 577 LINE SMOOTH",
"0 562 OFFCURVE",
"5 555 OFFCURVE",
"22 555 CURVE SMOOTH",
"770 555 LINE SMOOTH",
"790 555 OFFCURVE",
"799 562 OFFCURVE",
"799 579 CURVE SMOOTH",
"799 640 LINE SMOOTH"
);
}
);
width = 809;
},
{
background = {
components = (
{
name = H;
transform = "{1, 0, 0, 1, -1, 0}";
}
);
paths = (
{
closed = 1;
nodes = (
"702 615 OFFCURVE",
"700 618 OFFCURVE",
"695 618 CURVE SMOOTH",
"12 618 LINE SMOOTH",
"7 618 OFFCURVE",
"5 615 OFFCURVE",
"5 609 CURVE SMOOTH",
"5 588 LINE SMOOTH",
"5 581 OFFCURVE",
"7 578 OFFCURVE",
"15 578 CURVE SMOOTH",
"689 578 LINE SMOOTH",
"698 578 OFFCURVE",
"702 581 OFFCURVE",
"702 589 CURVE SMOOTH",
"702 610 LINE SMOOTH"
);
}
);
};
components = (
{
name = H;
transform = "{1, 0, 0, 1, -5, 0}";
}
);
layerId = "91AB5BCA-6A50-42DA-B2F7-8181BF189245";
paths = (
{
closed = 1;
nodes = (
"702 615 OFFCURVE",
"700 618 OFFCURVE",
"695 618 CURVE SMOOTH",
"12 618 LINE SMOOTH",
"7 618 OFFCURVE",
"5 615 OFFCURVE",
"5 609 CURVE SMOOTH",
"5 588 LINE SMOOTH",
"5 581 OFFCURVE",
"7 578 OFFCURVE",
"15 578 CURVE SMOOTH",
"689 578 LINE SMOOTH",
"698 578 OFFCURVE",
"702 581 OFFCURVE",
"702 589 CURVE SMOOTH",
"702 610 LINE SMOOTH"
);
}
);
width = 707;
}
);
unicode = 0126;
},
{
glyphname = I;
lastChange = "2016-11-02 00:47:50 +0000";
layers = (
{
anchors = (
{
name = bottom;
position = "{165, 0}";
},
{
name = ogonek;
position = "{247, 10}";
},
{
name = top;
position = "{164, 742}";
}
);
background = {
anchors = (
{
name = bottom;
position = "{165, 0}";
},
{
name = ogonek;
position = "{247, 10}";
},
{
name = top;
position = "{166, 742}";
}
);
paths = (
{
closed = 1;
nodes = (
"60 742 OFFCURVE",
"52 734 OFFCURVE",
"52 719 CURVE SMOOTH",
"52 25 LINE SMOOTH",
"52 8 OFFCURVE",
"58 0 OFFCURVE",
"79 0 CURVE SMOOTH",
"246 0 LINE SMOOTH",
"269 0 OFFCURVE",
"279 8 OFFCURVE",
"279 29 CURVE SMOOTH",
"279 721 LINE SMOOTH",
"279 734 OFFCURVE",
"273 742 OFFCURVE",
"261 742 CURVE SMOOTH",
"71 742 LINE SMOOTH"
);
}
);
};
layerId = "258ED206-D907-4350-8EBA-CBDDA1C16BF7";
paths = (
{
closed = 1;
nodes = (
"52 0 LINE",
"270 0 LINE",
"270 742 LINE",
"52 742 LINE"
);
}
);
width = 331;
},
{
anchors = (
{
name = bottom;
position = "{137, 0}";
},
{
name = ogonek;
position = "{149, 10}";
},
{
name = top;
position = "{140, 742}";
}
);
background = {
anchors = (
{
name = bottom;
position = "{137, 0}";
},
{
name = ogonek;
position = "{149, 10}";
},
{
name = top;
position = "{140, 742}";
}
);
paths = (
{
closed = 1;
nodes = (
"116 742 OFFCURVE",
"114 740 OFFCURVE",
"114 732 CURVE SMOOTH",
"114 10 LINE SMOOTH",
"114 2 OFFCURVE",
"116 0 OFFCURVE",
"125 0 CURVE SMOOTH",
"148 0 LINE SMOOTH",
"158 0 OFFCURVE",
"160 2 OFFCURVE",
"160 12 CURVE SMOOTH",
"160 732 LINE SMOOTH",
"160 740 OFFCURVE",
"158 742 OFFCURVE",
"151 742 CURVE SMOOTH",
"123 742 LINE SMOOTH"
);
}
);
};
layerId = "91AB5BCA-6A50-42DA-B2F7-8181BF189245";
paths = (
{
closed = 1;
nodes = (
"114 0 LINE",
"158 0 LINE",
"158 742 LINE",
"114 742 LINE"
);
}
);
width = 272;
}
);
unicode = 0049;
},
{
glyphname = J;
lastChange = "2016-11-02 00:47:50 +0000";
layers = (
{
anchors = (
{
name = top;
position = "{243, 742}";
}
);
background = {
anchors = (
{
name = top;
position = "{243, 742}";
}
);
paths = (
{
closed = 1;
nodes = (
"420 721 LINE SMOOTH",
"420 734 OFFCURVE",
"414 742 OFFCURVE",
"402 742 CURVE SMOOTH",
"213 742 LINE SMOOTH",
"201 742 OFFCURVE",
"193 734 OFFCURVE",
"193 719 CURVE SMOOTH",
"193 268 LINE SMOOTH",
"193 200 OFFCURVE",
"164 175 OFFCURVE",
"115 175 CURVE SMOOTH",
"93 175 OFFCURVE",
"76 180 OFFCURVE",
"60 182 CURVE SMOOTH",
"44 184 OFFCURVE",
"37 174 OFFCURVE",
"36 159 CURVE SMOOTH",
"27 45 LINE SMOOTH",
"25 17 OFFCURVE",
"35 6 OFFCURVE",
"58 2 CURVE SMOOTH",
"103 -6 OFFCURVE",
"141 -10 OFFCURVE",
"182 -10 CURVE SMOOTH",
"338 -10 OFFCURVE",
"420 48 OFFCURVE",
"420 212 CURVE SMOOTH"
);
}
);
};
layerId = "258ED206-D907-4350-8EBA-CBDDA1C16BF7";
paths = (
{
closed = 1;
nodes = (
"420 742 LINE",
"193 742 LINE",
"193 268 LINE SMOOTH",
"193 200 OFFCURVE",
"164 175 OFFCURVE",
"115 175 CURVE SMOOTH",
"84 175 OFFCURVE",
"60 182 OFFCURVE",
"38 185 CURVE",
"24 8 LINE",
"81 -4 OFFCURVE",
"130 -10 OFFCURVE",
"182 -10 CURVE SMOOTH",
"338 -10 OFFCURVE",
"420 48 OFFCURVE",
"420 212 CURVE SMOOTH"
);
}
);
width = 477;
},
{
anchors = (
{
name = top;
position = "{266, 742}";
}
);
background = {
anchors = (
{
name = top;
position = "{266, 742}";
}
);
paths = (
{
closed = 1;
nodes = (
"289 732 LINE SMOOTH",
"289 739 OFFCURVE",
"287 742 OFFCURVE",
"281 742 CURVE SMOOTH",
"251 742 LINE SMOOTH",
"245 742 OFFCURVE",
"243 739 OFFCURVE",
"243 733 CURVE SMOOTH",
"243 154 LINE SMOOTH",
"243 61 OFFCURVE",
"221 34 OFFCURVE",
"156 34 CURVE SMOOTH",
"107 34 OFFCURVE",
"85 49 OFFCURVE",
"64 59 CURVE SMOOTH",
"60 61 OFFCURVE",
"57 60 OFFCURVE",
"56 55 CURVE SMOOTH",
"47 24 LINE SMOOTH",
"46 20 OFFCURVE",
"48 17 OFFCURVE",
"51 15 CURVE SMOOTH",
"58 10 OFFCURVE",
"103 -10 OFFCURVE",
"158 -10 CURVE SMOOTH",
"255 -10 OFFCURVE",
"289 49 OFFCURVE",
"289 144 CURVE SMOOTH"
);
}
);
};
layerId = "91AB5BCA-6A50-42DA-B2F7-8181BF189245";
paths = (
{
closed = 1;
nodes = (
"288 742 LINE",
"244 742 LINE",
"244 154 LINE SMOOTH",
"244 61 OFFCURVE",
"221 32 OFFCURVE",
"156 32 CURVE SMOOTH",
"104 32 OFFCURVE",
"78 53 OFFCURVE",
"56 64 CURVE",
"46 19 LINE",
"53 13 OFFCURVE",
"100 -10 OFFCURVE",
"158 -10 CURVE SMOOTH",
"255 -10 OFFCURVE",
"288 49 OFFCURVE",
"288 144 CURVE SMOOTH"
);
}
);
width = 399;
}
);
leftKerningGroup = J;
unicode = 004A;
},
{
glyphname = K;
lastChange = "2016-11-02 00:47:50 +0000";
layers = (
{
anchors = (
{
name = bottom;
position = "{371, 0}";
},
{
name = top;
position = "{371, 742}";
}
);
background = {
anchors = (
{
name = bottom;
position = "{371, 0}";
},
{
name = top;
position = "{371, 742}";
}
);
paths = (
{
closed = 1;
nodes = (
"527 480 LINE SMOOTH",
"521 494 OFFCURVE",
"522 501 OFFCURVE",
"530 512 CURVE SMOOTH",
"694 713 LINE SMOOTH",
"707 728 OFFCURVE",
"695 742 OFFCURVE",
"673 742 CURVE SMOOTH",
"521 742 LINE SMOOTH",
"497 742 OFFCURVE",
"489 736 OFFCURVE",
"478 721 CURVE SMOOTH",
"294 463 LINE",
"286 453 OFFCURVE",
"279 452 OFFCURVE",
"279 468 CURVE SMOOTH",
"279 721 LINE SMOOTH",
"279 734 OFFCURVE",
"273 742 OFFCURVE",
"261 742 CURVE SMOOTH",
"71 742 LINE SMOOTH",
"60 742 OFFCURVE",
"52 734 OFFCURVE",
"52 719 CURVE SMOOTH",
"52 25 LINE SMOOTH",
"52 8 OFFCURVE",
"58 0 OFFCURVE",
"79 0 CURVE SMOOTH",
"246 0 LINE SMOOTH",
"269 0 OFFCURVE",
"279 8 OFFCURVE",
"279 29 CURVE SMOOTH",
"279 180 LINE SMOOTH",
"279 190 OFFCURVE",
"280 196 OFFCURVE",
"285 202 CURVE SMOOTH",
"356 293 LINE SMOOTH",
"366 306 OFFCURVE",
"372 308 OFFCURVE",
"378 298 CURVE SMOOTH",
"500 20 LINE SMOOTH",
"507 5 OFFCURVE",
"519 0 OFFCURVE",
"536 0 CURVE SMOOTH",
"731 0 LINE SMOOTH",
"751 0 OFFCURVE",
"753 15 OFFCURVE",
"745 31 CURVE SMOOTH"
);
}
);
};
layerId = "258ED206-D907-4350-8EBA-CBDDA1C16BF7";
paths = (
{
closed = 1;
nodes = (
"518 498 LINE",
"718 742 LINE",
"493 742 LINE",
"279 442 LINE",
"279 742 LINE",
"52 742 LINE",
"52 0 LINE",
"279 0 LINE",
"279 194 LINE",
"371 313 LINE",
"509 0 LINE",
"760 0 LINE"
);
}
);
width = 782;
},
{
anchors = (
{
name = bottom;
position = "{341, 0}";
},
{
name = top;
position = "{371, 742}";
}
);
background = {
anchors = (
{
name = bottom;
position = "{343, 0}";
},
{
name = top;
position = "{373, 742}";
}
);
paths = (
{
closed = 1;
nodes = (
"343 445 LINE SMOOTH",
"341 449 OFFCURVE",
"341 449 OFFCURVE",
"343 451 CURVE SMOOTH",
"602 734 LINE SMOOTH",
"606 738 OFFCURVE",
"605 742 OFFCURVE",
"599 742 CURVE SMOOTH",
"561 742 LINE SMOOTH",
"555 742 OFFCURVE",
"553 741 OFFCURVE",
"550 738 CURVE SMOOTH",
"167 322 LINE SMOOTH",
"162 317 OFFCURVE",
"160 317 OFFCURVE",
"160 323 CURVE SMOOTH",
"160 734 LINE SMOOTH",
"160 740 OFFCURVE",
"157 742 OFFCURVE",
"152 742 CURVE SMOOTH",
"122 742 LINE SMOOTH",
"116 742 OFFCURVE",
"114 739 OFFCURVE",
"114 734 CURVE SMOOTH",
"114 9 LINE SMOOTH",
"114 2 OFFCURVE",
"117 0 OFFCURVE",
"124 0 CURVE SMOOTH",
"150 0 LINE SMOOTH",
"157 0 OFFCURVE",
"160 3 OFFCURVE",
"160 9 CURVE SMOOTH",
"160 246 LINE SMOOTH",
"160 254 OFFCURVE",
"162 257 OFFCURVE",
"168 263 CURVE SMOOTH",
"300 409 LINE SMOOTH",
"305 414 OFFCURVE",
"308 415 OFFCURVE",
"312 409 CURVE SMOOTH",
"570 5 LINE SMOOTH",
"572 2 OFFCURVE",
"576 0 OFFCURVE",
"581 0 CURVE SMOOTH",
"620 0 LINE SMOOTH",
"624 0 OFFCURVE",
"626 3 OFFCURVE",
"623 7 CURVE SMOOTH"
);
}
);
};
layerId = "91AB5BCA-6A50-42DA-B2F7-8181BF189245";
paths = (
{
closed = 1;
nodes = (
"337 449 LINE",
"605 742 LINE",
"550 742 LINE",
"156 314 LINE",
"156 742 LINE",
"114 742 LINE",
"114 0 LINE",
"156 0 LINE",
"156 254 LINE",
"303 417 LINE",
"569 0 LINE",
"623 0 LINE"
);
}
);
width = 670;
}
);
rightKerningGroup = K;
unicode = 004B;
},
{
glyphname = L;
lastChange = "2016-11-10 18:57:56 +0000";
layers = (
{
anchors = (
{
name = bottom;
position = "{314, 0}";
},
{
name = top;
position = "{158, 742}";
},
{
name = topright;
position = "{500, 742}";
}
);
background = {
anchors = (
{
name = bottom;
position = "{314, 0}";
},
{
name = top;
position = "{168, 742}";
},
{
name = topright;
position = "{510, 742}";
}
);
paths = (
{
closed = 1;
nodes = (
"52 25 LINE SMOOTH",
"52 8 OFFCURVE",
"58 0 OFFCURVE",
"79 0 CURVE SMOOTH",
"590 0 LINE SMOOTH",
"607 0 OFFCURVE",
"615 10 OFFCURVE",
"615 22 CURVE SMOOTH",
"615 145 LINE SMOOTH",
"615 159 OFFCURVE",
"606 164 OFFCURVE",
"592 164 CURVE SMOOTH",
"291 164 LINE SMOOTH",
"282 164 OFFCURVE",
"279 167 OFFCURVE",
"279 178 CURVE SMOOTH",
"279 721 LINE SMOOTH",
"279 734 OFFCURVE",
"273 742 OFFCURVE",
"261 742 CURVE SMOOTH",
"71 742 LINE SMOOTH",
"60 742 OFFCURVE",
"52 734 OFFCURVE",
"52 719 CURVE SMOOTH"
);
}
);
};
layerId = "258ED206-D907-4350-8EBA-CBDDA1C16BF7";
paths = (
{
closed = 1;
nodes = (
"52 0 LINE",
"605 0 LINE",
"605 164 LINE",
"269 164 LINE",
"269 742 LINE",
"52 742 LINE"
);
}
);
width = 643;
},
{
anchors = (
{
name = bottom;
position = "{319, 0}";
},
{
name = top;
position = "{139, 742}";
},
{
name = topright;
position = "{421, 742}";
}
);
background = {
anchors = (
{
name = bottom;
position = "{319, 0}";
},
{
name = top;
position = "{137, 742}";
},
{
name = topright;
position = "{423, 742}";
}
);
paths = (
{
closed = 1;
nodes = (
"114 10 LINE SMOOTH",
"114 3 OFFCURVE",
"116 0 OFFCURVE",
"123 0 CURVE",
"533 0 LINE",
"538 0 OFFCURVE",
"540 2 OFFCURVE",
"540 7 CURVE SMOOTH",
"540 33 LINE SMOOTH",
"540 39 OFFCURVE",
"538 40 OFFCURVE",
"532 40 CURVE SMOOTH",
"169 40 LINE SMOOTH",
"162 40 OFFCURVE",
"160 41 OFFCURVE",
"160 49 CURVE SMOOTH",
"160 732 LINE SMOOTH",
"160 740 OFFCURVE",
"158 742 OFFCURVE",
"151 742 CURVE SMOOTH",
"123 742 LINE SMOOTH",
"116 742 OFFCURVE",
"114 740 OFFCURVE",
"114 732 CURVE SMOOTH"
);
}
);
};
layerId = "91AB5BCA-6A50-42DA-B2F7-8181BF189245";
paths = (
{
closed = 1;
nodes = (
"114 0 LINE",
"536 0 LINE",
"536 40 LINE",
"156 40 LINE",
"156 742 LINE",
"114 742 LINE"
);
}
);
width = 583;
}
);
rightKerningGroup = L;
unicode = 004C;
},
{
glyphname = Lslash;
lastChange = "2016-11-02 00:47:50 +0000";
layers = (
{
background = {
components = (
{
name = L;
}
);
paths = (
{
closed = 1;
nodes = (
"439 550 OFFCURVE",
"432 557 OFFCURVE",
"415 552 CURVE SMOOTH",
"10 444 LINE SMOOTH",
"-2 441 OFFCURVE",
"-9 436 OFFCURVE",
"-9 421 CURVE SMOOTH",
"-9 301 LINE SMOOTH",
"-9 284 OFFCURVE",
"-3 277 OFFCURVE",
"17 283 CURVE SMOOTH",
"419 397 LINE SMOOTH",
"433 401 OFFCURVE",
"439 409 OFFCURVE",
"439 421 CURVE SMOOTH",
"439 534 LINE SMOOTH"
);
}
);
};
components = (
{
name = L;
}
);
layerId = "258ED206-D907-4350-8EBA-CBDDA1C16BF7";
paths = (
{
closed = 1;
nodes = (
"439 550 OFFCURVE",
"432 557 OFFCURVE",
"415 552 CURVE SMOOTH",
"10 444 LINE SMOOTH",
"-2 441 OFFCURVE",
"-9 436 OFFCURVE",
"-9 421 CURVE SMOOTH",
"-9 301 LINE SMOOTH",
"-9 284 OFFCURVE",
"-3 277 OFFCURVE",
"17 283 CURVE SMOOTH",
"419 397 LINE SMOOTH",
"433 401 OFFCURVE",
"439 409 OFFCURVE",
"439 421 CURVE SMOOTH",
"439 534 LINE SMOOTH"
);
}
);
width = 653;
},
{
background = {
components = (
{
name = L;
}
);
paths = (
{
closed = 1;
nodes = (
"327 436 OFFCURVE",
"325 438 OFFCURVE",
"320 437 CURVE SMOOTH",
"38 365 LINE SMOOTH",
"35 364 OFFCURVE",
"33 361 OFFCURVE",
"33 356 CURVE SMOOTH",
"33 332 LINE SMOOTH",
"33 327 OFFCURVE",
"35 326 OFFCURVE",
"40 327 CURVE SMOOTH",
"321 400 LINE SMOOTH",
"325 401 OFFCURVE",
"327 404 OFFCURVE",
"327 408 CURVE SMOOTH",
"327 432 LINE SMOOTH"
);
}
);
};
components = (
{
name = L;
transform = "{1, 0, 0, 1, -4, 0}";
}
);
layerId = "91AB5BCA-6A50-42DA-B2F7-8181BF189245";
paths = (
{
closed = 1;
nodes = (
"327 436 OFFCURVE",
"325 438 OFFCURVE",
"320 437 CURVE SMOOTH",
"38 365 LINE SMOOTH",
"35 364 OFFCURVE",
"33 361 OFFCURVE",
"33 356 CURVE SMOOTH",
"33 332 LINE SMOOTH",
"33 327 OFFCURVE",
"35 326 OFFCURVE",
"40 327 CURVE SMOOTH",
"321 400 LINE SMOOTH",
"325 401 OFFCURVE",
"327 404 OFFCURVE",
"327 408 CURVE SMOOTH",
"327 432 LINE SMOOTH"
);
}
);
width = 571;
}
);
rightMetricsKey = L;
unicode = 0141;
},
{
glyphname = M;
lastChange = "2016-11-10 18:23:41 +0000";
layers = (
{
background = {
paths = (
{
closed = 1;
nodes = (
"211 0 LINE SMOOTH",
"229 0 OFFCURVE",
"233 4 OFFCURVE",
"233 22 CURVE SMOOTH",
"233 464 LINE SMOOTH",
"233 477 OFFCURVE",
"240 481 OFFCURVE",
"245 465 CURVE SMOOTH",
"389 18 LINE SMOOTH",
"393 6 OFFCURVE",
"401 0 OFFCURVE",
"413 0 CURVE SMOOTH",
"518 0 LINE SMOOTH",
"529 0 OFFCURVE",
"538 7 OFFCURVE",
"542 18 CURVE SMOOTH",
"686 473 LINE SMOOTH",
"690 485 OFFCURVE",
"698 485 OFFCURVE",
"698 474 CURVE SMOOTH",
"698 25 LINE SMOOTH",
"698 8 OFFCURVE",
"704 0 OFFCURVE",
"724 0 CURVE SMOOTH",
"893 0 LINE SMOOTH",
"916 0 OFFCURVE",
"925 8 OFFCURVE",
"925 29 CURVE SMOOTH",
"925 721 LINE SMOOTH",
"925 734 OFFCURVE",
"919 742 OFFCURVE",
"907 742 CURVE SMOOTH",
"618 742 LINE SMOOTH",
"604 742 OFFCURVE",
"596 731 OFFCURVE",
"591 713 CURVE SMOOTH",
"498 406 LINE SMOOTH",
"495 397 OFFCURVE",
"489 395 OFFCURVE",
"485 406 CURVE SMOOTH",
"381 724 LINE SMOOTH",
"376 738 OFFCURVE",
"370 742 OFFCURVE",
"353 742 CURVE SMOOTH",
"73 742 LINE SMOOTH",
"58 742 OFFCURVE",
"52 735 OFFCURVE",
"52 719 CURVE SMOOTH",
"52 28 LINE SMOOTH",
"52 11 OFFCURVE",
"62 0 OFFCURVE",
"78 0 CURVE SMOOTH"
);
}
);
};
layerId = "258ED206-D907-4350-8EBA-CBDDA1C16BF7";
paths = (
{
closed = 1;
nodes = (
"257 0 LINE",
"257 522 LINE",
"419 0 LINE",
"560 0 LINE",
"722 522 LINE",
"722 0 LINE",
"949 0 LINE",
"949 742 LINE",
"624 742 LINE",
"516 355 LINE",
"399 742 LINE",
"52 742 LINE",
"52 0 LINE"
);
}
);
width = 1001;
},
{
background = {
guideLines = (
{
position = "{43, 566}";
showMeasurement = 1;
}
);
paths = (
{
closed = 1;
nodes = (
"148 0 LINE SMOOTH",
"155 0 OFFCURVE",
"158 3 OFFCURVE",
"158 9 CURVE SMOOTH",
"158 622 LINE SMOOTH",
"158 626 OFFCURVE",
"160 625 OFFCURVE",
"161 622 CURVE SMOOTH",
"405 10 LINE SMOOTH",
"408 3 OFFCURVE",
"413 0 OFFCURVE",
"424 0 CURVE SMOOTH",
"451 0 LINE SMOOTH",
"460 0 OFFCURVE",
"464 3 OFFCURVE",
"467 11 CURVE SMOOTH",
"716 627 LINE SMOOTH",
"717 630 OFFCURVE",
"719 632 OFFCURVE",
"719 627 CURVE SMOOTH",
"719 9 LINE SMOOTH",
"719 2 OFFCURVE",
"722 0 OFFCURVE",
"729 0 CURVE SMOOTH",
"756 0 LINE SMOOTH",
"762 0 OFFCURVE",
"765 3 OFFCURVE",
"765 10 CURVE SMOOTH",
"765 732 LINE SMOOTH",
"765 740 OFFCURVE",
"763 742 OFFCURVE",
"756 742 CURVE SMOOTH",
"727 742 LINE SMOOTH",
"721 742 OFFCURVE",
"718 740 OFFCURVE",
"716 735 CURVE SMOOTH",
"445 65 LINE SMOOTH",
"439 51 OFFCURVE",
"434 51 OFFCURVE",
"429 64 CURVE SMOOTH",
"162 734 LINE",
"160 740 OFFCURVE",
"157 742 OFFCURVE",
"149 742 CURVE SMOOTH",
"123 742 LINE SMOOTH",
"116 742 OFFCURVE",
"114 740 OFFCURVE",
"114 732 CURVE SMOOTH",
"114 10 LINE SMOOTH",
"114 3 OFFCURVE",
"116 0 OFFCURVE",
"123 0 CURVE SMOOTH"
);
}
);
};
guideLines = (
{
position = "{151, 566}";
showMeasurement = 1;
}
);
layerId = "91AB5BCA-6A50-42DA-B2F7-8181BF189245";
paths = (
{
closed = 1;
nodes = (
"154 0 LINE",
"154 634 LINE",
"407 0 LINE",
"456 0 LINE",
"715 638 LINE",
"715 0 LINE",
"757 0 LINE",
"757 742 LINE",
"715 742 LINE",
"433 45 LINE",
"155 742 LINE",
"114 742 LINE",
"114 0 LINE"
);
}
);
width = 871;
}
);
unicode = 004D;
},
{
glyphname = N;
lastChange = "2016-11-10 18:11:02 +0000";
layers = (
{
anchors = (
{
name = bottom;
position = "{381, 0}";
},
{
name = top;
position = "{381, 742}";
}
);
background = {
anchors = (
{
name = bottom;
position = "{381, 0}";
},
{
name = top;
position = "{381, 742}";
}
);
paths = (
{
closed = 1;
nodes = (
"534 742 OFFCURVE",
"527 734 OFFCURVE",
"527 721 CURVE SMOOTH",
"527 394 LINE SMOOTH",
"527 378 OFFCURVE",
"520 378 OFFCURVE",
"511 390 CURVE SMOOTH",
"271 724 LINE SMOOTH",
"260 739 OFFCURVE",
"254 742 OFFCURVE",
"237 742 CURVE SMOOTH",
"74 742 LINE SMOOTH",
"59 742 OFFCURVE",
"52 735 OFFCURVE",
"52 719 CURVE SMOOTH",
"52 20 LINE SMOOTH",
"52 5 OFFCURVE",
"62 0 OFFCURVE",
"77 0 CURVE SMOOTH",
"213 0 LINE SMOOTH",
"231 0 OFFCURVE",
"238 6 OFFCURVE",
"237 22 CURVE SMOOTH",
"237 386 LINE SMOOTH",
"237 393 OFFCURVE",
"242 395 OFFCURVE",
"247 388 CURVE SMOOTH",
"522 15 LINE SMOOTH",
"532 2 OFFCURVE",
"538 0 OFFCURVE",
"549 0 CURVE SMOOTH",
"686 0 LINE SMOOTH",
"699 0 OFFCURVE",
"709 7 OFFCURVE",
"709 18 CURVE SMOOTH",
"709 725 LINE SMOOTH",
"709 736 OFFCURVE",
"704 742 OFFCURVE",
"694 742 CURVE SMOOTH",
"549 742 LINE SMOOTH"
);
}
);
};
guideLines = (
{
angle = 125.0467;
position = "{527, 348}";
}
);
layerId = "258ED206-D907-4350-8EBA-CBDDA1C16BF7";
paths = (
{
closed = 1;
nodes = (
"527 348 LINE",
"250 742 LINE",
"52 742 LINE",
"52 0 LINE",
"237 0 LINE",
"237 422 LINE",
"533 0 LINE",
"709 0 LINE",
"709 742 LINE",
"527 742 LINE"
);
}
);
width = 771;
},
{
anchors = (
{
name = bottom;
position = "{357, 0}";
},
{
name = top;
position = "{392, 742}";
}
);
background = {
anchors = (
{
name = bottom;
position = "{359, 0}";
},
{
name = top;
position = "{394, 742}";
}
);
guideLines = (
{
position = "{48, 576}";
showMeasurement = 1;
}
);
paths = (
{
closed = 1;
nodes = (
"599 742 OFFCURVE",
"597 739 OFFCURVE",
"597 733 CURVE SMOOTH",
"597 107 LINE SMOOTH",
"597 101 OFFCURVE",
"590 95 OFFCURVE",
"583 105 CURVE SMOOTH",
"156 735 LINE SMOOTH",
"152 741 OFFCURVE",
"149 742 OFFCURVE",
"141 742 CURVE SMOOTH",
"123 742 LINE",
"116 742 OFFCURVE",
"114 740 OFFCURVE",
"114 732 CURVE SMOOTH",
"114 10 LINE SMOOTH",
"114 3 OFFCURVE",
"116 0 OFFCURVE",
"123 0 CURVE SMOOTH",
"148 0 LINE SMOOTH",
"155 0 OFFCURVE",
"158 3 OFFCURVE",
"158 9 CURVE SMOOTH",
"158 637 LINE SMOOTH",
"158 645 OFFCURVE",
"163 647 OFFCURVE",
"170 637 CURVE SMOOTH",
"598 6 LINE SMOOTH",
"603 -1 OFFCURVE",
"609 0 OFFCURVE",
"617 0 CURVE SMOOTH",
"632 0 LINE SMOOTH",
"638 0 OFFCURVE",
"641 3 OFFCURVE",
"641 10 CURVE SMOOTH",
"641 732 LINE SMOOTH",
"641 740 OFFCURVE",
"639 742 OFFCURVE",
"632 742 CURVE SMOOTH",
"605 742 LINE SMOOTH"
);
}
);
};
guideLines = (
{
position = "{156, 576}";
showMeasurement = 1;
}
);
layerId = "91AB5BCA-6A50-42DA-B2F7-8181BF189245";
paths = (
{
closed = 1;
nodes = (
"597 84 LINE",
"151 742 LINE",
"114 742 LINE",
"114 0 LINE",
"158 0 LINE",
"158 655 LINE",
"602 0 LINE",
"641 0 LINE",
"641 742 LINE",
"597 742 LINE"
);
}
);
width = 755;
}
);
unicode = 004E;
},
{
glyphname = Eng;
lastChange = "2016-11-02 00:47:50 +0000";
layers = (
{
background = {
paths = (
{
closed = 1;
nodes = (
"549 742 LINE SMOOTH",
"534 742 OFFCURVE",
"527 734 OFFCURVE",
"527 721 CURVE SMOOTH",
"527 434 LINE SMOOTH",
"527 418 OFFCURVE",
"520 418 OFFCURVE",
"511 430 CURVE",
"271 724 LINE SMOOTH",
"259 739 OFFCURVE",
"254 742 OFFCURVE",
"237 742 CURVE SMOOTH",
"74 742 LINE SMOOTH",
"59 742 OFFCURVE",
"52 735 OFFCURVE",
"52 719 CURVE SMOOTH",
"52 20 LINE SMOOTH",
"52 5 OFFCURVE",
"62 0 OFFCURVE",
"77 0 CURVE SMOOTH",
"213 0 LINE SMOOTH",
"231 0 OFFCURVE",
"238 6 OFFCURVE",
"237 22 CURVE",
"237 386 LINE",
"237 393 OFFCURVE",
"241 395 OFFCURVE",
"247 388 CURVE SMOOTH",
"487 97 LINE",
"487 88 LINE SMOOTH",
"484 31 OFFCURVE",
"454 10 OFFCURVE",
"409 10 CURVE SMOOTH",
"387 10 OFFCURVE",
"364 15 OFFCURVE",
"348 17 CURVE SMOOTH",
"332 19 OFFCURVE",
"325 9 OFFCURVE",
"324 -6 CURVE SMOOTH",
"315 -120 LINE SMOOTH",
"313 -148 OFFCURVE",
"323 -159 OFFCURVE",
"346 -163 CURVE SMOOTH",
"391 -171 OFFCURVE",
"435 -175 OFFCURVE",
"476 -175 CURVE SMOOTH",
"628 -175 OFFCURVE",
"709 -114 OFFCURVE",
"709 47 CURVE SMOOTH",
"709 725 LINE SMOOTH",
"709 736 OFFCURVE",
"704 742 OFFCURVE",
"694 742 CURVE SMOOTH"
);
}
);
};
layerId = "258ED206-D907-4350-8EBA-CBDDA1C16BF7";
paths = (
{
closed = 1;
nodes = (
"549 742 LINE SMOOTH",
"534 742 OFFCURVE",
"527 734 OFFCURVE",
"527 721 CURVE SMOOTH",
"527 434 LINE SMOOTH",
"527 418 OFFCURVE",
"520 418 OFFCURVE",
"511 430 CURVE",
"271 724 LINE SMOOTH",
"259 739 OFFCURVE",
"254 742 OFFCURVE",
"237 742 CURVE SMOOTH",
"74 742 LINE SMOOTH",
"59 742 OFFCURVE",
"52 735 OFFCURVE",
"52 719 CURVE SMOOTH",
"52 20 LINE SMOOTH",
"52 5 OFFCURVE",
"62 0 OFFCURVE",
"77 0 CURVE SMOOTH",
"213 0 LINE SMOOTH",
"231 0 OFFCURVE",
"238 6 OFFCURVE",
"237 22 CURVE",
"237 386 LINE",
"237 393 OFFCURVE",
"241 395 OFFCURVE",
"247 388 CURVE SMOOTH",
"487 97 LINE",
"487 88 LINE SMOOTH",
"484 31 OFFCURVE",
"454 10 OFFCURVE",
"409 10 CURVE SMOOTH",
"387 10 OFFCURVE",
"364 15 OFFCURVE",
"348 17 CURVE SMOOTH",
"332 19 OFFCURVE",
"325 9 OFFCURVE",
"324 -6 CURVE SMOOTH",
"315 -120 LINE SMOOTH",
"313 -148 OFFCURVE",
"323 -159 OFFCURVE",
"346 -163 CURVE SMOOTH",
"391 -171 OFFCURVE",
"435 -175 OFFCURVE",
"476 -175 CURVE SMOOTH",
"628 -175 OFFCURVE",
"709 -114 OFFCURVE",
"709 47 CURVE SMOOTH",
"709 725 LINE SMOOTH",
"709 736 OFFCURVE",
"704 742 OFFCURVE",
"694 742 CURVE SMOOTH"
);
}
);
width = 771;
},
{
background = {
paths = (
{
closed = 1;
nodes = (
"606 742 LINE SMOOTH",
"600 742 OFFCURVE",
"598 739 OFFCURVE",
"598 733 CURVE SMOOTH",
"598 107 LINE SMOOTH",
"598 101 OFFCURVE",
"591 94 OFFCURVE",
"584 104 CURVE SMOOTH",
"158 735 LINE SMOOTH",
"154 741 OFFCURVE",
"151 742 OFFCURVE",
"144 742 CURVE SMOOTH",
"123 742 LINE SMOOTH",
"116 742 OFFCURVE",
"114 740 OFFCURVE",
"114 732 CURVE SMOOTH",
"114 10 LINE SMOOTH",
"114 3 OFFCURVE",
"116 0 OFFCURVE",
"123 0 CURVE SMOOTH",
"148 0 LINE SMOOTH",
"155 0 OFFCURVE",
"158 3 OFFCURVE",
"158 9 CURVE SMOOTH",
"158 640 LINE SMOOTH",
"158 648 OFFCURVE",
"160 650 OFFCURVE",
"167 640 CURVE SMOOTH",
"595 12 LINE",
"595 -41 LINE SMOOTH",
"595 -112 OFFCURVE",
"564 -135 OFFCURVE",
"510 -135 CURVE SMOOTH",
"480 -135 OFFCURVE",
"456 -128 OFFCURVE",
"440 -122 CURVE SMOOTH",
"435 -120 OFFCURVE",
"433 -121 OFFCURVE",
"432 -126 CURVE",
"429 -151 LINE",
"429 -155 OFFCURVE",
"430 -158 OFFCURVE",
"433 -160 CURVE SMOOTH",
"440 -165 OFFCURVE",
"473 -175 OFFCURVE",
"514 -175 CURVE SMOOTH",
"608 -175 OFFCURVE",
"641 -124 OFFCURVE",
"641 -46 CURVE SMOOTH",
"641 732 LINE SMOOTH",
"641 740 OFFCURVE",
"639 742 OFFCURVE",
"632 742 CURVE SMOOTH"
);
}
);
};
layerId = "91AB5BCA-6A50-42DA-B2F7-8181BF189245";
paths = (
{
closed = 1;
nodes = (
"606 742 LINE SMOOTH",
"600 742 OFFCURVE",
"598 739 OFFCURVE",
"598 733 CURVE SMOOTH",
"598 107 LINE SMOOTH",
"598 101 OFFCURVE",
"591 94 OFFCURVE",
"584 104 CURVE SMOOTH",
"158 735 LINE SMOOTH",
"154 741 OFFCURVE",
"151 742 OFFCURVE",
"144 742 CURVE SMOOTH",
"123 742 LINE SMOOTH",
"116 742 OFFCURVE",
"114 740 OFFCURVE",
"114 732 CURVE SMOOTH",
"114 10 LINE SMOOTH",
"114 3 OFFCURVE",
"116 0 OFFCURVE",
"123 0 CURVE SMOOTH",
"148 0 LINE SMOOTH",
"155 0 OFFCURVE",
"158 3 OFFCURVE",
"158 9 CURVE SMOOTH",
"158 640 LINE SMOOTH",
"158 648 OFFCURVE",
"160 650 OFFCURVE",
"167 640 CURVE SMOOTH",
"595 12 LINE",
"595 -41 LINE SMOOTH",
"595 -112 OFFCURVE",
"564 -135 OFFCURVE",
"510 -135 CURVE SMOOTH",
"480 -135 OFFCURVE",
"456 -128 OFFCURVE",
"440 -122 CURVE SMOOTH",
"435 -120 OFFCURVE",
"433 -121 OFFCURVE",
"432 -126 CURVE",
"429 -151 LINE",
"429 -155 OFFCURVE",
"430 -158 OFFCURVE",
"433 -160 CURVE SMOOTH",
"440 -165 OFFCURVE",
"473 -175 OFFCURVE",
"514 -175 CURVE SMOOTH",
"608 -175 OFFCURVE",
"641 -124 OFFCURVE",
"641 -46 CURVE SMOOTH",
"641 732 LINE SMOOTH",
"641 740 OFFCURVE",
"639 742 OFFCURVE",
"632 742 CURVE SMOOTH"
);
}
);
width = 755;
}
);
leftMetricsKey = N;
rightMetricsKey = N;
unicode = 014A;
},
{
glyphname = O;
lastChange = "2016-11-02 00:47:50 +0000";
layers = (
{
anchors = (
{
name = bottom;
position = "{392, 0}";
},
{
name = ogonek;
position = "{483, 10}";
},
{
name = top;
position = "{390, 742}";
}
);
background = {
anchors = (
{
name = bottom;
position = "{392, 0}";
},
{
name = ogonek;
position = "{483, 10}";
},
{
name = top;
position = "{390, 742}";
}
);
paths = (
{
closed = 1;
nodes = (
"609 -10 OFFCURVE",
"749 139 OFFCURVE",
"749 369 CURVE SMOOTH",
"749 601 OFFCURVE",
"606 752 OFFCURVE",
"391 752 CURVE SMOOTH",
"174 752 OFFCURVE",
"31 601 OFFCURVE",
"31 369 CURVE SMOOTH",
"31 138 OFFCURVE",
"170 -10 OFFCURVE",
"391 -10 CURVE SMOOTH"
);
},
{
closed = 1;
nodes = (
"302 146 OFFCURVE",
"269 206 OFFCURVE",
"269 366 CURVE SMOOTH",
"269 531 OFFCURVE",
"304 598 OFFCURVE",
"391 598 CURVE SMOOTH",
"476 598 OFFCURVE",
"511 531 OFFCURVE",
"511 366 CURVE SMOOTH",
"511 206 OFFCURVE",
"478 146 OFFCURVE",
"391 146 CURVE SMOOTH"
);
}
);
};
guideLines = (
{
angle = 90;
position = "{-606, 431}";
}
);
layerId = "258ED206-D907-4350-8EBA-CBDDA1C16BF7";
paths = (
{
closed = 1;
nodes = (
"609 -10 OFFCURVE",
"749 139 OFFCURVE",
"749 369 CURVE SMOOTH",
"749 601 OFFCURVE",
"606 752 OFFCURVE",
"391 752 CURVE SMOOTH",
"174 752 OFFCURVE",
"31 601 OFFCURVE",
"31 369 CURVE SMOOTH",
"31 138 OFFCURVE",
"170 -10 OFFCURVE",
"391 -10 CURVE SMOOTH"
);
},
{
closed = 1;
nodes = (
"302 146 OFFCURVE",
"269 206 OFFCURVE",
"269 366 CURVE SMOOTH",
"269 531 OFFCURVE",
"304 598 OFFCURVE",
"391 598 CURVE SMOOTH",
"476 598 OFFCURVE",
"511 531 OFFCURVE",
"511 366 CURVE SMOOTH",
"511 206 OFFCURVE",
"478 146 OFFCURVE",
"391 146 CURVE SMOOTH"
);
}
);
width = 790;
},
{
anchors = (
{
name = bottom;
position = "{381, 0}";
},
{
name = ogonek;
position = "{451, 9}";
},
{
name = top;
position = "{381, 742}";
}
);
background = {
anchors = (
{
name = bottom;
position = "{381, 0}";
},
{
name = ogonek;
position = "{451, 9}";
},
{
name = top;
position = "{381, 742}";
}
);
paths = (
{
closed = 1;
nodes = (
"567 -10 OFFCURVE",
"680 122 OFFCURVE",
"680 369 CURVE SMOOTH",
"680 618 OFFCURVE",
"567 752 OFFCURVE",
"380 752 CURVE SMOOTH",
"192 752 OFFCURVE",
"78 617 OFFCURVE",
"78 367 CURVE SMOOTH",
"78 121 OFFCURVE",
"190 -10 OFFCURVE",
"379 -10 CURVE SMOOTH"
);
},
{
closed = 1;
nodes = (
"215 32 OFFCURVE",
"126 143 OFFCURVE",
"126 369 CURVE SMOOTH",
"126 597 OFFCURVE",
"215 710 OFFCURVE",
"380 710 CURVE SMOOTH",
"544 710 OFFCURVE",
"632 598 OFFCURVE",
"632 369 CURVE SMOOTH",
"632 142 OFFCURVE",
"546 32 OFFCURVE",
"381 32 CURVE SMOOTH"
);
}
);
};
guideLines = (
{
angle = 90;
position = "{-468, 431}";
},
{
angle = 90;
position = "{489, 640}";
}
);
layerId = "91AB5BCA-6A50-42DA-B2F7-8181BF189245";
paths = (
{
closed = 1;
nodes = (
"567 -10 OFFCURVE",
"680 122 OFFCURVE",
"680 369 CURVE SMOOTH",
"680 618 OFFCURVE",
"567 752 OFFCURVE",
"380 752 CURVE SMOOTH",
"192 752 OFFCURVE",
"78 617 OFFCURVE",
"78 367 CURVE SMOOTH",
"78 121 OFFCURVE",
"190 -10 OFFCURVE",
"379 -10 CURVE SMOOTH"
);
},
{
closed = 1;
nodes = (
"215 32 OFFCURVE",
"126 143 OFFCURVE",
"126 369 CURVE SMOOTH",
"126 597 OFFCURVE",
"215 710 OFFCURVE",
"380 710 CURVE SMOOTH",
"544 710 OFFCURVE",
"632 598 OFFCURVE",
"632 369 CURVE SMOOTH",
"632 142 OFFCURVE",
"546 32 OFFCURVE",
"381 32 CURVE SMOOTH"
);
}
);
width = 758;
}
);
leftKerningGroup = O;
rightKerningGroup = O;
unicode = 004F;
},
{
glyphname = Oslash;
lastChange = "2016-11-02 00:47:50 +0000";
layers = (
{
anchors = (
{
name = top;
position = "{393, 742}";
}
);
background = {
anchors = (
{
name = top;
position = "{393, 742}";
}
);
paths = (
{
closed = 1;
nodes = (
"722 742 LINE SMOOTH",
"714 750 OFFCURVE",
"702 748 OFFCURVE",
"691 737 CURVE SMOOTH",
"625.978 673.628 LINE",
"565.773 724.014 OFFCURVE",
"486.559 752 OFFCURVE",
"394 752 CURVE SMOOTH",
"177 752 OFFCURVE",
"34 601 OFFCURVE",
"34 369 CURVE SMOOTH",
"34 283.385 OFFCURVE",
"53.094 209.172 OFFCURVE",
"88.379 149.669 CURVE",
"21 84 LINE SMOOTH",
"9 72 OFFCURVE",
"10 62 OFFCURVE",
"25 47 CURVE SMOOTH",
"64 7 LINE SMOOTH",
"80 -9 OFFCURVE",
"92 -8 OFFCURVE",
"107 7 CURVE SMOOTH",
"164.116 62.748 LINE",
"223.663 15.829 OFFCURVE",
"301.676 -10 OFFCURVE",
"394 -10 CURVE SMOOTH",
"612 -10 OFFCURVE",
"752 139 OFFCURVE",
"752 369 CURVE SMOOTH",
"752 452.736 OFFCURVE",
"733.371 525.92 OFFCURVE",
"699.451 585.261 CURVE",
"775 659 LINE",
"785 668 OFFCURVE",
"784 678 OFFCURVE",
"776 686 CURVE SMOOTH"
);
},
{
closed = 1;
nodes = (
"272 531 OFFCURVE",
"307 598 OFFCURVE",
"394 598 CURVE SMOOTH",
"438.199 598 OFFCURVE",
"468.878 579.884 OFFCURVE",
"488.147 539.294 CURVE",
"272.654 329.269 LINE",
"272 342 OFFCURVE",
"272 354 OFFCURVE",
"272 366 CURVE"
);
},
{
closed = 1;
nodes = (
"514 206 OFFCURVE",
"481 146 OFFCURVE",
"394 146 CURVE SMOOTH",
"349.772 146 OFFCURVE",
"319.374 160.817 OFFCURVE",
"299.982 195.36 CURVE",
"513.326 403.593 LINE",
"514 391 OFFCURVE",
"514 379 OFFCURVE",
"514 366 CURVE SMOOTH"
);
}
);
};
layerId = "258ED206-D907-4350-8EBA-CBDDA1C16BF7";
paths = (
{
closed = 1;
nodes = (
"722 742 LINE SMOOTH",
"714 750 OFFCURVE",
"702 748 OFFCURVE",
"691 737 CURVE SMOOTH",
"625.978 673.628 LINE",
"565.773 724.014 OFFCURVE",
"486.559 752 OFFCURVE",
"394 752 CURVE SMOOTH",
"177 752 OFFCURVE",
"34 601 OFFCURVE",
"34 369 CURVE SMOOTH",
"34 283.385 OFFCURVE",
"53.094 209.172 OFFCURVE",
"88.379 149.669 CURVE",
"21 84 LINE SMOOTH",
"9 72 OFFCURVE",
"10 62 OFFCURVE",
"25 47 CURVE SMOOTH",
"64 7 LINE SMOOTH",
"80 -9 OFFCURVE",
"92 -8 OFFCURVE",
"107 7 CURVE SMOOTH",
"164.116 62.748 LINE",
"223.663 15.829 OFFCURVE",
"301.676 -10 OFFCURVE",
"394 -10 CURVE SMOOTH",
"612 -10 OFFCURVE",
"752 139 OFFCURVE",
"752 369 CURVE SMOOTH",
"752 452.736 OFFCURVE",
"733.371 525.92 OFFCURVE",
"699.451 585.261 CURVE",
"775 659 LINE",
"785 668 OFFCURVE",
"784 678 OFFCURVE",
"776 686 CURVE SMOOTH"
);
},
{
closed = 1;
nodes = (
"272 531 OFFCURVE",
"307 598 OFFCURVE",
"394 598 CURVE SMOOTH",
"438.199 598 OFFCURVE",
"468.878 579.884 OFFCURVE",
"488.147 539.294 CURVE",
"272.654 329.269 LINE",
"272 342 OFFCURVE",
"272 354 OFFCURVE",
"272 366 CURVE"
);
},
{
closed = 1;
nodes = (
"514 206 OFFCURVE",
"481 146 OFFCURVE",
"394 146 CURVE SMOOTH",
"349.772 146 OFFCURVE",
"319.374 160.817 OFFCURVE",
"299.982 195.36 CURVE",
"513.326 403.593 LINE",
"514 391 OFFCURVE",
"514 379 OFFCURVE",
"514 366 CURVE SMOOTH"
);
}
);
width = 796;
},
{
anchors = (
{
name = top;
position = "{355, 742}";
}
);
background = {
anchors = (
{
name = top;
position = "{355, 742}";
}
);
paths = (
{
closed = 1;
nodes = (
"659 749 LINE",
"654 753 OFFCURVE",
"650 751 OFFCURVE",
"646 746 CURVE",
"571 659 LINE",
"519 720 OFFCURVE",
"446 752 OFFCURVE",
"355 752 CURVE SMOOTH",
"167 752 OFFCURVE",
"53 617 OFFCURVE",
"53 367 CURVE SMOOTH",
"53 266 OFFCURVE",
"72 184 OFFCURVE",
"108 123 CURVE",
"24 26 LINE",
"20 21 OFFCURVE",
"21 18 OFFCURVE",
"28 11 CURVE SMOOTH",
"45 -5 LINE",
"53 -11 OFFCURVE",
"58 -11 OFFCURVE",
"64 -3 CURVE",
"137 81 LINE",
"188 21 OFFCURVE",
"262 -10 OFFCURVE",
"354 -10 CURVE SMOOTH",
"542 -10 OFFCURVE",
"655 122 OFFCURVE",
"655 369 CURVE SMOOTH",
"655 472 OFFCURVE",
"636 555 OFFCURVE",
"600 617 CURVE",
"685 716 LINE",
"688 720 OFFCURVE",
"687 724 OFFCURVE",
"684 727 CURVE"
);
},
{
closed = 1;
nodes = (
"104 597 OFFCURVE",
"190 709 OFFCURVE",
"355 709 CURVE SMOOTH",
"437 709 OFFCURVE",
"499 681 OFFCURVE",
"541 625 CURVE",
"141 161 LINE",
"116 214 OFFCURVE",
"104 283 OFFCURVE",
"104 369 CURVE SMOOTH"
);
},
{
closed = 1;
nodes = (
"604 142 OFFCURVE",
"521 33 OFFCURVE",
"356 33 CURVE SMOOTH",
"273 33 OFFCURVE",
"210 61 OFFCURVE",
"167 117 CURVE",
"567 580 LINE",
"592 526 OFFCURVE",
"604 456 OFFCURVE",
"604 369 CURVE SMOOTH"
);
}
);
};
layerId = "91AB5BCA-6A50-42DA-B2F7-8181BF189245";
paths = (
{
closed = 1;
nodes = (
"659 749 LINE",
"654 753 OFFCURVE",
"650 751 OFFCURVE",
"646 746 CURVE",
"571 659 LINE",
"519 720 OFFCURVE",
"446 752 OFFCURVE",
"355 752 CURVE SMOOTH",
"167 752 OFFCURVE",
"53 617 OFFCURVE",
"53 367 CURVE SMOOTH",
"53 266 OFFCURVE",
"72 184 OFFCURVE",
"108 123 CURVE",
"24 26 LINE",
"20 21 OFFCURVE",
"21 18 OFFCURVE",
"28 11 CURVE SMOOTH",
"45 -5 LINE",
"53 -11 OFFCURVE",
"58 -11 OFFCURVE",
"64 -3 CURVE",
"137 81 LINE",
"188 21 OFFCURVE",
"262 -10 OFFCURVE",
"354 -10 CURVE SMOOTH",
"542 -10 OFFCURVE",
"655 122 OFFCURVE",
"655 369 CURVE SMOOTH",
"655 472 OFFCURVE",
"636 555 OFFCURVE",
"600 617 CURVE",
"685 716 LINE",
"688 720 OFFCURVE",
"687 724 OFFCURVE",
"684 727 CURVE"
);
},
{
closed = 1;
nodes = (
"104 597 OFFCURVE",
"190 709 OFFCURVE",
"355 709 CURVE SMOOTH",
"437 709 OFFCURVE",
"499 681 OFFCURVE",
"541 625 CURVE",
"141 161 LINE",
"116 214 OFFCURVE",
"104 283 OFFCURVE",
"104 369 CURVE SMOOTH"
);
},
{
closed = 1;
nodes = (
"604 142 OFFCURVE",
"521 33 OFFCURVE",
"356 33 CURVE SMOOTH",
"273 33 OFFCURVE",
"210 61 OFFCURVE",
"167 117 CURVE",
"567 580 LINE",
"592 526 OFFCURVE",
"604 456 OFFCURVE",
"604 369 CURVE SMOOTH"
);
}
);
width = 708;
}
);
unicode = 00D8;
},
{
glyphname = OE;
lastChange = "2016-11-02 00:47:50 +0000";
layers = (
{
background = {
paths = (
{
closed = 1;
nodes = (
"738 164 LINE",
"738 292 LINE",
"957 292 LINE",
"957 453 LINE",
"738 453 LINE",
"738 578 LINE",
"1087 578 LINE",
"1088 742 LINE",
"606 742 LINE",
"544 742 LINE",
"509 749 OFFCURVE",
"466 752 OFFCURVE",
"415 752 CURVE SMOOTH",
"174 752 OFFCURVE",
"31 601 OFFCURVE",
"31 369 CURVE SMOOTH",
"31 138 OFFCURVE",
"170 -10 OFFCURVE",
"403 -10 CURVE SMOOTH",
"459 -10 OFFCURVE",
"506 -7 OFFCURVE",
"544 0 CURVE",
"594 0 LINE",
"601 0 OFFCURVE",
"608 0 OFFCURVE",
"615 0 CURVE",
"1073 0 LINE SMOOTH",
"1090 0 OFFCURVE",
"1097 10 OFFCURVE",
"1097 22 CURVE SMOOTH",
"1097 145 LINE SMOOTH",
"1097 159 OFFCURVE",
"1089 164 OFFCURVE",
"1075 164 CURVE SMOOTH"
);
},
{
closed = 1;
nodes = (
"302 146 OFFCURVE",
"269 206 OFFCURVE",
"269 366 CURVE SMOOTH",
"269 531 OFFCURVE",
"304 598 OFFCURVE",
"391 598 CURVE SMOOTH",
"476 598 OFFCURVE",
"511 531 OFFCURVE",
"511 366 CURVE SMOOTH",
"511 206 OFFCURVE",
"478 146 OFFCURVE",
"391 146 CURVE SMOOTH"
);
}
);
};
layerId = "258ED206-D907-4350-8EBA-CBDDA1C16BF7";
paths = (
{
closed = 1;
nodes = (
"738 164 LINE",
"738 292 LINE",
"957 292 LINE",
"957 453 LINE",
"738 453 LINE",
"738 578 LINE",
"1087 578 LINE",
"1088 742 LINE",
"606 742 LINE",
"544 742 LINE",
"509 749 OFFCURVE",
"466 752 OFFCURVE",
"415 752 CURVE SMOOTH",
"174 752 OFFCURVE",
"31 601 OFFCURVE",
"31 369 CURVE SMOOTH",
"31 138 OFFCURVE",
"170 -10 OFFCURVE",
"403 -10 CURVE SMOOTH",
"459 -10 OFFCURVE",
"506 -7 OFFCURVE",
"544 0 CURVE",
"594 0 LINE",
"1097 0 LINE",
"1097 164 LINE"
);
},
{
closed = 1;
nodes = (
"302 146 OFFCURVE",
"269 206 OFFCURVE",
"269 366 CURVE SMOOTH",
"269 531 OFFCURVE",
"304 598 OFFCURVE",
"391 598 CURVE SMOOTH",
"476 598 OFFCURVE",
"511 531 OFFCURVE",
"511 366 CURVE SMOOTH",
"511 206 OFFCURVE",
"478 146 OFFCURVE",
"391 146 CURVE SMOOTH"
);
}
);
width = 1140;
},
{
background = {
paths = (
{
closed = 1;
nodes = (
"689 40 LINE SMOOTH",
"682 40 OFFCURVE",
"680 41 OFFCURVE",
"680 49 CURVE SMOOTH",
"680 346 LINE SMOOTH",
"680 354 OFFCURVE",
"682 355 OFFCURVE",
"689 355 CURVE SMOOTH",
"966 355 LINE SMOOTH",
"972 355 OFFCURVE",
"974 356 OFFCURVE",
"974 362 CURVE SMOOTH",
"974 388 LINE SMOOTH",
"974 393 OFFCURVE",
"972 395 OFFCURVE",
"967 395 CURVE SMOOTH",
"689 395 LINE SMOOTH",
"682 395 OFFCURVE",
"680 396 OFFCURVE",
"680 402 CURVE SMOOTH",
"680 693 LINE SMOOTH",
"680 701 OFFCURVE",
"682 702 OFFCURVE",
"689 702 CURVE SMOOTH",
"1047 702 LINE SMOOTH",
"1053 702 OFFCURVE",
"1055 703 OFFCURVE",
"1055 709 CURVE SMOOTH",
"1055 735 LINE SMOOTH",
"1055 740 OFFCURVE",
"1053 742 OFFCURVE",
"1048 742 CURVE SMOOTH",
"643 742 LINE SMOOTH",
"636 742 OFFCURVE",
"634 740 OFFCURVE",
"634 732 CURVE SMOOTH",
"634 600 LINE",
"584 700 OFFCURVE",
"497 752 OFFCURVE",
"380 752 CURVE SMOOTH",
"192 752 OFFCURVE",
"78 617 OFFCURVE",
"78 367 CURVE SMOOTH",
"78 121 OFFCURVE",
"190 -10 OFFCURVE",
"379 -10 CURVE SMOOTH",
"496 -10 OFFCURVE",
"584 41 OFFCURVE",
"634 140 CURVE",
"634 10 LINE SMOOTH",
"634 2 OFFCURVE",
"636 0 OFFCURVE",
"643 0 CURVE SMOOTH",
"1063 0 LINE SMOOTH",
"1068 0 OFFCURVE",
"1070 2 OFFCURVE",
"1070 7 CURVE SMOOTH",
"1070 33 LINE SMOOTH",
"1070 39 OFFCURVE",
"1068 40 OFFCURVE",
"1062 40 CURVE SMOOTH"
);
},
{
closed = 1;
nodes = (
"215 32 OFFCURVE",
"126 143 OFFCURVE",
"126 369 CURVE SMOOTH",
"126 597 OFFCURVE",
"215 710 OFFCURVE",
"380 710 CURVE SMOOTH",
"544 710 OFFCURVE",
"629 598 OFFCURVE",
"629 369 CURVE SMOOTH",
"629 142 OFFCURVE",
"546 32 OFFCURVE",
"381 32 CURVE SMOOTH"
);
}
);
};
layerId = "91AB5BCA-6A50-42DA-B2F7-8181BF189245";
paths = (
{
closed = 1;
nodes = (
"680 40 LINE",
"680 355 LINE",
"974 355 LINE",
"974 395 LINE",
"680 395 LINE",
"680 702 LINE",
"1055 702 LINE",
"1055 742 LINE",
"634 742 LINE",
"634 600 LINE",
"584 700 OFFCURVE",
"497 752 OFFCURVE",
"380 752 CURVE SMOOTH",
"192 752 OFFCURVE",
"78 617 OFFCURVE",
"78 367 CURVE SMOOTH",
"78 121 OFFCURVE",
"190 -10 OFFCURVE",
"379 -10 CURVE SMOOTH",
"496 -10 OFFCURVE",
"584 41 OFFCURVE",
"634 140 CURVE",
"634 0 LINE",
"1070 0 LINE",
"1070 40 LINE"
);
},
{
closed = 1;
nodes = (
"215 32 OFFCURVE",
"126 143 OFFCURVE",
"126 369 CURVE SMOOTH",
"126 597 OFFCURVE",
"215 710 OFFCURVE",
"380 710 CURVE SMOOTH",
"544 710 OFFCURVE",
"629 598 OFFCURVE",
"629 369 CURVE SMOOTH",
"629 142 OFFCURVE",
"546 32 OFFCURVE",
"381 32 CURVE SMOOTH"
);
}
);
width = 1122;
}
);
leftKerningGroup = O;
leftMetricsKey = O;
rightMetricsKey = E;
unicode = 0152;
},
{
glyphname = P;
lastChange = "2016-11-10 18:59:12 +0000";
layers = (
{
background = {
paths = (
{
closed = 1;
nodes = (
"703 662 OFFCURVE",
"566 742 OFFCURVE",
"402 742 CURVE SMOOTH",
"71 742 LINE SMOOTH",
"59 742 OFFCURVE",
"52 734 OFFCURVE",
"52 719 CURVE SMOOTH",
"52 25 LINE SMOOTH",
"52 8 OFFCURVE",
"58 0 OFFCURVE",
"78 0 CURVE SMOOTH",
"246 0 LINE SMOOTH",
"269 0 OFFCURVE",
"279 8 OFFCURVE",
"279 29 CURVE SMOOTH",
"279 255 LINE SMOOTH",
"279 262 OFFCURVE",
"282 266 OFFCURVE",
"291 266 CURVE SMOOTH",
"428 266 LINE SMOOTH",
"591 266 OFFCURVE",
"703 355 OFFCURVE",
"703 501 CURVE SMOOTH"
);
},
{
closed = 1;
nodes = (
"471 461 OFFCURVE",
"442 426 OFFCURVE",
"394 426 CURVE SMOOTH",
"296 426 LINE SMOOTH",
"283 426 OFFCURVE",
"279 433 OFFCURVE",
"279 448 CURVE SMOOTH",
"279 561 LINE SMOOTH",
"279 576 OFFCURVE",
"285 582 OFFCURVE",
"302 582 CURVE SMOOTH",
"388 582 LINE SMOOTH",
"434 582 OFFCURVE",
"471 552 OFFCURVE",
"471 504 CURVE SMOOTH"
);
}
);
};
layerId = "258ED206-D907-4350-8EBA-CBDDA1C16BF7";
paths = (
{
closed = 1;
nodes = (
"693 662 OFFCURVE",
"556 742 OFFCURVE",
"392 742 CURVE SMOOTH",
"52 742 LINE",
"52 0 LINE",
"269 0 LINE",
"269 266 LINE",
"418 266 LINE SMOOTH",
"581 266 OFFCURVE",
"693 355 OFFCURVE",
"693 501 CURVE SMOOTH"
);
},
{
closed = 1;
nodes = (
"461 461 OFFCURVE",
"432 426 OFFCURVE",
"384 426 CURVE SMOOTH",
"269 426 LINE",
"269 582 LINE",
"378 582 LINE SMOOTH",
"424 582 OFFCURVE",
"461 552 OFFCURVE",
"461 504 CURVE SMOOTH"
);
}
);
width = 731;
},
{
background = {
paths = (
{
closed = 1;
nodes = (
"611 684 OFFCURVE",
"500 742 OFFCURVE",
"345 742 CURVE SMOOTH",
"123 742 LINE SMOOTH",
"116 742 OFFCURVE",
"114 740 OFFCURVE",
"114 732 CURVE SMOOTH",
"114 8 LINE SMOOTH",
"114 3 OFFCURVE",
"117 0 OFFCURVE",
"122 0 CURVE SMOOTH",
"152 0 LINE SMOOTH",
"157 0 OFFCURVE",
"160 3 OFFCURVE",
"160 9 CURVE SMOOTH",
"160 318 LINE SMOOTH",
"160 324 OFFCURVE",
"162 327 OFFCURVE",
"168 327 CURVE SMOOTH",
"351 327 LINE SMOOTH",
"502 327 OFFCURVE",
"611 387 OFFCURVE",
"611 535 CURVE SMOOTH"
);
},
{
closed = 1;
nodes = (
"563 415 OFFCURVE",
"479 367 OFFCURVE",
"351 367 CURVE SMOOTH",
"167 367 LINE SMOOTH",
"162 367 OFFCURVE",
"160 370 OFFCURVE",
"160 377 CURVE SMOOTH",
"160 694 LINE SMOOTH",
"160 700 OFFCURVE",
"163 702 OFFCURVE",
"169 702 CURVE SMOOTH",
"344 702 LINE SMOOTH",
"479 702 OFFCURVE",
"563 662 OFFCURVE",
"563 538 CURVE SMOOTH"
);
}
);
};
layerId = "91AB5BCA-6A50-42DA-B2F7-8181BF189245";
paths = (
{
closed = 1;
nodes = (
"611 684 OFFCURVE",
"500 742 OFFCURVE",
"345 742 CURVE SMOOTH",
"114 742 LINE",
"114 0 LINE",
"160 0 LINE",
"160 327 LINE",
"351 327 LINE SMOOTH",
"502 327 OFFCURVE",
"611 387 OFFCURVE",
"611 535 CURVE SMOOTH"
);
},
{
closed = 1;
nodes = (
"563 415 OFFCURVE",
"479 367 OFFCURVE",
"351 367 CURVE SMOOTH",
"160 367 LINE",
"160 702 LINE",
"344 702 LINE SMOOTH",
"479 702 OFFCURVE",
"563 662 OFFCURVE",
"563 538 CURVE SMOOTH"
);
}
);
width = 674;
}
);
rightKerningGroup = P;
unicode = 0050;
},
{
glyphname = Thorn;
lastChange = "2016-11-02 00:47:50 +0000";
layers = (
{
background = {
paths = (
{
closed = 1;
nodes = (
"716 530 OFFCURVE",
"579 608 OFFCURVE",
"415 608 CURVE SMOOTH",
"289 608 LINE SMOOTH",
"282 608 OFFCURVE",
"279 612 OFFCURVE",
"279 620 CURVE SMOOTH",
"279 721 LINE SMOOTH",
"279 734 OFFCURVE",
"273 742 OFFCURVE",
"261 742 CURVE SMOOTH",
"71 742 LINE SMOOTH",
"60 742 OFFCURVE",
"52 734 OFFCURVE",
"52 719 CURVE SMOOTH",
"52 25 LINE SMOOTH",
"52 8 OFFCURVE",
"58 0 OFFCURVE",
"78 0 CURVE SMOOTH",
"246 0 LINE SMOOTH",
"269 0 OFFCURVE",
"279 8 OFFCURVE",
"279 29 CURVE SMOOTH",
"279 131 LINE SMOOTH",
"279 138 OFFCURVE",
"282 142 OFFCURVE",
"291 142 CURVE SMOOTH",
"441 142 LINE SMOOTH",
"604 142 OFFCURVE",
"716 229 OFFCURVE",
"716 372 CURVE SMOOTH"
);
},
{
closed = 1;
nodes = (
"484 335 OFFCURVE",
"455 302 OFFCURVE",
"407 302 CURVE SMOOTH",
"296 302 LINE SMOOTH",
"283 302 OFFCURVE",
"279 309 OFFCURVE",
"279 324 CURVE SMOOTH",
"279 427 LINE SMOOTH",
"279 442 OFFCURVE",
"285 448 OFFCURVE",
"302 448 CURVE SMOOTH",
"401 448 LINE SMOOTH",
"447 448 OFFCURVE",
"484 420 OFFCURVE",
"484 375 CURVE SMOOTH"
);
}
);
};
layerId = "258ED206-D907-4350-8EBA-CBDDA1C16BF7";
paths = (
{
closed = 1;
nodes = (
"716 530 OFFCURVE",
"579 608 OFFCURVE",
"415 608 CURVE SMOOTH",
"279 608 LINE",
"279 742 LINE",
"52 742 LINE",
"52 0 LINE",
"279 0 LINE",
"279 142 LINE",
"441 142 LINE SMOOTH",
"604 142 OFFCURVE",
"716 229 OFFCURVE",
"716 372 CURVE SMOOTH"
);
},
{
closed = 1;
nodes = (
"484 335 OFFCURVE",
"455 302 OFFCURVE",
"407 302 CURVE SMOOTH",
"279 302 LINE",
"279 448 LINE",
"401 448 LINE SMOOTH",
"447 448 OFFCURVE",
"484 420 OFFCURVE",
"484 375 CURVE SMOOTH"
);
}
);
width = 754;
},
{
background = {
paths = (
{
closed = 1;
nodes = (
"611 522 OFFCURVE",
"501 579 OFFCURVE",
"345 579 CURVE SMOOTH",
"166 579 LINE SMOOTH",
"162 579 OFFCURVE",
"160 581 OFFCURVE",
"160 584 CURVE SMOOTH",
"160 732 LINE SMOOTH",
"160 740 OFFCURVE",
"158 742 OFFCURVE",
"151 742 CURVE SMOOTH",
"123 742 LINE SMOOTH",
"116 742 OFFCURVE",
"114 740 OFFCURVE",
"114 732 CURVE SMOOTH",
"114 8 LINE SMOOTH",
"114 3 OFFCURVE",
"117 0 OFFCURVE",
"122 0 CURVE SMOOTH",
"152 0 LINE SMOOTH",
"157 0 OFFCURVE",
"160 3 OFFCURVE",
"160 9 CURVE SMOOTH",
"160 173 LINE SMOOTH",
"160 179 OFFCURVE",
"162 182 OFFCURVE",
"168 182 CURVE SMOOTH",
"351 182 LINE SMOOTH",
"501 182 OFFCURVE",
"611 239 OFFCURVE",
"611 390 CURVE SMOOTH"
);
},
{
closed = 1;
nodes = (
"563 268 OFFCURVE",
"479 222 OFFCURVE",
"351 222 CURVE SMOOTH",
"167 222 LINE SMOOTH",
"162 222 OFFCURVE",
"160 225 OFFCURVE",
"160 232 CURVE SMOOTH",
"160 531 LINE SMOOTH",
"160 537 OFFCURVE",
"163 539 OFFCURVE",
"169 539 CURVE SMOOTH",
"344 539 LINE SMOOTH",
"479 539 OFFCURVE",
"563 501 OFFCURVE",
"563 390 CURVE SMOOTH"
);
}
);
};
layerId = "91AB5BCA-6A50-42DA-B2F7-8181BF189245";
paths = (
{
closed = 1;
nodes = (
"611 522 OFFCURVE",
"501 579 OFFCURVE",
"345 579 CURVE SMOOTH",
"160 579 LINE",
"160 742 LINE",
"114 742 LINE",
"114 0 LINE",
"160 0 LINE",
"160 182 LINE",
"351 182 LINE SMOOTH",
"501 182 OFFCURVE",
"611 239 OFFCURVE",
"611 390 CURVE SMOOTH"
);
},
{
closed = 1;
nodes = (
"563 268 OFFCURVE",
"479 222 OFFCURVE",
"351 222 CURVE SMOOTH",
"160 222 LINE",
"160 539 LINE",
"344 539 LINE SMOOTH",
"479 539 OFFCURVE",
"563 501 OFFCURVE",
"563 390 CURVE SMOOTH"
);
}
);
width = 674;
}
);
leftMetricsKey = P;
rightMetricsKey = P;
unicode = 00DE;
},
{
glyphname = Q;
lastChange = "2016-11-02 00:47:50 +0000";
layers = (
{
background = {
paths = (
{
closed = 1;
nodes = (
"31 138 OFFCURVE",
"170 -10 OFFCURVE",
"391 -10 CURVE SMOOTH",
"417 -10 OFFCURVE",
"438 -9 OFFCURVE",
"462 -6 CURVE SMOOTH",
"469 -5 OFFCURVE",
"474 -6 OFFCURVE",
"477 -10 CURVE SMOOTH",
"534 -84 OFFCURVE",
"606 -128 OFFCURVE",
"706 -128 CURVE SMOOTH",
"738 -128 OFFCURVE",
"750 -122 OFFCURVE",
"750 -97 CURVE SMOOTH",
"750 13 LINE SMOOTH",
"750 20 OFFCURVE",
"747 28 OFFCURVE",
"733 30 CURVE SMOOTH",
"690 36 OFFCURVE",
"643 61 OFFCURVE",
"643 78 CURVE SMOOTH",
"643 82 OFFCURVE",
"643 84 OFFCURVE",
"645 86 CURVE",
"712 152 OFFCURVE",
"750 249 OFFCURVE",
"750 369 CURVE SMOOTH",
"750 601 OFFCURVE",
"607 752 OFFCURVE",
"391 752 CURVE SMOOTH",
"174 752 OFFCURVE",
"31 601 OFFCURVE",
"31 369 CURVE SMOOTH"
);
},
{
closed = 1;
nodes = (
"269 532 OFFCURVE",
"304 598 OFFCURVE",
"391 598 CURVE SMOOTH",
"477 598 OFFCURVE",
"512 532 OFFCURVE",
"512 367 CURVE SMOOTH",
"512 206 OFFCURVE",
"479 146 OFFCURVE",
"391 146 CURVE SMOOTH",
"302 146 OFFCURVE",
"269 206 OFFCURVE",
"269 367 CURVE SMOOTH"
);
}
);
};
layerId = "258ED206-D907-4350-8EBA-CBDDA1C16BF7";
paths = (
{
closed = 1;
nodes = (
"31 138 OFFCURVE",
"170 -10 OFFCURVE",
"391 -10 CURVE SMOOTH",
"417 -10 OFFCURVE",
"438 -9 OFFCURVE",
"462 -6 CURVE SMOOTH",
"469 -5 OFFCURVE",
"474 -6 OFFCURVE",
"477 -10 CURVE SMOOTH",
"545 -84 OFFCURVE",
"631 -128 OFFCURVE",
"750 -128 CURVE",
"750 28 LINE",
"699 34 OFFCURVE",
"643 60 OFFCURVE",
"643 78 CURVE SMOOTH",
"643 82 OFFCURVE",
"643 84 OFFCURVE",
"645 86 CURVE",
"712 152 OFFCURVE",
"750 249 OFFCURVE",
"750 369 CURVE SMOOTH",
"750 601 OFFCURVE",
"607 752 OFFCURVE",
"391 752 CURVE SMOOTH",
"174 752 OFFCURVE",
"31 601 OFFCURVE",
"31 369 CURVE SMOOTH"
);
},
{
closed = 1;
nodes = (
"269 532 OFFCURVE",
"304 598 OFFCURVE",
"391 598 CURVE SMOOTH",
"477 598 OFFCURVE",
"512 532 OFFCURVE",
"512 367 CURVE SMOOTH",
"512 206 OFFCURVE",
"479 146 OFFCURVE",
"391 146 CURVE SMOOTH",
"302 146 OFFCURVE",
"269 206 OFFCURVE",
"269 367 CURVE SMOOTH"
);
}
);
width = 792;
},
{
background = {
paths = (
{
closed = 1;
nodes = (
"78 116 OFFCURVE",
"195 -10 OFFCURVE",
"379 -10 CURVE SMOOTH",
"405 -10 OFFCURVE",
"435 -7 OFFCURVE",
"460 -1 CURVE SMOOTH",
"467 1 OFFCURVE",
"472 -1 OFFCURVE",
"475 -5 CURVE SMOOTH",
"540 -96 OFFCURVE",
"606 -122 OFFCURVE",
"650 -122 CURVE SMOOTH",
"664 -122 OFFCURVE",
"670 -120 OFFCURVE",
"670 -109 CURVE SMOOTH",
"670 -87 LINE SMOOTH",
"670 -84 OFFCURVE",
"669 -81 OFFCURVE",
"663 -80 CURVE SMOOTH",
"588 -70 OFFCURVE",
"521 -11 OFFCURVE",
"521 16 CURVE SMOOTH",
"521 20 OFFCURVE",
"522 22 OFFCURVE",
"527 25 CURVE SMOOTH",
"624 83 OFFCURVE",
"680 189 OFFCURVE",
"680 369 CURVE SMOOTH",
"680 620 OFFCURVE",
"567 752 OFFCURVE",
"379 752 CURVE SMOOTH",
"191 752 OFFCURVE",
"78 620 OFFCURVE",
"78 369 CURVE SMOOTH"
);
},
{
closed = 1;
nodes = (
"126 592 OFFCURVE",
"212 710 OFFCURVE",
"379 710 CURVE SMOOTH",
"546 710 OFFCURVE",
"632 592 OFFCURVE",
"632 369 CURVE SMOOTH",
"632 141 OFFCURVE",
"543 32 OFFCURVE",
"379 32 CURVE SMOOTH",
"215 32 OFFCURVE",
"126 141 OFFCURVE",
"126 367 CURVE SMOOTH"
);
}
);
};
layerId = "91AB5BCA-6A50-42DA-B2F7-8181BF189245";
paths = (
{
closed = 1;
nodes = (
"78 116 OFFCURVE",
"195 -10 OFFCURVE",
"379 -10 CURVE SMOOTH",
"405 -10 OFFCURVE",
"435 -7 OFFCURVE",
"460 -1 CURVE SMOOTH",
"467 1 OFFCURVE",
"472 -1 OFFCURVE",
"475 -5 CURVE SMOOTH",
"547 -96 OFFCURVE",
"621 -122 OFFCURVE",
"670 -122 CURVE",
"670 -81 LINE",
"591 -71 OFFCURVE",
"521 -11 OFFCURVE",
"521 16 CURVE SMOOTH",
"521 20 OFFCURVE",
"522 22 OFFCURVE",
"527 25 CURVE SMOOTH",
"624 83 OFFCURVE",
"680 189 OFFCURVE",
"680 369 CURVE SMOOTH",
"680 620 OFFCURVE",
"567 752 OFFCURVE",
"379 752 CURVE SMOOTH",
"191 752 OFFCURVE",
"78 620 OFFCURVE",
"78 369 CURVE SMOOTH"
);
},
{
closed = 1;
nodes = (
"126 592 OFFCURVE",
"212 710 OFFCURVE",
"379 710 CURVE SMOOTH",
"546 710 OFFCURVE",
"632 592 OFFCURVE",
"632 369 CURVE SMOOTH",
"632 141 OFFCURVE",
"543 32 OFFCURVE",
"379 32 CURVE SMOOTH",
"215 32 OFFCURVE",
"126 141 OFFCURVE",
"126 367 CURVE SMOOTH"
);
}
);
width = 758;
}
);
leftKerningGroup = O;
rightKerningGroup = O;
unicode = 0051;
},
{
glyphname = R;
lastChange = "2016-11-10 19:04:15 +0000";
layers = (
{
anchors = (
{
name = bottom;
position = "{368, 0}";
},
{
name = top;
position = "{358, 742}";
}
);
background = {
anchors = (
{
name = bottom;
position = "{368, 0}";
},
{
name = top;
position = "{358, 742}";
}
);
paths = (
{
closed = 1;
nodes = (
"575 312 LINE SMOOTH",
"572 320 OFFCURVE",
"572 328 OFFCURVE",
"579 331 CURVE SMOOTH",
"655 360 OFFCURVE",
"710 436 OFFCURVE",
"710 530 CURVE SMOOTH",
"710 664 OFFCURVE",
"598 742 OFFCURVE",
"405 742 CURVE SMOOTH",
"71 742 LINE SMOOTH",
"59 742 OFFCURVE",
"52 734 OFFCURVE",
"52 719 CURVE SMOOTH",
"52 25 LINE SMOOTH",
"52 8 OFFCURVE",
"58 0 OFFCURVE",
"78 0 CURVE SMOOTH",
"246 0 LINE SMOOTH",
"269 0 OFFCURVE",
"279 8 OFFCURVE",
"279 29 CURVE SMOOTH",
"279 284 LINE SMOOTH",
"279 287 OFFCURVE",
"282 295 OFFCURVE",
"291 295 CURVE SMOOTH",
"337 295 LINE SMOOTH",
"356 295 OFFCURVE",
"364 290 OFFCURVE",
"368 279 CURVE SMOOTH",
"462 21 LINE SMOOTH",
"466 7 OFFCURVE",
"475 0 OFFCURVE",
"489 0 CURVE SMOOTH",
"683 0 LINE SMOOTH",
"699 0 OFFCURVE",
"708 15 OFFCURVE",
"701 32 CURVE SMOOTH"
);
},
{
closed = 1;
nodes = (
"296 444 LINE SMOOTH",
"283 444 OFFCURVE",
"279 450 OFFCURVE",
"279 465 CURVE SMOOTH",
"279 574 LINE SMOOTH",
"279 589 OFFCURVE",
"285 594 OFFCURVE",
"302 594 CURVE SMOOTH",
"390 594 LINE SMOOTH",
"435 594 OFFCURVE",
"475 567 OFFCURVE",
"475 516 CURVE SMOOTH",
"475 473 OFFCURVE",
"447 444 OFFCURVE",
"396 444 CURVE SMOOTH"
);
}
);
};
layerId = "258ED206-D907-4350-8EBA-CBDDA1C16BF7";
paths = (
{
closed = 1;
nodes = (
"558 327 LINE",
"641 357 OFFCURVE",
"700 434 OFFCURVE",
"700 530 CURVE SMOOTH",
"700 664 OFFCURVE",
"588 742 OFFCURVE",
"395 742 CURVE SMOOTH",
"52 742 LINE",
"52 0 LINE",
"269 0 LINE",
"269 295 LINE",
"363 295 LINE",
"471 0 LINE",
"705 0 LINE"
);
},
{
closed = 1;
nodes = (
"269 444 LINE",
"269 594 LINE",
"380 594 LINE SMOOTH",
"425 594 OFFCURVE",
"465 567 OFFCURVE",
"465 516 CURVE SMOOTH",
"465 473 OFFCURVE",
"437 444 OFFCURVE",
"386 444 CURVE SMOOTH"
);
}
);
width = 749;
},
{
anchors = (
{
name = bottom;
position = "{341, 0}";
},
{
name = top;
position = "{334, 742}";
}
);
background = {
anchors = (
{
name = bottom;
position = "{341, 0}";
},
{
name = top;
position = "{334, 742}";
}
);
paths = (
{
closed = 1;
nodes = (
"453 359 LINE",
"452 362 OFFCURVE",
"453 365 OFFCURVE",
"457 366 CURVE SMOOTH",
"526 384 OFFCURVE",
"609 435 OFFCURVE",
"609 558 CURVE SMOOTH",
"609 680 OFFCURVE",
"525 742 OFFCURVE",
"381 742 CURVE SMOOTH",
"123 742 LINE SMOOTH",
"116 742 OFFCURVE",
"114 740 OFFCURVE",
"114 732 CURVE SMOOTH",
"114 9 LINE SMOOTH",
"114 3 OFFCURVE",
"116 0 OFFCURVE",
"124 0 CURVE SMOOTH",
"150 0 LINE SMOOTH",
"158 0 OFFCURVE",
"160 3 OFFCURVE",
"160 11 CURVE SMOOTH",
"160 344 LINE SMOOTH",
"160 351 OFFCURVE",
"163 355 OFFCURVE",
"172 355 CURVE SMOOTH",
"388 355 LINE SMOOTH",
"401 355 OFFCURVE",
"406 352 OFFCURVE",
"409 345 CURVE SMOOTH",
"551 9 LINE SMOOTH",
"554 3 OFFCURVE",
"556 0 OFFCURVE",
"563 0 CURVE SMOOTH",
"591 0 LINE SMOOTH",
"598 0 OFFCURVE",
"602 7 OFFCURVE",
"599 14 CURVE SMOOTH"
);
},
{
closed = 1;
nodes = (
"167 395 LINE SMOOTH",
"162 395 OFFCURVE",
"160 398 OFFCURVE",
"160 404 CURVE SMOOTH",
"160 694 LINE SMOOTH",
"160 700 OFFCURVE",
"163 702 OFFCURVE",
"171 702 CURVE SMOOTH",
"380 702 LINE SMOOTH",
"501 702 OFFCURVE",
"561 653 OFFCURVE",
"561 551 CURVE SMOOTH",
"561 439 OFFCURVE",
"489 395 OFFCURVE",
"346 395 CURVE SMOOTH"
);
}
);
};
layerId = "91AB5BCA-6A50-42DA-B2F7-8181BF189245";
paths = (
{
closed = 1;
nodes = (
"451 364 LINE",
"523 383 OFFCURVE",
"609 434 OFFCURVE",
"609 558 CURVE SMOOTH",
"609 680 OFFCURVE",
"525 742 OFFCURVE",
"381 742 CURVE SMOOTH",
"114 742 LINE",
"114 0 LINE",
"160 0 LINE",
"160 355 LINE",
"405 355 LINE",
"555 0 LINE",
"605 0 LINE"
);
},
{
closed = 1;
nodes = (
"160 395 LINE",
"160 702 LINE",
"380 702 LINE SMOOTH",
"501 702 OFFCURVE",
"561 653 OFFCURVE",
"561 551 CURVE SMOOTH",
"561 439 OFFCURVE",
"489 395 OFFCURVE",
"346 395 CURVE SMOOTH"
);
}
);
width = 679;
}
);
rightKerningGroup = R;
unicode = 0052;
},
{
glyphname = S;
lastChange = "2016-11-02 00:47:50 +0000";
layers = (
{
anchors = (
{
name = bottom;
position = "{355, 0}";
},
{
name = top;
position = "{355, 742}";
}
);
background = {
anchors = (
{
name = bottom;
position = "{355, 0}";
},
{
name = top;
position = "{355, 742}";
}
);
paths = (
{
closed = 1;
nodes = (
"508 529 OFFCURVE",
"514 528 OFFCURVE",
"524 535 CURVE SMOOTH",
"633 614 LINE SMOOTH",
"646 624 OFFCURVE",
"639 635 OFFCURVE",
"633 644 CURVE SMOOTH",
"587 709 OFFCURVE",
"474 752 OFFCURVE",
"355 752 CURVE SMOOTH",
"166 752 OFFCURVE",
"47 645 OFFCURVE",
"47 515 CURVE SMOOTH",
"47 410 OFFCURVE",
"123 323 OFFCURVE",
"243 293 CURVE SMOOTH",
"395 256 LINE SMOOTH",
"438 246 OFFCURVE",
"458 226 OFFCURVE",
"458 202 CURVE SMOOTH",
"458 165 OFFCURVE",
"410 144 OFFCURVE",
"337 144 CURVE SMOOTH",
"258 144 OFFCURVE",
"219 167 OFFCURVE",
"175 224 CURVE SMOOTH",
"167 234 OFFCURVE",
"155 238 OFFCURVE",
"137 226 CURVE SMOOTH",
"34 155 LINE SMOOTH",
"20 144 OFFCURVE",
"20 136 OFFCURVE",
"28 122 CURVE SMOOTH",
"75 43 OFFCURVE",
"208 -10 OFFCURVE",
"354 -10 CURVE SMOOTH",
"551 -10 OFFCURVE",
"674 86 OFFCURVE",
"674 234 CURVE SMOOTH",
"674 337 OFFCURVE",
"616 421 OFFCURVE",
"491 452 CURVE SMOOTH",
"325 495 LINE SMOOTH",
"275 507 OFFCURVE",
"261 528 OFFCURVE",
"261 546 CURVE SMOOTH",
"261 571 OFFCURVE",
"288 597 OFFCURVE",
"363 597 CURVE SMOOTH",
"441 597 OFFCURVE",
"470 569 OFFCURVE",
"494 543 CURVE SMOOTH"
);
}
);
};
layerId = "258ED206-D907-4350-8EBA-CBDDA1C16BF7";
paths = (
{
closed = 1;
nodes = (
"647 624 LINE",
"599 701 OFFCURVE",
"480 752 OFFCURVE",
"355 752 CURVE SMOOTH",
"166 752 OFFCURVE",
"47 645 OFFCURVE",
"47 515 CURVE SMOOTH",
"47 410 OFFCURVE",
"123 323 OFFCURVE",
"243 293 CURVE SMOOTH",
"395 256 LINE SMOOTH",
"438 246 OFFCURVE",
"458 226 OFFCURVE",
"458 202 CURVE SMOOTH",
"458 165 OFFCURVE",
"410 144 OFFCURVE",
"337 144 CURVE SMOOTH",
"251 144 OFFCURVE",
"209 172 OFFCURVE",
"161 242 CURVE",
"16 143 LINE",
"65 51 OFFCURVE",
"203 -10 OFFCURVE",
"354 -10 CURVE SMOOTH",
"551 -10 OFFCURVE",
"674 86 OFFCURVE",
"674 234 CURVE SMOOTH",
"674 337 OFFCURVE",
"616 421 OFFCURVE",
"491 452 CURVE SMOOTH",
"325 495 LINE SMOOTH",
"275 507 OFFCURVE",
"261 528 OFFCURVE",
"261 546 CURVE SMOOTH",
"261 571 OFFCURVE",
"288 597 OFFCURVE",
"363 597 CURVE SMOOTH",
"451 597 OFFCURVE",
"483 560 OFFCURVE",
"510 525 CURVE"
);
}
);
width = 711;
},
{
anchors = (
{
name = bottom;
position = "{323, 0}";
},
{
name = top;
position = "{319, 742}";
}
);
background = {
anchors = (
{
name = bottom;
position = "{323, 0}";
},
{
name = top;
position = "{319, 742}";
}
);
paths = (
{
closed = 1;
nodes = (
"506 620 OFFCURVE",
"508 618 OFFCURVE",
"513 622 CURVE SMOOTH",
"535 642 LINE SMOOTH",
"541 647 OFFCURVE",
"539 652 OFFCURVE",
"535 656 CURVE SMOOTH",
"478 716 OFFCURVE",
"411 752 OFFCURVE",
"318 752 CURVE SMOOTH",
"181 752 OFFCURVE",
"86 681 OFFCURVE",
"86 556 CURVE SMOOTH",
"86 492 OFFCURVE",
"116 421 OFFCURVE",
"224 380 CURVE SMOOTH",
"375 322 LINE SMOOTH",
"484 280 OFFCURVE",
"507 239 OFFCURVE",
"507 180 CURVE SMOOTH",
"507 73 OFFCURVE",
"428 32 OFFCURVE",
"309 32 CURVE SMOOTH",
"202 32 OFFCURVE",
"154 69 OFFCURVE",
"98 141 CURVE SMOOTH",
"93 147 OFFCURVE",
"88 148 OFFCURVE",
"78 141 CURVE SMOOTH",
"67 133 LINE SMOOTH",
"57 126 OFFCURVE",
"56 120 OFFCURVE",
"61 113 CURVE SMOOTH",
"120 29 OFFCURVE",
"198 -10 OFFCURVE",
"309 -10 CURVE SMOOTH",
"460 -10 OFFCURVE",
"553 60 OFFCURVE",
"553 182 CURVE SMOOTH",
"553 266 OFFCURVE",
"510 326 OFFCURVE",
"392 369 CURVE SMOOTH",
"254 419 LINE SMOOTH",
"147 458 OFFCURVE",
"132 518 OFFCURVE",
"132 557 CURVE SMOOTH",
"132 656 OFFCURVE",
"206 710 OFFCURVE",
"315 710 CURVE SMOOTH",
"399 710 OFFCURVE",
"460 674 OFFCURVE",
"500 627 CURVE SMOOTH"
);
}
);
};
layerId = "91AB5BCA-6A50-42DA-B2F7-8181BF189245";
paths = (
{
closed = 1;
nodes = (
"542 648 LINE",
"483 713 OFFCURVE",
"414 752 OFFCURVE",
"318 752 CURVE SMOOTH",
"181 752 OFFCURVE",
"86 681 OFFCURVE",
"86 556 CURVE SMOOTH",
"86 492 OFFCURVE",
"116 421 OFFCURVE",
"224 380 CURVE SMOOTH",
"375 322 LINE SMOOTH",
"484 280 OFFCURVE",
"507 239 OFFCURVE",
"507 180 CURVE SMOOTH",
"507 73 OFFCURVE",
"428 32 OFFCURVE",
"309 32 CURVE SMOOTH",
"198 32 OFFCURVE",
"149 72 OFFCURVE",
"91 150 CURVE",
"54 124 LINE",
"114 32 OFFCURVE",
"195 -10 OFFCURVE",
"309 -10 CURVE SMOOTH",
"460 -10 OFFCURVE",
"553 60 OFFCURVE",
"553 182 CURVE SMOOTH",
"553 266 OFFCURVE",
"510 326 OFFCURVE",
"392 369 CURVE SMOOTH",
"254 419 LINE SMOOTH",
"147 458 OFFCURVE",
"132 518 OFFCURVE",
"132 557 CURVE SMOOTH",
"132 656 OFFCURVE",
"206 710 OFFCURVE",
"315 710 CURVE SMOOTH",
"403 710 OFFCURVE",
"466 670 OFFCURVE",
"508 618 CURVE"
);
}
);
width = 618;
}
);
leftKerningGroup = S;
rightKerningGroup = S;
unicode = 0053;
},
{
glyphname = Schwa;
lastChange = "2016-11-02 00:47:50 +0000";
layers = (
{
background = {
paths = (
{
closed = 1;
nodes = (
"507 431 OFFCURVE",
"500 425 OFFCURVE",
"487 425 CURVE SMOOTH",
"54 425 LINE SMOOTH",
"32 425 OFFCURVE",
"31 414 OFFCURVE",
"31 392 CURVE SMOOTH",
"31 136 OFFCURVE",
"152 -10 OFFCURVE",
"385 -10 CURVE SMOOTH",
"578 -10 OFFCURVE",
"747 158 OFFCURVE",
"747 380 CURVE SMOOTH",
"747 599 OFFCURVE",
"610 752 OFFCURVE",
"388 752 CURVE SMOOTH",
"242 752 OFFCURVE",
"136 689 OFFCURVE",
"74 567 CURVE SMOOTH",
"66 551 OFFCURVE",
"67 542 OFFCURVE",
"79 536 CURVE SMOOTH",
"217 468 LINE SMOOTH",
"234 459 OFFCURVE",
"240 462 OFFCURVE",
"244 469 CURVE SMOOTH",
"290 544 OFFCURVE",
"328 578 OFFCURVE",
"390 578 CURVE SMOOTH",
"488 578 OFFCURVE",
"507 506 OFFCURVE",
"507 447 CURVE SMOOTH"
);
},
{
closed = 1;
nodes = (
"493 192 OFFCURVE",
"464 146 OFFCURVE",
"383 146 CURVE SMOOTH",
"315 146 OFFCURVE",
"274 201 OFFCURVE",
"274 267 CURVE SMOOTH",
"274 282 OFFCURVE",
"279 285 OFFCURVE",
"296 285 CURVE SMOOTH",
"505 284 LINE"
);
}
);
};
layerId = "258ED206-D907-4350-8EBA-CBDDA1C16BF7";
paths = (
{
closed = 1;
nodes = (
"507 431 OFFCURVE",
"500 425 OFFCURVE",
"487 425 CURVE SMOOTH",
"54 425 LINE SMOOTH",
"32 425 OFFCURVE",
"31 414 OFFCURVE",
"31 392 CURVE SMOOTH",
"31 136 OFFCURVE",
"152 -10 OFFCURVE",
"385 -10 CURVE SMOOTH",
"578 -10 OFFCURVE",
"747 158 OFFCURVE",
"747 380 CURVE SMOOTH",
"747 599 OFFCURVE",
"610 752 OFFCURVE",
"388 752 CURVE SMOOTH",
"242 752 OFFCURVE",
"136 689 OFFCURVE",
"74 567 CURVE SMOOTH",
"66 551 OFFCURVE",
"67 542 OFFCURVE",
"79 536 CURVE SMOOTH",
"217 468 LINE SMOOTH",
"234 459 OFFCURVE",
"240 462 OFFCURVE",
"244 469 CURVE SMOOTH",
"290 544 OFFCURVE",
"328 578 OFFCURVE",
"390 578 CURVE SMOOTH",
"488 578 OFFCURVE",
"507 506 OFFCURVE",
"507 447 CURVE SMOOTH"
);
},
{
closed = 1;
nodes = (
"493 192 OFFCURVE",
"464 146 OFFCURVE",
"383 146 CURVE SMOOTH",
"315 146 OFFCURVE",
"274 201 OFFCURVE",
"274 267 CURVE SMOOTH",
"274 282 OFFCURVE",
"279 285 OFFCURVE",
"296 285 CURVE SMOOTH",
"505 284 LINE"
);
}
);
width = 788;
},
{
background = {
paths = (
{
closed = 1;
nodes = (
"627 381 OFFCURVE",
"626 380 OFFCURVE",
"621 380 CURVE SMOOTH",
"86 380 LINE SMOOTH",
"78 380 OFFCURVE",
"78 375 OFFCURVE",
"78 369 CURVE SMOOTH",
"78 174 OFFCURVE",
"144 -10 OFFCURVE",
"379 -10 CURVE SMOOTH",
"608 -10 OFFCURVE",
"679 180 OFFCURVE",
"679 366 CURVE SMOOTH",
"679 531 OFFCURVE",
"629 752 OFFCURVE",
"379 752 CURVE SMOOTH",
"151 752 OFFCURVE",
"107 560 OFFCURVE",
"92 522 CURVE SMOOTH",
"90 517 OFFCURVE",
"89 514 OFFCURVE",
"93 513 CURVE SMOOTH",
"131 500 LINE SMOOTH",
"135 499 OFFCURVE",
"137 498 OFFCURVE",
"138 500 CURVE SMOOTH",
"152 531 OFFCURVE",
"170 709 OFFCURVE",
"379 709 CURVE SMOOTH",
"597 709 OFFCURVE",
"627 504 OFFCURVE",
"627 386 CURVE SMOOTH"
);
},
{
closed = 1;
nodes = (
"624 191 OFFCURVE",
"575 33 OFFCURVE",
"379 33 CURVE SMOOTH",
"182 33 OFFCURVE",
"130 192 OFFCURVE",
"130 332 CURVE SMOOTH",
"130 336 OFFCURVE",
"132 338 OFFCURVE",
"138 338 CURVE SMOOTH",
"627 338 LINE"
);
}
);
};
layerId = "91AB5BCA-6A50-42DA-B2F7-8181BF189245";
paths = (
{
closed = 1;
nodes = (
"627 381 OFFCURVE",
"626 380 OFFCURVE",
"621 380 CURVE SMOOTH",
"86 380 LINE SMOOTH",
"78 380 OFFCURVE",
"78 375 OFFCURVE",
"78 369 CURVE SMOOTH",
"78 174 OFFCURVE",
"144 -10 OFFCURVE",
"379 -10 CURVE SMOOTH",
"608 -10 OFFCURVE",
"679 180 OFFCURVE",
"679 366 CURVE SMOOTH",
"679 531 OFFCURVE",
"629 752 OFFCURVE",
"379 752 CURVE SMOOTH",
"151 752 OFFCURVE",
"107 560 OFFCURVE",
"92 522 CURVE SMOOTH",
"90 517 OFFCURVE",
"89 514 OFFCURVE",
"93 513 CURVE SMOOTH",
"131 500 LINE SMOOTH",
"135 499 OFFCURVE",
"137 498 OFFCURVE",
"138 500 CURVE SMOOTH",
"152 531 OFFCURVE",
"170 709 OFFCURVE",
"379 709 CURVE SMOOTH",
"597 709 OFFCURVE",
"627 504 OFFCURVE",
"627 386 CURVE SMOOTH"
);
},
{
closed = 1;
nodes = (
"624 191 OFFCURVE",
"575 33 OFFCURVE",
"379 33 CURVE SMOOTH",
"182 33 OFFCURVE",
"130 192 OFFCURVE",
"130 332 CURVE SMOOTH",
"130 336 OFFCURVE",
"132 338 OFFCURVE",
"138 338 CURVE SMOOTH",
"627 338 LINE"
);
}
);
width = 757;
}
);
leftMetricsKey = O;
rightMetricsKey = O;
unicode = 018F;
},
{
glyphname = T;
lastChange = "2016-11-10 18:39:05 +0000";
layers = (
{
anchors = (
{
name = bottom;
position = "{352, 0}";
},
{
name = top;
position = "{352, 742}";
}
);
background = {
anchors = (
{
name = bottom;
position = "{352, 0}";
},
{
name = top;
position = "{352, 742}";
}
);
paths = (
{
closed = 1;
nodes = (
"28 586 OFFCURVE",
"37 581 OFFCURVE",
"51 581 CURVE SMOOTH",
"227 581 LINE SMOOTH",
"235 581 OFFCURVE",
"238 577 OFFCURVE",
"238 567 CURVE SMOOTH",
"238 20 LINE SMOOTH",
"238 7 OFFCURVE",
"245 0 OFFCURVE",
"256 0 CURVE SMOOTH",
"446 0 LINE SMOOTH",
"457 0 OFFCURVE",
"465 7 OFFCURVE",
"465 22 CURVE SMOOTH",
"465 571 LINE SMOOTH",
"465 578 OFFCURVE",
"469 581 OFFCURVE",
"477 581 CURVE SMOOTH",
"654 581 LINE SMOOTH",
"667 581 OFFCURVE",
"676 586 OFFCURVE",
"676 600 CURVE SMOOTH",
"676 719 LINE SMOOTH",
"676 732 OFFCURVE",
"668 742 OFFCURVE",
"651 742 CURVE SMOOTH",
"53 742 LINE SMOOTH",
"36 742 OFFCURVE",
"28 732 OFFCURVE",
"28 719 CURVE SMOOTH",
"28 600 LINE SMOOTH"
);
}
);
};
layerId = "258ED206-D907-4350-8EBA-CBDDA1C16BF7";
paths = (
{
closed = 1;
nodes = (
"238 581 LINE",
"238 0 LINE",
"455 0 LINE",
"455 581 LINE",
"666 581 LINE",
"666 742 LINE",
"28 742 LINE",
"28 581 LINE"
);
}
);
width = 704;
},
{
anchors = (
{
name = bottom;
position = "{323, 0}";
},
{
name = top;
position = "{323, 742}";
}
);
background = {
anchors = (
{
name = bottom;
position = "{323, 0}";
},
{
name = top;
position = "{323, 742}";
}
);
paths = (
{
closed = 1;
nodes = (
"47 703 OFFCURVE",
"49 702 OFFCURVE",
"55 702 CURVE SMOOTH",
"289 702 LINE SMOOTH",
"297 702 OFFCURVE",
"299 701 OFFCURVE",
"299 693 CURVE SMOOTH",
"299 10 LINE SMOOTH",
"299 2 OFFCURVE",
"301 0 OFFCURVE",
"309 0 CURVE SMOOTH",
"336 0 LINE SMOOTH",
"343 0 OFFCURVE",
"345 2 OFFCURVE",
"345 10 CURVE SMOOTH",
"345 693 LINE SMOOTH",
"345 701 OFFCURVE",
"347 702 OFFCURVE",
"355 702 CURVE SMOOTH",
"568 702 LINE SMOOTH",
"574 702 OFFCURVE",
"576 703 OFFCURVE",
"576 709 CURVE SMOOTH",
"576 735 LINE SMOOTH",
"576 740 OFFCURVE",
"574 742 OFFCURVE",
"569 742 CURVE SMOOTH",
"54 742 LINE SMOOTH",
"49 742 OFFCURVE",
"47 740 OFFCURVE",
"47 735 CURVE SMOOTH",
"47 709 LINE SMOOTH"
);
}
);
};
layerId = "91AB5BCA-6A50-42DA-B2F7-8181BF189245";
paths = (
{
closed = 1;
nodes = (
"300 700 LINE",
"300 0 LINE",
"344 0 LINE",
"344 700 LINE",
"576 700 LINE",
"576 742 LINE",
"47 742 LINE",
"47 700 LINE"
);
}
);
width = 623;
}
);
leftKerningGroup = T;
rightKerningGroup = T;
unicode = 0054;
},
{
glyphname = Tbar;
lastChange = "2016-11-02 00:47:50 +0000";
layers = (
{
background = {
components = (
{
name = T;
}
);
paths = (
{
closed = 1;
nodes = (
"554 414 OFFCURVE",
"547 422 OFFCURVE",
"536 422 CURVE SMOOTH",
"135 422 LINE SMOOTH",
"123 422 OFFCURVE",
"116 414 OFFCURVE",
"116 399 CURVE SMOOTH",
"116 306 LINE SMOOTH",
"116 289 OFFCURVE",
"122 281 OFFCURVE",
"142 281 CURVE SMOOTH",
"521 281 LINE SMOOTH",
"544 281 OFFCURVE",
"554 289 OFFCURVE",
"554 309 CURVE SMOOTH",
"554 402 LINE SMOOTH"
);
}
);
};
components = (
{
name = T;
}
);
layerId = "258ED206-D907-4350-8EBA-CBDDA1C16BF7";
paths = (
{
closed = 1;
nodes = (
"116 422 LINE",
"116 281 LINE",
"554 281 LINE",
"554 422 LINE"
);
}
);
width = 714;
},
{
background = {
components = (
{
name = T;
}
);
guideLines = (
{
angle = 90;
position = "{175, 188}";
showMeasurement = 1;
}
);
paths = (
{
closed = 1;
nodes = (
"504 399 OFFCURVE",
"502 402 OFFCURVE",
"497 402 CURVE SMOOTH",
"145 402 LINE SMOOTH",
"140 402 OFFCURVE",
"138 399 OFFCURVE",
"138 393 CURVE SMOOTH",
"138 370 LINE SMOOTH",
"138 363 OFFCURVE",
"140 360 OFFCURVE",
"148 360 CURVE SMOOTH",
"491 360 LINE SMOOTH",
"500 360 OFFCURVE",
"504 363 OFFCURVE",
"504 371 CURVE SMOOTH",
"504 394 LINE SMOOTH"
);
}
);
};
components = (
{
name = T;
transform = "{1, 0, 0, 1, -4, 0}";
}
);
guideLines = (
{
angle = 90;
position = "{283, 188}";
showMeasurement = 1;
}
);
layerId = "91AB5BCA-6A50-42DA-B2F7-8181BF189245";
paths = (
{
closed = 1;
nodes = (
"138 402 LINE",
"138 360 LINE",
"504 360 LINE",
"504 402 LINE"
);
}
);
width = 607;
}
);
leftMetricsKey = T;
rightMetricsKey = T;
unicode = 0166;
},
{
glyphname = U;
lastChange = "2016-11-02 00:47:50 +0000";
layers = (
{
anchors = (
{
name = ogonek;
position = "{476, 10}";
},
{
name = top;
position = "{381, 742}";
}
);
background = {
anchors = (
{
name = ogonek;
position = "{476, 10}";
},
{
name = top;
position = "{381, 742}";
}
);
paths = (
{
closed = 1;
nodes = (
"684 721 LINE SMOOTH",
"684 734 OFFCURVE",
"678 742 OFFCURVE",
"666 742 CURVE SMOOTH",
"516 742 LINE SMOOTH",
"504 742 OFFCURVE",
"497 734 OFFCURVE",
"497 719 CURVE SMOOTH",
"497 292 LINE SMOOTH",
"497 181 OFFCURVE",
"443 149 OFFCURVE",
"381 149 CURVE SMOOTH",
"313 149 OFFCURVE",
"271 187 OFFCURVE",
"271 289 CURVE SMOOTH",
"271 721 LINE SMOOTH",
"271 734 OFFCURVE",
"265 742 OFFCURVE",
"253 742 CURVE SMOOTH",
"63 742 LINE SMOOTH",
"52 742 OFFCURVE",
"44 734 OFFCURVE",
"44 719 CURVE SMOOTH",
"44 313 LINE SMOOTH",
"44 104 OFFCURVE",
"125 -10 OFFCURVE",
"364 -10 CURVE SMOOTH",
"555 -10 OFFCURVE",
"684 62 OFFCURVE",
"684 293 CURVE SMOOTH"
);
}
);
};
layerId = "258ED206-D907-4350-8EBA-CBDDA1C16BF7";
paths = (
{
closed = 1;
nodes = (
"684 742 LINE",
"497 742 LINE",
"497 292 LINE SMOOTH",
"497 181 OFFCURVE",
"443 149 OFFCURVE",
"381 149 CURVE SMOOTH",
"313 149 OFFCURVE",
"271 187 OFFCURVE",
"271 289 CURVE SMOOTH",
"271 742 LINE",
"44 742 LINE",
"44 313 LINE SMOOTH",
"44 104 OFFCURVE",
"125 -10 OFFCURVE",
"364 -10 CURVE SMOOTH",
"555 -10 OFFCURVE",
"684 62 OFFCURVE",
"684 293 CURVE SMOOTH"
);
}
);
width = 738;
},
{
anchors = (
{
name = ogonek;
position = "{423, 9}";
},
{
name = top;
position = "{355, 742}";
}
);
background = {
anchors = (
{
name = ogonek;
position = "{423, 9}";
},
{
name = top;
position = "{355, 742}";
}
);
paths = (
{
closed = 1;
nodes = (
"598 733 LINE SMOOTH",
"598 739 OFFCURVE",
"596 742 OFFCURVE",
"590 742 CURVE SMOOTH",
"566 742 LINE SMOOTH",
"560 742 OFFCURVE",
"558 739 OFFCURVE",
"558 733 CURVE SMOOTH",
"558 229 LINE SMOOTH",
"558 97 OFFCURVE",
"491 32 OFFCURVE",
"353 32 CURVE SMOOTH",
"217 32 OFFCURVE",
"150 96 OFFCURVE",
"150 226 CURVE SMOOTH",
"150 732 LINE SMOOTH",
"150 740 OFFCURVE",
"148 742 OFFCURVE",
"140 742 CURVE SMOOTH",
"112 742 LINE SMOOTH",
"106 742 OFFCURVE",
"104 739 OFFCURVE",
"104 731 CURVE SMOOTH",
"104 245 LINE SMOOTH",
"104 71 OFFCURVE",
"183 -10 OFFCURVE",
"351 -10 CURVE SMOOTH",
"517 -10 OFFCURVE",
"598 69 OFFCURVE",
"598 230 CURVE SMOOTH"
);
}
);
};
layerId = "91AB5BCA-6A50-42DA-B2F7-8181BF189245";
paths = (
{
closed = 1;
nodes = (
"598 742 LINE",
"558 742 LINE",
"558 228 LINE SMOOTH",
"558 96 OFFCURVE",
"489 24 OFFCURVE",
"351 24 CURVE SMOOTH",
"215 24 OFFCURVE",
"150 98 OFFCURVE",
"150 228 CURVE SMOOTH",
"150 742 LINE",
"106 742 LINE",
"106 245 LINE SMOOTH",
"106 71 OFFCURVE",
"183 -10 OFFCURVE",
"351 -10 CURVE SMOOTH",
"517 -10 OFFCURVE",
"598 69 OFFCURVE",
"598 230 CURVE SMOOTH"
);
}
);
width = 702;
}
);
leftKerningGroup = U;
rightKerningGroup = U;
unicode = 0055;
},
{
glyphname = V;
lastChange = "2016-11-02 00:47:50 +0000";
layers = (
{
background = {
paths = (
{
closed = 1;
nodes = (
"558 742 LINE SMOOTH",
"546 742 OFFCURVE",
"535 734 OFFCURVE",
"532 721 CURVE SMOOTH",
"407 283 LINE SMOOTH",
"404 273 OFFCURVE",
"400 273 OFFCURVE",
"397 282 CURVE SMOOTH",
"263 721 LINE SMOOTH",
"259 734 OFFCURVE",
"250 742 OFFCURVE",
"238 742 CURVE SMOOTH",
"45 742 LINE SMOOTH",
"29 742 OFFCURVE",
"20 728 OFFCURVE",
"26 713 CURVE SMOOTH",
"258 25 LINE SMOOTH",
"263 8 OFFCURVE",
"275 0 OFFCURVE",
"295 0 CURVE SMOOTH",
"457 0 LINE SMOOTH",
"477 0 OFFCURVE",
"489 8 OFFCURVE",
"494 25 CURVE SMOOTH",
"726 713 LINE SMOOTH",
"731 728 OFFCURVE",
"723 742 OFFCURVE",
"707 742 CURVE SMOOTH"
);
}
);
};
layerId = "258ED206-D907-4350-8EBA-CBDDA1C16BF7";
paths = (
{
closed = 1;
nodes = (
"538 742 LINE",
"402 266 LINE",
"257 742 LINE",
"16 742 LINE",
"266 0 LINE",
"486 0 LINE",
"736 742 LINE"
);
}
);
width = 761;
},
{
background = {
paths = (
{
closed = 1;
nodes = (
"605 742 LINE SMOOTH",
"599 742 OFFCURVE",
"596 740 OFFCURVE",
"594 735 CURVE SMOOTH",
"350 65 LINE SMOOTH",
"345 51 OFFCURVE",
"339 51 OFFCURVE",
"334 64 CURVE SMOOTH",
"97 734 LINE SMOOTH",
"95 740 OFFCURVE",
"92 742 OFFCURVE",
"84 742 CURVE SMOOTH",
"61 742 LINE SMOOTH",
"54 742 OFFCURVE",
"51 738 OFFCURVE",
"53 732 CURVE SMOOTH",
"308 10 LINE SMOOTH",
"310 3 OFFCURVE",
"316 0 OFFCURVE",
"327 0 CURVE SMOOTH",
"359 0 LINE SMOOTH",
"368 0 OFFCURVE",
"372 3 OFFCURVE",
"375 11 CURVE SMOOTH",
"637 733 LINE SMOOTH",
"639 738 OFFCURVE",
"636 742 OFFCURVE",
"630 742 CURVE SMOOTH"
);
}
);
};
layerId = "91AB5BCA-6A50-42DA-B2F7-8181BF189245";
paths = (
{
closed = 1;
nodes = (
"597 742 LINE",
"342 42 LINE",
"94 742 LINE",
"49 742 LINE",
"312 0 LINE",
"371 0 LINE",
"640 742 LINE"
);
}
);
width = 690;
}
);
leftKerningGroup = V;
rightKerningGroup = V;
unicode = 0056;
},
{
glyphname = W;
lastChange = "2016-11-02 00:47:50 +0000";
layers = (
{
anchors = (
{
name = top;
position = "{556, 742}";
}
);
background = {
anchors = (
{
name = top;
position = "{556, 742}";
}
);
paths = (
{
closed = 1;
nodes = (
"936 742 LINE SMOOTH",
"915 742 OFFCURVE",
"907 734 OFFCURVE",
"904 721 CURVE SMOOTH",
"802 339 LINE SMOOTH",
"800 331 OFFCURVE",
"793 333 OFFCURVE",
"791 341 CURVE SMOOTH",
"681 721 LINE SMOOTH",
"677 734 OFFCURVE",
"670 742 OFFCURVE",
"649 742 CURVE SMOOTH",
"509 742 LINE SMOOTH",
"488 742 OFFCURVE",
"480 734 OFFCURVE",
"477 721 CURVE SMOOTH",
"372 346 LINE SMOOTH",
"369 335 OFFCURVE",
"364 335 OFFCURVE",
"360 350 CURVE SMOOTH",
"254 721 LINE SMOOTH",
"250 734 OFFCURVE",
"243 742 OFFCURVE",
"222 742 CURVE SMOOTH",
"57 742 LINE SMOOTH",
"31 742 OFFCURVE",
"21 725 OFFCURVE",
"27 702 CURVE SMOOTH",
"231 25 LINE SMOOTH",
"237 8 OFFCURVE",
"247 0 OFFCURVE",
"267 0 CURVE SMOOTH",
"410 0 LINE SMOOTH",
"431 0 OFFCURVE",
"441 8 OFFCURVE",
"446 25 CURVE SMOOTH",
"549 375 LINE SMOOTH",
"556 395 OFFCURVE",
"561 393 OFFCURVE",
"565 377 CURVE SMOOTH",
"669 25 LINE SMOOTH",
"674 8 OFFCURVE",
"685 0 OFFCURVE",
"705 0 CURVE SMOOTH",
"843 0 LINE SMOOTH",
"863 0 OFFCURVE",
"873 8 OFFCURVE",
"879 25 CURVE SMOOTH",
"1082 702 LINE SMOOTH",
"1088 725 OFFCURVE",
"1078 742 OFFCURVE",
"1052 742 CURVE SMOOTH"
);
}
);
};
layerId = "258ED206-D907-4350-8EBA-CBDDA1C16BF7";
paths = (
{
closed = 1;
nodes = (
"910 742 LINE",
"797 320 LINE",
"675 742 LINE",
"483 742 LINE",
"367 327 LINE",
"248 742 LINE",
"15 742 LINE",
"239 0 LINE",
"439 0 LINE",
"557 403 LINE",
"676 0 LINE",
"872 0 LINE",
"1094 742 LINE"
);
}
);
width = 1119;
},
{
anchors = (
{
name = top;
position = "{513, 742}";
}
);
background = {
anchors = (
{
name = top;
position = "{513, 742}";
}
);
guideLines = (
{
position = "{47, 125}";
showMeasurement = 1;
}
);
paths = (
{
closed = 1;
nodes = (
"935 742 LINE SMOOTH",
"929 742 OFFCURVE",
"924 740 OFFCURVE",
"923 735 CURVE SMOOTH",
"734 72 LINE SMOOTH",
"730 58 OFFCURVE",
"726 58 OFFCURVE",
"722 71 CURVE SMOOTH",
"537 734 LINE SMOOTH",
"535 740 OFFCURVE",
"533 742 OFFCURVE",
"525 742 CURVE SMOOTH",
"500 742 LINE SMOOTH",
"491 742 OFFCURVE",
"488 738 OFFCURVE",
"487 735 CURVE SMOOTH",
"298 72 LINE SMOOTH",
"294 58 OFFCURVE",
"290 58 OFFCURVE",
"286 71 CURVE SMOOTH",
"101 734 LINE SMOOTH",
"99 740 OFFCURVE",
"97 742 OFFCURVE",
"89 742 CURVE SMOOTH",
"64 742 LINE SMOOTH",
"57 742 OFFCURVE",
"54 738 OFFCURVE",
"56 732 CURVE SMOOTH",
"258 10 LINE SMOOTH",
"260 3 OFFCURVE",
"266 0 OFFCURVE",
"276 0 CURVE SMOOTH",
"308 0 LINE SMOOTH",
"318 0 OFFCURVE",
"322 3 OFFCURVE",
"324 11 CURVE SMOOTH",
"509 658 LINE SMOOTH",
"510 662 OFFCURVE",
"512 662 OFFCURVE",
"513 658 CURVE SMOOTH",
"694 10 LINE SMOOTH",
"696 3 OFFCURVE",
"702 0 OFFCURVE",
"712 0 CURVE SMOOTH",
"744 0 LINE SMOOTH",
"754 0 OFFCURVE",
"758 3 OFFCURVE",
"760 11 CURVE SMOOTH",
"967 733 LINE SMOOTH",
"968 738 OFFCURVE",
"966 742 OFFCURVE",
"960 742 CURVE SMOOTH"
);
}
);
};
guideLines = (
{
position = "{155, 125}";
showMeasurement = 1;
}
);
layerId = "91AB5BCA-6A50-42DA-B2F7-8181BF189245";
paths = (
{
closed = 1;
nodes = (
"925 742 LINE",
"728 50 LINE",
"535 742 LINE",
"489 742 LINE",
"292 50 LINE",
"99 742 LINE",
"53 742 LINE",
"261 0 LINE",
"321 0 LINE",
"511 665 LINE",
"697 0 LINE",
"757 0 LINE",
"970 742 LINE"
);
}
);
width = 1021;
}
);
leftKerningGroup = W;
rightKerningGroup = W;
unicode = 0057;
},
{
glyphname = X;
lastChange = "2016-11-10 19:08:37 +0000";
layers = (
{
background = {
paths = (
{
closed = 1;
nodes = (
"490 403 LINE",
"712 742 LINE",
"495 742 LINE",
"381 541 LINE",
"267 742 LINE",
"12 742 LINE",
"248 374 LINE",
"39 51 LINE SMOOTH",
"13 11 OFFCURVE",
"24 0 OFFCURVE",
"52 0 CURVE SMOOTH",
"226 0 LINE",
"359 233 LINE",
"495 0 LINE",
"705 0 LINE SMOOTH",
"733 0 OFFCURVE",
"744 12 OFFCURVE",
"719 51 CURVE SMOOTH"
);
}
);
};
layerId = "258ED206-D907-4350-8EBA-CBDDA1C16BF7";
paths = (
{
closed = 1;
nodes = (
"476 403 LINE",
"698 742 LINE",
"488 742 LINE",
"374 541 LINE",
"260 742 LINE",
"12 742 LINE",
"248 374 LINE",
"6 0 LINE",
"219 0 LINE",
"352 233 LINE",
"488 0 LINE",
"738 0 LINE"
);
}
);
width = 759;
},
{
background = {
guideLines = (
{
angle = 90;
position = "{60, 437}";
},
{
angle = 90;
position = "{571, 372}";
},
{
position = "{26, 716}";
showMeasurement = 1;
},
{
position = "{20, 32}";
showMeasurement = 1;
},
{
position = "{90, 454}";
showMeasurement = 1;
},
{
position = "{88, 290}";
showMeasurement = 1;
},
{
angle = 236.602;
position = "{303, 374}";
},
{
angle = 123.344;
position = "{360, 374}";
},
{
angle = 56.5817;
position = "{348, 370}";
},
{
angle = 123.4;
position = "{313, 370}";
}
);
paths = (
{
closed = 1;
nodes = (
"362 374 LINE SMOOTH",
"358 380 OFFCURVE",
"359 384 OFFCURVE",
"363 390 CURVE SMOOTH",
"597 736 LINE SMOOTH",
"599 739 OFFCURVE",
"599 742 OFFCURVE",
"595 742 CURVE SMOOTH",
"554 742 LINE SMOOTH",
"550 742 OFFCURVE",
"548 741 OFFCURVE",
"546 738 CURVE SMOOTH",
"339 431 LINE SMOOTH",
"332 421 OFFCURVE",
"328 422 OFFCURVE",
"322 430 CURVE SMOOTH",
"115 738 LINE SMOOTH",
"113 741 OFFCURVE",
"112 742 OFFCURVE",
"106 742 CURVE SMOOTH",
"67 742 LINE SMOOTH",
"63 742 OFFCURVE",
"62 737 OFFCURVE",
"64 734 CURVE SMOOTH",
"296 391 LINE SMOOTH",
"301 383 OFFCURVE",
"302 377 OFFCURVE",
"297 370 CURVE SMOOTH",
"55 10 LINE SMOOTH",
"50 2 OFFCURVE",
"52 0 OFFCURVE",
"58 0 CURVE SMOOTH",
"94 0 LINE SMOOTH",
"97 0 OFFCURVE",
"100 1 OFFCURVE",
"102 4 CURVE SMOOTH",
"319 324 LINE SMOOTH",
"329 339 OFFCURVE",
"333 338 OFFCURVE",
"340 327 CURVE SMOOTH",
"560 4 LINE SMOOTH",
"562 1 OFFCURVE",
"563 0 OFFCURVE",
"567 0 CURVE SMOOTH",
"603 0 LINE SMOOTH",
"609 0 OFFCURVE",
"613 2 OFFCURVE",
"607 10 CURVE SMOOTH"
);
}
);
};
guideLines = (
{
angle = 90;
position = "{168, 437}";
},
{
angle = 90;
position = "{679, 372}";
},
{
position = "{134, 716}";
showMeasurement = 1;
},
{
position = "{128, 32}";
showMeasurement = 1;
},
{
position = "{198, 454}";
showMeasurement = 1;
},
{
position = "{196, 290}";
showMeasurement = 1;
},
{
angle = 236.602;
position = "{411, 374}";
},
{
angle = 123.344;
position = "{468, 374}";
},
{
angle = 56.5817;
position = "{456, 370}";
},
{
angle = 123.4;
position = "{421, 370}";
}
);
layerId = "91AB5BCA-6A50-42DA-B2F7-8181BF189245";
paths = (
{
closed = 1;
nodes = (
"357 381 LINE",
"601 742 LINE",
"549 742 LINE",
"330 418 LINE",
"112 742 LINE",
"59 742 LINE",
"304 380 LINE",
"48 0 LINE",
"99 0 LINE",
"331 341 LINE",
"563 0 LINE",
"614 0 LINE"
);
}
);
width = 662;
}
);
leftKerningGroup = X;
rightKerningGroup = X;
unicode = 0058;
},
{
glyphname = Y;
lastChange = "2016-11-10 19:07:23 +0000";
layers = (
{
anchors = (
{
name = top;
position = "{403, 742}";
}
);
background = {
anchors = (
{
name = top;
position = "{403, 742}";
}
);
paths = (
{
closed = 1;
nodes = (
"576 742 LINE SMOOTH",
"557 742 OFFCURVE",
"550 738 OFFCURVE",
"542 721 CURVE SMOOTH",
"421 498 LINE SMOOTH",
"414 486 OFFCURVE",
"410 487 OFFCURVE",
"404 499 CURVE SMOOTH",
"281 721 LINE SMOOTH",
"272 737 OFFCURVE",
"267 742 OFFCURVE",
"247 742 CURVE SMOOTH",
"46 742 LINE SMOOTH",
"25 742 OFFCURVE",
"18 730 OFFCURVE",
"28 714 CURVE SMOOTH",
"262 332 LINE SMOOTH",
"271 317 OFFCURVE",
"276 309 OFFCURVE",
"276 288 CURVE SMOOTH",
"276 25 LINE SMOOTH",
"276 8 OFFCURVE",
"282 0 OFFCURVE",
"302 0 CURVE SMOOTH",
"470 0 LINE SMOOTH",
"493 0 OFFCURVE",
"503 8 OFFCURVE",
"503 29 CURVE SMOOTH",
"503 275 LINE SMOOTH",
"503 317 OFFCURVE",
"504 327 OFFCURVE",
"513 341 CURVE SMOOTH",
"747 719 LINE SMOOTH",
"755 732 OFFCURVE",
"750 742 OFFCURVE",
"733 742 CURVE SMOOTH"
);
}
);
};
layerId = "258ED206-D907-4350-8EBA-CBDDA1C16BF7";
paths = (
{
closed = 1;
nodes = (
"543 742 LINE",
"403 483 LINE",
"259 742 LINE",
"11 742 LINE",
"276 309 LINE",
"276 0 LINE",
"493 0 LINE",
"493 325 LINE",
"751 742 LINE"
);
}
);
width = 774;
},
{
anchors = (
{
name = top;
position = "{314, 742}";
}
);
background = {
anchors = (
{
name = top;
position = "{314, 742}";
}
);
paths = (
{
closed = 1;
nodes = (
"556 742 LINE SMOOTH",
"547 742 OFFCURVE",
"545 741 OFFCURVE",
"540 733 CURVE SMOOTH",
"331 374 LINE SMOOTH",
"323 361 OFFCURVE",
"316 360 OFFCURVE",
"307 376 CURVE SMOOTH",
"97 733 LINE SMOOTH",
"93 740 OFFCURVE",
"90 742 OFFCURVE",
"81 742 CURVE SMOOTH",
"58 742 LINE SMOOTH",
"48 742 OFFCURVE",
"46 737 OFFCURVE",
"50 730 CURVE SMOOTH",
"294 315 LINE SMOOTH",
"298 308 OFFCURVE",
"299 305 OFFCURVE",
"299 295 CURVE SMOOTH",
"299 11 LINE SMOOTH",
"299 4 OFFCURVE",
"302 0 OFFCURVE",
"311 0 CURVE SMOOTH",
"330 0 LINE SMOOTH",
"341 0 OFFCURVE",
"345 4 OFFCURVE",
"345 13 CURVE SMOOTH",
"345 306 LINE SMOOTH",
"345 316 OFFCURVE",
"345 320 OFFCURVE",
"349 326 CURVE SMOOTH",
"588 731 LINE SMOOTH",
"592 737 OFFCURVE",
"589 742 OFFCURVE",
"582 742 CURVE SMOOTH"
);
}
);
};
layerId = "91AB5BCA-6A50-42DA-B2F7-8181BF189245";
paths = (
{
closed = 1;
nodes = (
"545 742 LINE",
"320 354 LINE",
"92 742 LINE",
"43 742 LINE",
"299 306 LINE",
"299 0 LINE",
"345 0 LINE",
"345 319 LINE",
"594 742 LINE"
);
}
);
width = 638;
}
);
leftKerningGroup = Y;
rightKerningGroup = Y;
unicode = 0059;
},
{
glyphname = Z;
lastChange = "2016-11-10 19:09:05 +0000";
layers = (
{
anchors = (
{
name = bottom;
position = "{347, 0}";
},
{
name = top;
position = "{371, 742}";
}
);
background = {
anchors = (
{
name = bottom;
position = "{347, 0}";
},
{
name = top;
position = "{371, 742}";
}
);
paths = (
{
closed = 1;
nodes = (
"677 0 LINE",
"677 166 LINE",
"336 166 LINE",
"683 654 LINE",
"683 742 LINE",
"59 742 LINE",
"59 577 LINE",
"366 577 LINE",
"26 91 LINE",
"26 0 LINE"
);
}
);
};
layerId = "258ED206-D907-4350-8EBA-CBDDA1C16BF7";
paths = (
{
closed = 1;
nodes = (
"667 0 LINE",
"667 166 LINE",
"326 166 LINE",
"673 654 LINE",
"673 742 LINE",
"59 742 LINE",
"59 577 LINE",
"366 577 LINE",
"26 91 LINE",
"26 0 LINE"
);
}
);
width = 714;
},
{
anchors = (
{
name = bottom;
position = "{312, 0}";
},
{
name = top;
position = "{305, 742}";
}
);
background = {
anchors = (
{
name = bottom;
position = "{312, 0}";
},
{
name = top;
position = "{305, 742}";
}
);
paths = (
{
closed = 1;
nodes = (
"544 0 LINE",
"544 40 LINE",
"110 40 LINE",
"544 715 LINE",
"544 742 LINE",
"65 742 LINE",
"65 702 LINE",
"486 702 LINE",
"55 28 LINE",
"55 0 LINE"
);
}
);
};
layerId = "91AB5BCA-6A50-42DA-B2F7-8181BF189245";
paths = (
{
closed = 1;
nodes = (
"544 0 LINE",
"544 40 LINE",
"110 40 LINE",
"544 715 LINE",
"544 742 LINE",
"65 742 LINE",
"65 702 LINE",
"486 702 LINE",
"55 28 LINE",
"55 0 LINE"
);
}
);
width = 600;
}
);
leftKerningGroup = Z;
rightKerningGroup = Z;
unicode = 005A;
},
{
glyphname = a;
lastChange = "2016-11-02 00:47:50 +0000";
layers = (
{
anchors = (
{
name = ogonek;
position = "{509, 10}";
},
{
name = top;
position = "{297, 530}";
}
);
background = {
anchors = (
{
name = ogonek;
position = "{509, 10}";
},
{
name = top;
position = "{297, 530}";
}
);
guideLines = (
{
angle = 90;
position = "{347, 102}";
}
);
paths = (
{
closed = 1;
nodes = (
"340 56 OFFCURVE",
"348 55 OFFCURVE",
"350 42 CURVE SMOOTH",
"351 35 LINE SMOOTH",
"354 16 OFFCURVE",
"359 0 OFFCURVE",
"377 0 CURVE SMOOTH",
"514 0 LINE SMOOTH",
"533 0 OFFCURVE",
"537 7 OFFCURVE",
"537 27 CURVE SMOOTH",
"537 375 LINE SMOOTH",
"537 473 OFFCURVE",
"482 540 OFFCURVE",
"297 540 CURVE SMOOTH",
"166 540 OFFCURVE",
"75 506 OFFCURVE",
"45 421 CURVE SMOOTH",
"36 396 OFFCURVE",
"42 391 OFFCURVE",
"52 389 CURVE SMOOTH",
"183 363 LINE SMOOTH",
"201 360 OFFCURVE",
"205 363 OFFCURVE",
"210 374 CURVE SMOOTH",
"227 411 OFFCURVE",
"260 421 OFFCURVE",
"288 421 CURVE SMOOTH",
"328 421 OFFCURVE",
"347 400 OFFCURVE",
"347 363 CURVE SMOOTH",
"347 346 LINE SMOOTH",
"347 334 OFFCURVE",
"337 332 OFFCURVE",
"332 332 CURVE SMOOTH",
"325 332 LINE SMOOTH",
"136 332 OFFCURVE",
"18 253 OFFCURVE",
"18 136 CURVE SMOOTH",
"18 53 OFFCURVE",
"78 -10 OFFCURVE",
"178 -10 CURVE SMOOTH",
"240 -10 OFFCURVE",
"287 12 OFFCURVE",
"323 42 CURVE SMOOTH"
);
},
{
closed = 1;
nodes = (
"347 171 LINE SMOOTH",
"347 156 OFFCURVE",
"336 145 OFFCURVE",
"324 135 CURVE SMOOTH",
"313 126 OFFCURVE",
"295 116 OFFCURVE",
"269 116 CURVE SMOOTH",
"233 116 OFFCURVE",
"212 135 OFFCURVE",
"212 163 CURVE SMOOTH",
"212 219 OFFCURVE",
"296 242 OFFCURVE",
"328 242 CURVE SMOOTH",
"332 242 LINE SMOOTH",
"344 242 OFFCURVE",
"347 236 OFFCURVE",
"347 224 CURVE SMOOTH"
);
}
);
};
guideLines = (
{
angle = 90;
position = "{347, 102}";
}
);
layerId = "258ED206-D907-4350-8EBA-CBDDA1C16BF7";
paths = (
{
closed = 1;
nodes = (
"250 -10 OFFCURVE",
"305 21 OFFCURVE",
"347 62 CURVE",
"356 0 LINE",
"537 0 LINE",
"537 375 LINE SMOOTH",
"537 473 OFFCURVE",
"482 540 OFFCURVE",
"297 540 CURVE SMOOTH",
"161 540 OFFCURVE",
"66 498 OFFCURVE",
"35 392 CURVE",
"203 359 LINE",
"222 408 OFFCURVE",
"258 421 OFFCURVE",
"288 421 CURVE SMOOTH",
"328 421 OFFCURVE",
"347 400 OFFCURVE",
"347 363 CURVE SMOOTH",
"347 332 LINE",
"325 332 LINE SMOOTH",
"136 332 OFFCURVE",
"18 253 OFFCURVE",
"18 136 CURVE SMOOTH",
"18 53 OFFCURVE",
"78 -10 OFFCURVE",
"178 -10 CURVE SMOOTH"
);
},
{
closed = 1;
nodes = (
"233 116 OFFCURVE",
"212 135 OFFCURVE",
"212 163 CURVE SMOOTH",
"212 219 OFFCURVE",
"293 242 OFFCURVE",
"325 242 CURVE SMOOTH",
"347 242 LINE",
"347 154 LINE",
"331 136 OFFCURVE",
"306 116 OFFCURVE",
"269 116 CURVE SMOOTH"
);
}
);
width = 582;
},
{
anchors = (
{
name = ogonek;
position = "{451, 14}";
},
{
name = top;
position = "{266, 530}";
}
);
background = {
anchors = (
{
name = ogonek;
position = "{451, 14}";
},
{
name = top;
position = "{266, 530}";
}
);
paths = (
{
closed = 1;
nodes = (
"413 78 OFFCURVE",
"417 77 OFFCURVE",
"418 70 CURVE SMOOTH",
"420 9 LINE SMOOTH",
"420 2 OFFCURVE",
"423 0 OFFCURVE",
"429 0 CURVE SMOOTH",
"447 0 LINE SMOOTH",
"453 0 OFFCURVE",
"457 2 OFFCURVE",
"457 10 CURVE SMOOTH",
"457 367 LINE SMOOTH",
"457 475 OFFCURVE",
"383 540 OFFCURVE",
"270 540 CURVE SMOOTH",
"175 540 OFFCURVE",
"108 493 OFFCURVE",
"66 431 CURVE SMOOTH",
"62 426 OFFCURVE",
"63 423 OFFCURVE",
"66 421 CURVE SMOOTH",
"90 406 LINE SMOOTH",
"94 403 OFFCURVE",
"96 405 OFFCURVE",
"100 410 CURVE SMOOTH",
"145 470 OFFCURVE",
"199 502 OFFCURVE",
"268 502 CURVE SMOOTH",
"358 502 OFFCURVE",
"417 448 OFFCURVE",
"417 363 CURVE SMOOTH",
"417 332 LINE SMOOTH",
"417 323 OFFCURVE",
"411 318 OFFCURVE",
"400 317 CURVE SMOOTH",
"295 308 LINE SMOOTH",
"131 294 OFFCURVE",
"48 236 OFFCURVE",
"48 135 CURVE SMOOTH",
"48 45 OFFCURVE",
"113 -10 OFFCURVE",
"218 -10 CURVE SMOOTH",
"292 -10 OFFCURVE",
"353 17 OFFCURVE",
"408 72 CURVE SMOOTH"
);
},
{
closed = 1;
nodes = (
"417 171 LINE SMOOTH",
"417 141 OFFCURVE",
"397 107 OFFCURVE",
"360 77 CURVE SMOOTH",
"322 47 OFFCURVE",
"273 28 OFFCURVE",
"224 28 CURVE SMOOTH",
"143 28 OFFCURVE",
"90 69 OFFCURVE",
"90 138 CURVE SMOOTH",
"90 215 OFFCURVE",
"157 261 OFFCURVE",
"314 273 CURVE SMOOTH",
"403 280 LINE SMOOTH",
"412 281 OFFCURVE",
"417 277 OFFCURVE",
"417 266 CURVE SMOOTH"
);
}
);
};
hints = (
{
horizontal = 1;
place = "{4145, 208}";
}
);
layerId = "91AB5BCA-6A50-42DA-B2F7-8181BF189245";
paths = (
{
closed = 1;
nodes = (
"296 -10 OFFCURVE",
"360 20 OFFCURVE",
"418 82 CURVE",
"420 0 LINE",
"457 0 LINE",
"457 367 LINE SMOOTH",
"457 475 OFFCURVE",
"383 540 OFFCURVE",
"270 540 CURVE SMOOTH",
"173 540 OFFCURVE",
"104 490 OFFCURVE",
"61 424 CURVE",
"95 403 LINE",
"141 468 OFFCURVE",
"197 502 OFFCURVE",
"268 502 CURVE SMOOTH",
"358 502 OFFCURVE",
"417 448 OFFCURVE",
"417 363 CURVE SMOOTH",
"417 318 LINE",
"295 308 LINE SMOOTH",
"131 294 OFFCURVE",
"48 236 OFFCURVE",
"48 135 CURVE SMOOTH",
"48 45 OFFCURVE",
"113 -10 OFFCURVE",
"218 -10 CURVE SMOOTH"
);
},
{
closed = 1;
nodes = (
"143 28 OFFCURVE",
"90 69 OFFCURVE",
"90 138 CURVE SMOOTH",
"90 215 OFFCURVE",
"157 261 OFFCURVE",
"314 273 CURVE SMOOTH",
"417 281 LINE",
"417 171 LINE SMOOTH",
"417 99 OFFCURVE",
"312 28 OFFCURVE",
"224 28 CURVE SMOOTH"
);
}
);
width = 538;
}
);
leftKerningGroup = a;
unicode = 0061;
},
{
glyphname = ae;
lastChange = "2016-11-02 00:47:50 +0000";
layers = (
{
anchors = (
{
name = top;
position = "{456, 530}";
}
);
background = {
anchors = (
{
name = top;
position = "{456, 530}";
}
);
paths = (
{
closed = 1;
nodes = (
"878 229 LINE SMOOTH",
"895 230 OFFCURVE",
"896 237 OFFCURVE",
"896 254 CURVE SMOOTH",
"896 435 OFFCURVE",
"781 540 OFFCURVE",
"624 540 CURVE SMOOTH",
"572 540 OFFCURVE",
"522 526 OFFCURVE",
"479 500 CURVE",
"441 525 OFFCURVE",
"382 539 OFFCURVE",
"293 540 CURVE SMOOTH",
"140 540 OFFCURVE",
"83 499 OFFCURVE",
"45 421 CURVE SMOOTH",
"40 410 OFFCURVE",
"43 391 OFFCURVE",
"52 389 CURVE SMOOTH",
"183 363 LINE SMOOTH",
"201 360 OFFCURVE",
"205 361 OFFCURVE",
"210 374 CURVE",
"227 411 OFFCURVE",
"260 421 OFFCURVE",
"288 421 CURVE SMOOTH",
"328 421 OFFCURVE",
"347 400 OFFCURVE",
"347 363 CURVE SMOOTH",
"347 346 LINE SMOOTH",
"347 334 OFFCURVE",
"337 332 OFFCURVE",
"329 332 CURVE",
"306 331 LINE SMOOTH",
"114 322 OFFCURVE",
"18 250 OFFCURVE",
"18 143 CURVE SMOOTH",
"18 52 OFFCURVE",
"78 -10 OFFCURVE",
"191 -10 CURVE SMOOTH",
"283 -10 OFFCURVE",
"348 12 OFFCURVE",
"409 71 CURVE SMOOTH",
"413 75 OFFCURVE",
"416 75 OFFCURVE",
"420 71 CURVE SMOOTH",
"470 20 OFFCURVE",
"544 -10 OFFCURVE",
"628 -10 CURVE SMOOTH",
"740 -10 OFFCURVE",
"808 17 OFFCURVE",
"880 118 CURVE",
"889 129 OFFCURVE",
"886 138 OFFCURVE",
"876 142 CURVE SMOOTH",
"785 179 LINE SMOOTH",
"772 184 OFFCURVE",
"769 183 OFFCURVE",
"764 178 CURVE SMOOTH",
"720 135 OFFCURVE",
"689 122 OFFCURVE",
"655 122 CURVE SMOOTH",
"597 122 OFFCURVE",
"552 151 OFFCURVE",
"552 212 CURVE SMOOTH",
"552 224 OFFCURVE",
"557 229 OFFCURVE",
"567 229 CURVE SMOOTH"
);
},
{
closed = 1;
nodes = (
"683 423 OFFCURVE",
"702 372 OFFCURVE",
"702 346 CURVE SMOOTH",
"702 334 OFFCURVE",
"698 332 OFFCURVE",
"685 332 CURVE SMOOTH",
"555 333 LINE",
"554 395 OFFCURVE",
"592 423 OFFCURVE",
"633 423 CURVE SMOOTH"
);
},
{
closed = 1;
nodes = (
"347 160 LINE SMOOTH",
"347 127 OFFCURVE",
"310 108 OFFCURVE",
"272 108 CURVE SMOOTH",
"233 108 OFFCURVE",
"212 127 OFFCURVE",
"212 156 CURVE SMOOTH",
"212 205 OFFCURVE",
"277 230 OFFCURVE",
"315 233 CURVE SMOOTH",
"329 234 LINE SMOOTH",
"341 234 OFFCURVE",
"347 228 OFFCURVE",
"347 216 CURVE SMOOTH"
);
}
);
};
layerId = "258ED206-D907-4350-8EBA-CBDDA1C16BF7";
paths = (
{
closed = 1;
nodes = (
"896 229 LINE",
"896 426 OFFCURVE",
"781 540 OFFCURVE",
"624 540 CURVE SMOOTH",
"572 540 OFFCURVE",
"522 526 OFFCURVE",
"479 500 CURVE",
"441 525 OFFCURVE",
"382 539 OFFCURVE",
"293 540 CURVE SMOOTH",
"132 540 OFFCURVE",
"71 489 OFFCURVE",
"31 393 CURVE",
"203 359 LINE",
"222 408 OFFCURVE",
"258 421 OFFCURVE",
"288 421 CURVE SMOOTH",
"328 421 OFFCURVE",
"347 400 OFFCURVE",
"347 363 CURVE SMOOTH",
"347 333 LINE",
"306 331 LINE SMOOTH",
"114 322 OFFCURVE",
"18 250 OFFCURVE",
"18 143 CURVE SMOOTH",
"18 52 OFFCURVE",
"78 -10 OFFCURVE",
"191 -10 CURVE SMOOTH",
"283 -10 OFFCURVE",
"348 12 OFFCURVE",
"409 71 CURVE SMOOTH",
"413 75 OFFCURVE",
"416 75 OFFCURVE",
"420 71 CURVE SMOOTH",
"470 20 OFFCURVE",
"544 -10 OFFCURVE",
"628 -10 CURVE SMOOTH",
"745 -10 OFFCURVE",
"817 21 OFFCURVE",
"892 135 CURVE",
"771 185 LINE",
"724 137 OFFCURVE",
"691 122 OFFCURVE",
"655 122 CURVE SMOOTH",
"597 122 OFFCURVE",
"552 156 OFFCURVE",
"552 229 CURVE"
);
},
{
closed = 1;
nodes = (
"683 423 OFFCURVE",
"702 363 OFFCURVE",
"702 332 CURVE",
"555 333 LINE",
"554 395 OFFCURVE",
"592 423 OFFCURVE",
"633 423 CURVE SMOOTH"
);
},
{
closed = 1;
nodes = (
"347 160 LINE SMOOTH",
"347 127 OFFCURVE",
"310 108 OFFCURVE",
"272 108 CURVE SMOOTH",
"233 108 OFFCURVE",
"212 127 OFFCURVE",
"212 156 CURVE SMOOTH",
"212 205 OFFCURVE",
"277 230 OFFCURVE",
"315 233 CURVE SMOOTH",
"347 235 LINE"
);
}
);
width = 925;
},
{
anchors = (
{
name = top;
position = "{453, 530}";
}
);
background = {
anchors = (
{
name = top;
position = "{453, 530}";
}
);
paths = (
{
closed = 1;
nodes = (
"863 254 LINE SMOOTH",
"877 254 OFFCURVE",
"881 261 OFFCURVE",
"881 274 CURVE SMOOTH",
"881 444 OFFCURVE",
"789 540 OFFCURVE",
"652 540 CURVE SMOOTH",
"558 540 OFFCURVE",
"486 500 OFFCURVE",
"446 421 CURVE",
"426 501 OFFCURVE",
"370 540 OFFCURVE",
"271 540 CURVE SMOOTH",
"186 540 OFFCURVE",
"109 500 OFFCURVE",
"66 431 CURVE SMOOTH",
"63 426 OFFCURVE",
"63 423 OFFCURVE",
"66 421 CURVE SMOOTH",
"88 406 LINE SMOOTH",
"92 403 OFFCURVE",
"94 404 OFFCURVE",
"99 410 CURVE SMOOTH",
"145 470 OFFCURVE",
"199 502 OFFCURVE",
"263 502 CURVE SMOOTH",
"363 502 OFFCURVE",
"417 448 OFFCURVE",
"417 363 CURVE SMOOTH",
"417 332 LINE SMOOTH",
"417 323 OFFCURVE",
"411 318 OFFCURVE",
"399 317 CURVE SMOOTH",
"287 308 LINE SMOOTH",
"124 294 OFFCURVE",
"48 234 OFFCURVE",
"48 136 CURVE SMOOTH",
"48 45 OFFCURVE",
"110 -10 OFFCURVE",
"214 -10 CURVE SMOOTH",
"345 -10 OFFCURVE",
"403 62 OFFCURVE",
"439 108 CURVE SMOOTH",
"441 111 OFFCURVE",
"442 111 OFFCURVE",
"444 108 CURVE SMOOTH",
"473 65 OFFCURVE",
"527 -10 OFFCURVE",
"649 -10 CURVE SMOOTH",
"746 -10 OFFCURVE",
"827 37 OFFCURVE",
"861 100 CURVE SMOOTH",
"864 106 OFFCURVE",
"863 108 OFFCURVE",
"860 110 CURVE SMOOTH",
"838 125 LINE SMOOTH",
"833 128 OFFCURVE",
"832 127 OFFCURVE",
"827 121 CURVE SMOOTH",
"798 81 OFFCURVE",
"755 28 OFFCURVE",
"651 28 CURVE SMOOTH",
"539 28 OFFCURVE",
"451 134 OFFCURVE",
"451 228 CURVE SMOOTH",
"451 249 OFFCURVE",
"454 253 OFFCURVE",
"471 253 CURVE SMOOTH"
);
},
{
closed = 1;
nodes = (
"759 502 OFFCURVE",
"838 414 OFFCURVE",
"838 306 CURVE SMOOTH",
"838 294 OFFCURVE",
"837 290 OFFCURVE",
"821 290 CURVE SMOOTH",
"453 291 LINE",
"454 418 OFFCURVE",
"539 502 OFFCURVE",
"649 502 CURVE SMOOTH"
);
},
{
closed = 1;
nodes = (
"417 177 LINE",
"417 99 OFFCURVE",
"331 34 OFFCURVE",
"224 29 CURVE SMOOTH",
"140 25 OFFCURVE",
"91 71 OFFCURVE",
"91 138 CURVE SMOOTH",
"91 215 OFFCURVE",
"157 260 OFFCURVE",
"307 272 CURVE SMOOTH",
"402 279 LINE SMOOTH",
"415 280 OFFCURVE",
"417 275 OFFCURVE",
"417 265 CURVE SMOOTH"
);
}
);
};
hints = (
{
horizontal = 1;
place = "{4145, 208}";
}
);
layerId = "91AB5BCA-6A50-42DA-B2F7-8181BF189245";
paths = (
{
closed = 1;
nodes = (
"881 254 LINE",
"881 437 OFFCURVE",
"789 540 OFFCURVE",
"652 540 CURVE SMOOTH",
"558 540 OFFCURVE",
"486 500 OFFCURVE",
"446 421 CURVE",
"426 501 OFFCURVE",
"370 540 OFFCURVE",
"271 540 CURVE SMOOTH",
"184 540 OFFCURVE",
"106 497 OFFCURVE",
"62 424 CURVE",
"93 402 LINE",
"141 467 OFFCURVE",
"197 502 OFFCURVE",
"263 502 CURVE SMOOTH",
"363 502 OFFCURVE",
"417 448 OFFCURVE",
"417 363 CURVE SMOOTH",
"417 318 LINE",
"287 308 LINE SMOOTH",
"124 294 OFFCURVE",
"48 234 OFFCURVE",
"48 136 CURVE SMOOTH",
"48 45 OFFCURVE",
"110 -10 OFFCURVE",
"214 -10 CURVE SMOOTH",
"345 -10 OFFCURVE",
"403 62 OFFCURVE",
"439 108 CURVE SMOOTH",
"441 111 OFFCURVE",
"442 111 OFFCURVE",
"444 108 CURVE SMOOTH",
"473 65 OFFCURVE",
"527 -10 OFFCURVE",
"649 -10 CURVE SMOOTH",
"748 -10 OFFCURVE",
"830 40 OFFCURVE",
"865 107 CURVE",
"833 129 LINE",
"803 85 OFFCURVE",
"758 28 OFFCURVE",
"651 28 CURVE SMOOTH",
"539 28 OFFCURVE",
"451 147 OFFCURVE",
"451 253 CURVE"
);
},
{
closed = 1;
nodes = (
"759 502 OFFCURVE",
"838 407 OFFCURVE",
"838 290 CURVE",
"453 291 LINE",
"454 418 OFFCURVE",
"539 502 OFFCURVE",
"649 502 CURVE SMOOTH"
);
},
{
closed = 1;
nodes = (
"417 177 LINE",
"417 99 OFFCURVE",
"331 34 OFFCURVE",
"224 29 CURVE SMOOTH",
"140 25 OFFCURVE",
"91 71 OFFCURVE",
"91 138 CURVE SMOOTH",
"91 215 OFFCURVE",
"157 260 OFFCURVE",
"307 272 CURVE SMOOTH",
"417 280 LINE"
);
}
);
width = 930;
}
);
leftMetricsKey = a;
rightMetricsKey = e;
unicode = 00E6;
},
{
glyphname = b;
lastChange = "2016-11-10 18:50:04 +0000";
layers = (
{
background = {
paths = (
{
closed = 1;
nodes = (
"168 0 OFFCURVE",
"176 7 OFFCURVE",
"181 23 CURVE SMOOTH",
"197 70 LINE SMOOTH",
"200 78 OFFCURVE",
"204 79 OFFCURVE",
"210 73 CURVE SMOOTH",
"249 22 OFFCURVE",
"303 -10 OFFCURVE",
"366 -10 CURVE SMOOTH",
"512 -10 OFFCURVE",
"593 99 OFFCURVE",
"593 269 CURVE SMOOTH",
"593 436 OFFCURVE",
"517 540 OFFCURVE",
"387 540 CURVE SMOOTH",
"342 540 OFFCURVE",
"301 527 OFFCURVE",
"260 488 CURVE SMOOTH",
"250 480 OFFCURVE",
"241 480 OFFCURVE",
"241 496 CURVE SMOOTH",
"241 721 LINE SMOOTH",
"241 734 OFFCURVE",
"235 742 OFFCURVE",
"223 742 CURVE SMOOTH",
"60 742 LINE SMOOTH",
"49 742 OFFCURVE",
"41 734 OFFCURVE",
"41 719 CURVE SMOOTH",
"41 25 LINE SMOOTH",
"41 8 OFFCURVE",
"47 0 OFFCURVE",
"68 0 CURVE SMOOTH",
"155 0 LINE SMOOTH"
);
},
{
closed = 1;
nodes = (
"261 403 OFFCURVE",
"284 418 OFFCURVE",
"315 418 CURVE SMOOTH",
"364 418 OFFCURVE",
"391 381 OFFCURVE",
"391 265 CURVE SMOOTH",
"391 148 OFFCURVE",
"364 107 OFFCURVE",
"312 107 CURVE SMOOTH",
"270 107 OFFCURVE",
"241 135 OFFCURVE",
"241 185 CURVE SMOOTH",
"241 378 LINE"
);
}
);
};
layerId = "258ED206-D907-4350-8EBA-CBDDA1C16BF7";
paths = (
{
closed = 1;
nodes = (
"202 84 LINE",
"243 26 OFFCURVE",
"300 -10 OFFCURVE",
"366 -10 CURVE SMOOTH",
"512 -10 OFFCURVE",
"593 99 OFFCURVE",
"593 269 CURVE SMOOTH",
"593 436 OFFCURVE",
"517 540 OFFCURVE",
"387 540 CURVE SMOOTH",
"335 540 OFFCURVE",
"288 522 OFFCURVE",
"241 470 CURVE",
"241 742 LINE",
"41 742 LINE",
"41 0 LINE",
"173 0 LINE"
);
},
{
closed = 1;
nodes = (
"261 403 OFFCURVE",
"284 418 OFFCURVE",
"315 418 CURVE SMOOTH",
"364 418 OFFCURVE",
"391 381 OFFCURVE",
"391 265 CURVE SMOOTH",
"391 148 OFFCURVE",
"364 107 OFFCURVE",
"312 107 CURVE SMOOTH",
"270 107 OFFCURVE",
"241 135 OFFCURVE",
"241 185 CURVE SMOOTH",
"241 378 LINE"
);
}
);
width = 626;
},
{
background = {
paths = (
{
closed = 1;
nodes = (
"125 0 OFFCURVE",
"128 3 OFFCURVE",
"128 13 CURVE SMOOTH",
"130 64 LINE SMOOTH",
"130 73 OFFCURVE",
"135 74 OFFCURVE",
"140 67 CURVE SMOOTH",
"152 50 OFFCURVE",
"202 -10 OFFCURVE",
"305 -10 CURVE SMOOTH",
"449 -10 OFFCURVE",
"533 96 OFFCURVE",
"533 267 CURVE SMOOTH",
"533 416 OFFCURVE",
"469 540 OFFCURVE",
"316 540 CURVE SMOOTH",
"210 540 OFFCURVE",
"154 482 OFFCURVE",
"144 473 CURVE SMOOTH",
"135 465 OFFCURVE",
"131 465 OFFCURVE",
"131 478 CURVE SMOOTH",
"131 731 LINE SMOOTH",
"131 739 OFFCURVE",
"129 742 OFFCURVE",
"123 742 CURVE SMOOTH",
"100 742 LINE SMOOTH",
"94 742 OFFCURVE",
"91 739 OFFCURVE",
"91 732 CURVE SMOOTH",
"91 13 LINE SMOOTH",
"91 3 OFFCURVE",
"94 0 OFFCURVE",
"102 0 CURVE SMOOTH",
"113 0 LINE SMOOTH"
);
},
{
closed = 1;
nodes = (
"171 463 OFFCURVE",
"235 502 OFFCURVE",
"309 502 CURVE SMOOTH",
"427 502 OFFCURVE",
"490 409 OFFCURVE",
"490 267 CURVE SMOOTH",
"490 103 OFFCURVE",
"405 28 OFFCURVE",
"301 28 CURVE SMOOTH",
"217 28 OFFCURVE",
"131 96 OFFCURVE",
"131 177 CURVE SMOOTH",
"131 415 LINE"
);
}
);
};
layerId = "91AB5BCA-6A50-42DA-B2F7-8181BF189245";
paths = (
{
closed = 1;
nodes = (
"131 80 LINE",
"143 60 OFFCURVE",
"196 -10 OFFCURVE",
"305 -10 CURVE SMOOTH",
"449 -10 OFFCURVE",
"533 96 OFFCURVE",
"533 267 CURVE SMOOTH",
"533 416 OFFCURVE",
"469 540 OFFCURVE",
"316 540 CURVE SMOOTH",
"202 540 OFFCURVE",
"142 472 OFFCURVE",
"131 461 CURVE",
"131 742 LINE",
"91 742 LINE",
"91 0 LINE",
"127 0 LINE"
);
},
{
closed = 1;
nodes = (
"171 463 OFFCURVE",
"235 502 OFFCURVE",
"309 502 CURVE SMOOTH",
"427 502 OFFCURVE",
"490 409 OFFCURVE",
"490 267 CURVE SMOOTH",
"490 103 OFFCURVE",
"405 28 OFFCURVE",
"301 28 CURVE SMOOTH",
"217 28 OFFCURVE",
"131 96 OFFCURVE",
"131 177 CURVE SMOOTH",
"131 415 LINE"
);
}
);
width = 592;
}
);
unicode = 0062;
},
{
glyphname = c;
lastChange = "2016-11-02 00:47:50 +0000";
layers = (
{
anchors = (
{
name = bottom;
position = "{297, 0}";
},
{
name = top;
position = "{298, 530}";
}
);
background = {
anchors = (
{
name = bottom;
position = "{297, 0}";
},
{
name = top;
position = "{298, 530}";
}
);
paths = (
{
closed = 1;
nodes = (
"140 540 OFFCURVE",
"21 428 OFFCURVE",
"21 263 CURVE SMOOTH",
"21 101 OFFCURVE",
"138 -10 OFFCURVE",
"298 -10 CURVE SMOOTH",
"460 -10 OFFCURVE",
"526 105 OFFCURVE",
"536 157 CURVE SMOOTH",
"540 172 OFFCURVE",
"538 178 OFFCURVE",
"527 180 CURVE SMOOTH",
"433 198 LINE SMOOTH",
"420 200 OFFCURVE",
"416 198 OFFCURVE",
"413 193 CURVE SMOOTH",
"388 148 OFFCURVE",
"369 114 OFFCURVE",
"314 114 CURVE SMOOTH",
"257 114 OFFCURVE",
"223 154 OFFCURVE",
"223 265 CURVE SMOOTH",
"223 372 OFFCURVE",
"254 414 OFFCURVE",
"303 414 CURVE SMOOTH",
"351 414 OFFCURVE",
"360 376 OFFCURVE",
"364 351 CURVE SMOOTH",
"366 340 OFFCURVE",
"370 336 OFFCURVE",
"381 337 CURVE SMOOTH",
"518 344 LINE SMOOTH",
"535 345 OFFCURVE",
"541 353 OFFCURVE",
"536 370 CURVE SMOOTH",
"520 447 OFFCURVE",
"441 540 OFFCURVE",
"298 540 CURVE SMOOTH"
);
}
);
};
layerId = "258ED206-D907-4350-8EBA-CBDDA1C16BF7";
paths = (
{
closed = 1;
nodes = (
"140 540 OFFCURVE",
"21 428 OFFCURVE",
"21 263 CURVE SMOOTH",
"21 101 OFFCURVE",
"138 -10 OFFCURVE",
"298 -10 CURVE SMOOTH",
"463 -10 OFFCURVE",
"530 119 OFFCURVE",
"540 178 CURVE",
"417 201 LINE",
"391 151 OFFCURVE",
"371 114 OFFCURVE",
"314 114 CURVE SMOOTH",
"257 114 OFFCURVE",
"223 154 OFFCURVE",
"223 265 CURVE SMOOTH",
"223 372 OFFCURVE",
"254 414 OFFCURVE",
"303 414 CURVE SMOOTH",
"353 414 OFFCURVE",
"362 367 OFFCURVE",
"366 336 CURVE",
"541 345 LINE",
"525 433 OFFCURVE",
"444 540 OFFCURVE",
"298 540 CURVE SMOOTH"
);
}
);
width = 566;
},
{
anchors = (
{
name = bottom;
position = "{297, 0}";
},
{
name = top;
position = "{295, 530}";
}
);
background = {
anchors = (
{
name = bottom;
position = "{297, 0}";
},
{
name = top;
position = "{295, 530}";
}
);
paths = (
{
closed = 1;
nodes = (
"155 540 OFFCURVE",
"56 425 OFFCURVE",
"56 263 CURVE SMOOTH",
"56 100 OFFCURVE",
"153 -10 OFFCURVE",
"296 -10 CURVE SMOOTH",
"381 -10 OFFCURVE",
"453 29 OFFCURVE",
"501 107 CURVE SMOOTH",
"503 111 OFFCURVE",
"502 115 OFFCURVE",
"499 117 CURVE SMOOTH",
"476 132 LINE SMOOTH",
"472 135 OFFCURVE",
"470 134 OFFCURVE",
"466 128 CURVE SMOOTH",
"422 60 OFFCURVE",
"368 28 OFFCURVE",
"300 28 CURVE SMOOTH",
"178 28 OFFCURVE",
"98 123 OFFCURVE",
"98 265 CURVE SMOOTH",
"98 407 OFFCURVE",
"178 502 OFFCURVE",
"301 502 CURVE SMOOTH",
"357 502 OFFCURVE",
"402 478 OFFCURVE",
"457 411 CURVE SMOOTH",
"461 406 OFFCURVE",
"465 405 OFFCURVE",
"468 407 CURVE SMOOTH",
"492 423 LINE SMOOTH",
"495 425 OFFCURVE",
"496 427 OFFCURVE",
"492 433 CURVE SMOOTH",
"446 499 OFFCURVE",
"385 540 OFFCURVE",
"296 540 CURVE SMOOTH"
);
}
);
};
layerId = "91AB5BCA-6A50-42DA-B2F7-8181BF189245";
paths = (
{
closed = 1;
nodes = (
"155 540 OFFCURVE",
"56 425 OFFCURVE",
"56 263 CURVE SMOOTH",
"56 100 OFFCURVE",
"153 -10 OFFCURVE",
"296 -10 CURVE SMOOTH",
"383 -10 OFFCURVE",
"456 31 OFFCURVE",
"505 113 CURVE",
"471 135 LINE",
"426 62 OFFCURVE",
"370 28 OFFCURVE",
"300 28 CURVE SMOOTH",
"178 28 OFFCURVE",
"98 123 OFFCURVE",
"98 265 CURVE SMOOTH",
"98 407 OFFCURVE",
"178 502 OFFCURVE",
"301 502 CURVE SMOOTH",
"359 502 OFFCURVE",
"406 476 OFFCURVE",
"463 404 CURVE",
"497 426 LINE",
"450 496 OFFCURVE",
"387 540 OFFCURVE",
"296 540 CURVE SMOOTH"
);
}
);
width = 537;
}
);
leftKerningGroup = o;
unicode = 0063;
},
{
glyphname = d;
lastChange = "2016-11-02 00:47:50 +0000";
layers = (
{
anchors = (
{
name = bottom;
position = "{307, 0}";
},
{
name = center;
position = "{307, 265}";
},
{
name = topright;
position = "{593, 530}";
}
);
background = {
anchors = (
{
name = bottom;
position = "{307, 0}";
},
{
name = center;
position = "{307, 265}";
},
{
name = topright;
position = "{593, 530}";
}
);
paths = (
{
closed = 1;
nodes = (
"548 0 LINE SMOOTH",
"569 0 OFFCURVE",
"575 8 OFFCURVE",
"575 25 CURVE SMOOTH",
"575 719 LINE SMOOTH",
"575 734 OFFCURVE",
"567 742 OFFCURVE",
"556 742 CURVE SMOOTH",
"394 742 LINE SMOOTH",
"382 742 OFFCURVE",
"376 734 OFFCURVE",
"376 721 CURVE SMOOTH",
"376 496 LINE SMOOTH",
"376 480 OFFCURVE",
"367 480 OFFCURVE",
"357 488 CURVE SMOOTH",
"316 528 OFFCURVE",
"278 540 OFFCURVE",
"233 540 CURVE SMOOTH",
"123 540 OFFCURVE",
"23 431 OFFCURVE",
"23 263 CURVE SMOOTH",
"23 82 OFFCURVE",
"105 -10 OFFCURVE",
"223 -10 CURVE SMOOTH",
"285 -10 OFFCURVE",
"324 10 OFFCURVE",
"363 46 CURVE SMOOTH",
"370 52 OFFCURVE",
"378 51 OFFCURVE",
"378 42 CURVE SMOOTH",
"378 23 LINE SMOOTH",
"378 6 OFFCURVE",
"390 0 OFFCURVE",
"403 0 CURVE SMOOTH"
);
},
{
closed = 1;
nodes = (
"375 176 LINE SMOOTH",
"375 137 OFFCURVE",
"344 110 OFFCURVE",
"305 110 CURVE SMOOTH",
"254 110 OFFCURVE",
"225 149 OFFCURVE",
"225 264 CURVE SMOOTH",
"225 380 OFFCURVE",
"258 416 OFFCURVE",
"305 416 CURVE SMOOTH",
"336 416 OFFCURVE",
"354 403 OFFCURVE",
"375 378 CURVE"
);
}
);
};
layerId = "258ED206-D907-4350-8EBA-CBDDA1C16BF7";
paths = (
{
closed = 1;
nodes = (
"575 0 LINE",
"575 742 LINE",
"376 742 LINE",
"376 496 LINE SMOOTH",
"376 480 OFFCURVE",
"367 480 OFFCURVE",
"357 488 CURVE SMOOTH",
"316 528 OFFCURVE",
"278 540 OFFCURVE",
"233 540 CURVE SMOOTH",
"123 540 OFFCURVE",
"23 431 OFFCURVE",
"23 263 CURVE SMOOTH",
"23 82 OFFCURVE",
"105 -10 OFFCURVE",
"223 -10 CURVE SMOOTH",
"292 -10 OFFCURVE",
"335 15 OFFCURVE",
"378 60 CURVE",
"378 0 LINE"
);
},
{
closed = 1;
nodes = (
"375 176 LINE SMOOTH",
"375 137 OFFCURVE",
"344 110 OFFCURVE",
"305 110 CURVE SMOOTH",
"254 110 OFFCURVE",
"225 149 OFFCURVE",
"225 264 CURVE SMOOTH",
"225 380 OFFCURVE",
"258 416 OFFCURVE",
"305 416 CURVE SMOOTH",
"336 416 OFFCURVE",
"354 403 OFFCURVE",
"375 378 CURVE"
);
}
);
width = 626;
},
{
anchors = (
{
name = bottom;
position = "{302, 0}";
},
{
name = center;
position = "{314, 265}";
},
{
name = topright;
position = "{627, 742}";
}
);
background = {
anchors = (
{
name = bottom;
position = "{302, 0}";
},
{
name = center;
position = "{314, 265}";
},
{
name = topright;
position = "{627, 742}";
}
);
paths = (
{
closed = 1;
nodes = (
"489 0 LINE SMOOTH",
"498 0 OFFCURVE",
"501 3 OFFCURVE",
"501 12 CURVE SMOOTH",
"501 733 LINE SMOOTH",
"501 739 OFFCURVE",
"498 742 OFFCURVE",
"493 742 CURVE SMOOTH",
"470 742 LINE SMOOTH",
"463 742 OFFCURVE",
"461 739 OFFCURVE",
"461 732 CURVE SMOOTH",
"461 493 LINE SMOOTH",
"461 480 OFFCURVE",
"459 476 OFFCURVE",
"447 486 CURVE SMOOTH",
"416 510 OFFCURVE",
"373 540 OFFCURVE",
"300 540 CURVE SMOOTH",
"153 540 OFFCURVE",
"57 425 OFFCURVE",
"57 255 CURVE SMOOTH",
"57 78 OFFCURVE",
"160 -10 OFFCURVE",
"288 -10 CURVE SMOOTH",
"384 -10 OFFCURVE",
"435 49 OFFCURVE",
"451 66 CURVE SMOOTH",
"459 74 OFFCURVE",
"463 73 OFFCURVE",
"463 62 CURVE SMOOTH",
"463 11 LINE SMOOTH",
"463 4 OFFCURVE",
"466 0 OFFCURVE",
"473 0 CURVE SMOOTH"
);
},
{
closed = 1;
nodes = (
"461 170 LINE SMOOTH",
"461 110 OFFCURVE",
"389 28 OFFCURVE",
"293 28 CURVE SMOOTH",
"191 28 OFFCURVE",
"99 100 OFFCURVE",
"99 259 CURVE SMOOTH",
"99 411 OFFCURVE",
"184 502 OFFCURVE",
"301 502 CURVE SMOOTH",
"362 502 OFFCURVE",
"412 474 OFFCURVE",
"461 426 CURVE"
);
}
);
};
layerId = "91AB5BCA-6A50-42DA-B2F7-8181BF189245";
paths = (
{
closed = 1;
nodes = (
"501 0 LINE",
"501 742 LINE",
"461 742 LINE",
"461 493 LINE SMOOTH",
"461 480 OFFCURVE",
"459 476 OFFCURVE",
"447 486 CURVE SMOOTH",
"416 510 OFFCURVE",
"373 540 OFFCURVE",
"300 540 CURVE SMOOTH",
"153 540 OFFCURVE",
"57 425 OFFCURVE",
"57 255 CURVE SMOOTH",
"57 78 OFFCURVE",
"160 -10 OFFCURVE",
"288 -10 CURVE SMOOTH",
"391 -10 OFFCURVE",
"446 59 OFFCURVE",
"463 79 CURVE",
"463 0 LINE"
);
},
{
closed = 1;
nodes = (
"461 170 LINE SMOOTH",
"461 110 OFFCURVE",
"389 28 OFFCURVE",
"293 28 CURVE SMOOTH",
"191 28 OFFCURVE",
"99 100 OFFCURVE",
"99 259 CURVE SMOOTH",
"99 411 OFFCURVE",
"184 502 OFFCURVE",
"301 502 CURVE SMOOTH",
"362 502 OFFCURVE",
"412 474 OFFCURVE",
"461 426 CURVE"
);
}
);
width = 592;
}
);
leftKerningGroup = o;
unicode = 0064;
},
{
glyphname = eth;
lastChange = "2016-11-02 00:47:50 +0000";
layers = (
{
background = {
paths = (
{
closed = 1;
nodes = (
"579 440 OFFCURVE",
"504 582 OFFCURVE",
"380 669 CURVE",
"426 695 LINE SMOOTH",
"432 699 OFFCURVE",
"433 704 OFFCURVE",
"430 709 CURVE SMOOTH",
"409 747 LINE SMOOTH",
"405 752 OFFCURVE",
"398 754 OFFCURVE",
"391 749 CURVE SMOOTH",
"316 707 LINE",
"279 726 OFFCURVE",
"238 740 OFFCURVE",
"195 750 CURVE SMOOTH",
"183 753 OFFCURVE",
"181 752 OFFCURVE",
"174 746 CURVE SMOOTH",
"90 677 LINE SMOOTH",
"83 671 OFFCURVE",
"86 665 OFFCURVE",
"92 663 CURVE SMOOTH",
"122 653 OFFCURVE",
"149 641 OFFCURVE",
"174 628 CURVE",
"103 589 LINE SMOOTH",
"96 586 OFFCURVE",
"93 578 OFFCURVE",
"101 567 CURVE SMOOTH",
"116 543 LINE SMOOTH",
"123 532 OFFCURVE",
"129 530 OFFCURVE",
"140 536 CURVE SMOOTH",
"236 590 LINE",
"264 569 OFFCURVE",
"283 551 OFFCURVE",
"302 525 CURVE SMOOTH",
"304 522 OFFCURVE",
"304 520 OFFCURVE",
"300 520 CURVE SMOOTH",
"142 520 OFFCURVE",
"21 409 OFFCURVE",
"21 252 CURVE SMOOTH",
"21 103 OFFCURVE",
"135 -10 OFFCURVE",
"299 -10 CURVE SMOOTH",
"466 -10 OFFCURVE",
"579 102 OFFCURVE",
"579 282 CURVE SMOOTH"
);
},
{
closed = 1;
nodes = (
"247 118 OFFCURVE",
"223 162 OFFCURVE",
"223 256 CURVE SMOOTH",
"223 351 OFFCURVE",
"247 396 OFFCURVE",
"300 396 CURVE SMOOTH",
"354 396 OFFCURVE",
"377 351 OFFCURVE",
"377 256 CURVE SMOOTH",
"377 163 OFFCURVE",
"354 118 OFFCURVE",
"300 118 CURVE SMOOTH"
);
}
);
};
layerId = "258ED206-D907-4350-8EBA-CBDDA1C16BF7";
paths = (
{
closed = 1;
nodes = (
"579 440 OFFCURVE",
"504 582 OFFCURVE",
"380 669 CURVE",
"435 700 LINE",
"404 756 LINE",
"316 707 LINE",
"275 727 OFFCURVE",
"230 742 OFFCURVE",
"182 753 CURVE",
"79 668 LINE",
"113 656 OFFCURVE",
"145 643 OFFCURVE",
"174 628 CURVE",
"91 583 LINE",
"125 528 LINE",
"236 590 LINE",
"264 569 OFFCURVE",
"283 551 OFFCURVE",
"302 525 CURVE SMOOTH",
"304 522 OFFCURVE",
"304 520 OFFCURVE",
"300 520 CURVE SMOOTH",
"142 520 OFFCURVE",
"21 409 OFFCURVE",
"21 252 CURVE SMOOTH",
"21 103 OFFCURVE",
"135 -10 OFFCURVE",
"299 -10 CURVE SMOOTH",
"466 -10 OFFCURVE",
"579 102 OFFCURVE",
"579 282 CURVE SMOOTH"
);
},
{
closed = 1;
nodes = (
"247 118 OFFCURVE",
"223 162 OFFCURVE",
"223 256 CURVE SMOOTH",
"223 351 OFFCURVE",
"247 396 OFFCURVE",
"300 396 CURVE SMOOTH",
"354 396 OFFCURVE",
"377 351 OFFCURVE",
"377 256 CURVE SMOOTH",
"377 163 OFFCURVE",
"354 118 OFFCURVE",
"300 118 CURVE SMOOTH"
);
}
);
width = 610;
},
{
background = {
paths = (
{
closed = 1;
nodes = (
"542 422 OFFCURVE",
"487 563 OFFCURVE",
"331 669 CURVE",
"421 719 LINE SMOOTH",
"424 721 OFFCURVE",
"424 724 OFFCURVE",
"422 727 CURVE SMOOTH",
"410 749 LINE SMOOTH",
"409 751 OFFCURVE",
"404 752 OFFCURVE",
"401 750 CURVE SMOOTH",
"297 692 LINE",
"262 713 OFFCURVE",
"225 731 OFFCURVE",
"181 749 CURVE SMOOTH",
"172 753 OFFCURVE",
"169 751 OFFCURVE",
"163 747 CURVE SMOOTH",
"145 735 LINE SMOOTH",
"140 731 OFFCURVE",
"141 726 OFFCURVE",
"146 724 CURVE SMOOTH",
"188 707 OFFCURVE",
"225 689 OFFCURVE",
"259 670 CURVE",
"104 583 LINE SMOOTH",
"101 581 OFFCURVE",
"99 578 OFFCURVE",
"103 572 CURVE SMOOTH",
"112 558 LINE SMOOTH",
"116 552 OFFCURVE",
"119 550 OFFCURVE",
"125 553 CURVE SMOOTH",
"293 648 LINE",
"379 590 OFFCURVE",
"432 523 OFFCURVE",
"463 451 CURVE",
"420 494 OFFCURVE",
"361 520 OFFCURVE",
"290 520 CURVE SMOOTH",
"154 520 OFFCURVE",
"56 408 OFFCURVE",
"56 252 CURVE SMOOTH",
"56 98 OFFCURVE",
"153 -10 OFFCURVE",
"297 -10 CURVE SMOOTH",
"451 -10 OFFCURVE",
"542 101 OFFCURVE",
"542 255 CURVE SMOOTH"
);
},
{
closed = 1;
nodes = (
"185 28 OFFCURVE",
"98 128 OFFCURVE",
"98 254 CURVE SMOOTH",
"98 380 OFFCURVE",
"185 482 OFFCURVE",
"300 482 CURVE SMOOTH",
"414 482 OFFCURVE",
"500 381 OFFCURVE",
"500 254 CURVE SMOOTH",
"500 127 OFFCURVE",
"416 28 OFFCURVE",
"301 28 CURVE SMOOTH"
);
}
);
};
layerId = "91AB5BCA-6A50-42DA-B2F7-8181BF189245";
paths = (
{
closed = 1;
nodes = (
"542 422 OFFCURVE",
"487 563 OFFCURVE",
"331 669 CURVE",
"425 721 LINE",
"408 754 LINE",
"297 692 LINE",
"259 714 OFFCURVE",
"219 734 OFFCURVE",
"172 753 CURVE",
"135 728 LINE",
"181 710 OFFCURVE",
"222 691 OFFCURVE",
"259 670 CURVE",
"98 580 LINE",
"118 549 LINE",
"293 648 LINE",
"379 590 OFFCURVE",
"432 523 OFFCURVE",
"463 451 CURVE",
"420 494 OFFCURVE",
"361 520 OFFCURVE",
"290 520 CURVE SMOOTH",
"154 520 OFFCURVE",
"56 408 OFFCURVE",
"56 252 CURVE SMOOTH",
"56 98 OFFCURVE",
"153 -10 OFFCURVE",
"297 -10 CURVE SMOOTH",
"451 -10 OFFCURVE",
"542 101 OFFCURVE",
"542 255 CURVE SMOOTH"
);
},
{
closed = 1;
nodes = (
"185 28 OFFCURVE",
"98 128 OFFCURVE",
"98 254 CURVE SMOOTH",
"98 380 OFFCURVE",
"185 482 OFFCURVE",
"300 482 CURVE SMOOTH",
"414 482 OFFCURVE",
"500 381 OFFCURVE",
"500 254 CURVE SMOOTH",
"500 127 OFFCURVE",
"416 28 OFFCURVE",
"301 28 CURVE SMOOTH"
);
}
);
width = 598;
}
);
leftMetricsKey = o;
rightMetricsKey = o;
unicode = 00F0;
},
{
glyphname = dcroat;
lastChange = "2016-11-02 00:47:50 +0000";
layers = (
{
background = {
components = (
{
name = d;
}
);
paths = (
{
closed = 1;
nodes = (
"613 680 OFFCURVE",
"607 687 OFFCURVE",
"597 687 CURVE SMOOTH",
"258 687 LINE SMOOTH",
"248 687 OFFCURVE",
"242 680 OFFCURVE",
"242 667 CURVE SMOOTH",
"242 602 LINE SMOOTH",
"242 587 OFFCURVE",
"247 580 OFFCURVE",
"264 580 CURVE SMOOTH",
"584 580 LINE SMOOTH",
"604 580 OFFCURVE",
"613 587 OFFCURVE",
"613 604 CURVE SMOOTH",
"613 669 LINE SMOOTH"
);
}
);
};
components = (
{
name = d;
}
);
layerId = "258ED206-D907-4350-8EBA-CBDDA1C16BF7";
paths = (
{
closed = 1;
nodes = (
"242 687 LINE",
"242 580 LINE",
"613 580 LINE",
"613 687 LINE"
);
}
);
width = 636;
},
{
background = {
components = (
{
name = d;
}
);
paths = (
{
closed = 1;
nodes = (
"577 660 OFFCURVE",
"575 662 OFFCURVE",
"572 662 CURVE SMOOTH",
"293 662 LINE SMOOTH",
"290 662 OFFCURVE",
"288 660 OFFCURVE",
"288 655 CURVE SMOOTH",
"288 635 LINE SMOOTH",
"288 629 OFFCURVE",
"289 627 OFFCURVE",
"295 627 CURVE SMOOTH",
"567 627 LINE SMOOTH",
"574 627 OFFCURVE",
"577 629 OFFCURVE",
"577 635 CURVE SMOOTH",
"577 656 LINE SMOOTH"
);
}
);
};
components = (
{
name = d;
transform = "{1, 0, 0, 1, -4, 0}";
}
);
layerId = "91AB5BCA-6A50-42DA-B2F7-8181BF189245";
paths = (
{
closed = 1;
nodes = (
"288 662 LINE",
"288 627 LINE",
"577 627 LINE",
"577 662 LINE"
);
}
);
width = 602;
}
);
leftKerningGroup = o;
leftMetricsKey = d;
unicode = 0111;
},
{
glyphname = e;
lastChange = "2016-11-15 14:49:59 +0000";
layers = (
{
anchors = (
{
name = bottom;
position = "{304, 0}";
},
{
name = ogonek;
position = "{433, 26}";
},
{
name = top;
position = "{301, 530}";
}
);
background = {
anchors = (
{
name = bottom;
position = "{304, 0}";
},
{
name = ogonek;
position = "{433, 26}";
},
{
name = top;
position = "{301, 530}";
}
);
paths = (
{
closed = 1;
nodes = (
"227 224 OFFCURVE",
"232 229 OFFCURVE",
"242 229 CURVE SMOOTH",
"553 229 LINE SMOOTH",
"570 230 OFFCURVE",
"571 237 OFFCURVE",
"571 254 CURVE SMOOTH",
"571 435 OFFCURVE",
"456 540 OFFCURVE",
"299 540 CURVE SMOOTH",
"151 540 OFFCURVE",
"21 426 OFFCURVE",
"21 256 CURVE SMOOTH",
"21 99 OFFCURVE",
"143 -10 OFFCURVE",
"303 -10 CURVE SMOOTH",
"415 -10 OFFCURVE",
"483 17 OFFCURVE",
"555 118 CURVE SMOOTH",
"564 129 OFFCURVE",
"561 138 OFFCURVE",
"551 142 CURVE SMOOTH",
"460 179 LINE SMOOTH",
"447 184 OFFCURVE",
"444 183 OFFCURVE",
"439 178 CURVE SMOOTH",
"395 135 OFFCURVE",
"364 122 OFFCURVE",
"330 122 CURVE SMOOTH",
"272 122 OFFCURVE",
"227 151 OFFCURVE",
"227 212 CURVE SMOOTH"
);
},
{
closed = 1;
nodes = (
"229 395 OFFCURVE",
"267 423 OFFCURVE",
"308 423 CURVE SMOOTH",
"358 423 OFFCURVE",
"377 372 OFFCURVE",
"377 346 CURVE SMOOTH",
"377 334 OFFCURVE",
"373 332 OFFCURVE",
"360 332 CURVE SMOOTH",
"230 333 LINE"
);
}
);
};
layerId = "258ED206-D907-4350-8EBA-CBDDA1C16BF7";
paths = (
{
closed = 1;
nodes = (
"571 229 LINE",
"571 426 OFFCURVE",
"456 540 OFFCURVE",
"299 540 CURVE SMOOTH",
"151 540 OFFCURVE",
"21 426 OFFCURVE",
"21 256 CURVE SMOOTH",
"21 99 OFFCURVE",
"139 -10 OFFCURVE",
"299 -10 CURVE SMOOTH",
"413 -10 OFFCURVE",
"492 21 OFFCURVE",
"567 135 CURVE",
"446 185 LINE",
"399 137 OFFCURVE",
"366 122 OFFCURVE",
"330 122 CURVE SMOOTH",
"272 122 OFFCURVE",
"227 156 OFFCURVE",
"227 229 CURVE"
);
},
{
closed = 1;
nodes = (
"229 395 OFFCURVE",
"267 423 OFFCURVE",
"308 423 CURVE SMOOTH",
"358 423 OFFCURVE",
"377 363 OFFCURVE",
"377 332 CURVE",
"230 333 LINE"
);
}
);
width = 599;
},
{
anchors = (
{
name = bottom;
position = "{288, 0}";
},
{
name = ogonek;
position = "{393, 18}";
},
{
name = top;
position = "{297, 530}";
}
);
background = {
anchors = (
{
name = bottom;
position = "{300, 0}";
},
{
name = ogonek;
position = "{393, 18}";
},
{
name = top;
position = "{297, 530}";
}
);
paths = (
{
closed = 1;
nodes = (
"98 247 OFFCURVE",
"100 254 OFFCURVE",
"104 254 CURVE SMOOTH",
"515 254 LINE SMOOTH",
"530 254 OFFCURVE",
"528 266 OFFCURVE",
"528 274 CURVE SMOOTH",
"528 442 OFFCURVE",
"440 540 OFFCURVE",
"299 540 CURVE SMOOTH",
"158 540 OFFCURVE",
"56 436 OFFCURVE",
"56 261 CURVE SMOOTH",
"56 100 OFFCURVE",
"155 -10 OFFCURVE",
"299 -10 CURVE SMOOTH",
"393 -10 OFFCURVE",
"463 27 OFFCURVE",
"509 100 CURVE SMOOTH",
"512 104 OFFCURVE",
"511 108 OFFCURVE",
"508 110 CURVE SMOOTH",
"485 125 LINE SMOOTH",
"481 128 OFFCURVE",
"478 127 OFFCURVE",
"474 121 CURVE SMOOTH",
"438 61 OFFCURVE",
"379 28 OFFCURVE",
"299 28 CURVE SMOOTH",
"187 28 OFFCURVE",
"98 127 OFFCURVE",
"98 240 CURVE SMOOTH"
);
},
{
closed = 1;
nodes = (
"98 390 OFFCURVE",
"166 502 OFFCURVE",
"298 502 CURVE SMOOTH",
"414 502 OFFCURVE",
"486 414 OFFCURVE",
"486 304 CURVE SMOOTH",
"486 293 OFFCURVE",
"483 290 OFFCURVE",
"469 290 CURVE SMOOTH",
"99 290 LINE"
);
}
);
};
guideLines = (
{
angle = 88.4926;
position = "{299, 521}";
}
);
layerId = "91AB5BCA-6A50-42DA-B2F7-8181BF189245";
paths = (
{
closed = 1;
nodes = (
"528 254 LINE",
"528 435 OFFCURVE",
"440 540 OFFCURVE",
"299 540 CURVE SMOOTH",
"158 540 OFFCURVE",
"56 436 OFFCURVE",
"56 261 CURVE SMOOTH",
"56 100 OFFCURVE",
"158 -10 OFFCURVE",
"287 -10 CURVE SMOOTH",
"401 -10 OFFCURVE",
"465 27 OFFCURVE",
"513 107 CURVE",
"479 129 LINE",
"439 62 OFFCURVE",
"391 27 OFFCURVE",
"287 27 CURVE SMOOTH",
"166 27 OFFCURVE",
"98 134 OFFCURVE",
"98 254 CURVE"
);
},
{
closed = 1;
nodes = (
"98 390 OFFCURVE",
"166 502 OFFCURVE",
"298 502 CURVE SMOOTH",
"414 502 OFFCURVE",
"486 408 OFFCURVE",
"486 290 CURVE",
"99 290 LINE"
);
}
);
width = 577;
}
);
leftKerningGroup = o;
unicode = 0065;
},
{
glyphname = f;
lastChange = "2016-11-02 00:47:50 +0000";
layers = (
{
background = {
paths = (
{
closed = 1;
nodes = (
"312 530 LINE SMOOTH",
"304 530 OFFCURVE",
"299 533 OFFCURVE",
"299 543 CURVE SMOOTH",
"299 561 LINE SMOOTH",
"299 589 OFFCURVE",
"321 612 OFFCURVE",
"344 612 CURVE SMOOTH",
"387 612 LINE SMOOTH",
"399 612 OFFCURVE",
"405 621 OFFCURVE",
"405 632 CURVE",
"404 716 LINE",
"404 732 OFFCURVE",
"394 742 OFFCURVE",
"375 742 CURVE SMOOTH",
"262 742 LINE SMOOTH",
"165 742 OFFCURVE",
"104 688 OFFCURVE",
"104 601 CURVE SMOOTH",
"104 548 LINE SMOOTH",
"104 535 OFFCURVE",
"101 530 OFFCURVE",
"90 530 CURVE SMOOTH",
"42 530 LINE SMOOTH",
"25 530 OFFCURVE",
"18 520 OFFCURVE",
"18 508 CURVE SMOOTH",
"18 414 LINE SMOOTH",
"18 400 OFFCURVE",
"26 395 OFFCURVE",
"40 395 CURVE SMOOTH",
"96 395 LINE SMOOTH",
"102 395 OFFCURVE",
"104 392 OFFCURVE",
"104 385 CURVE SMOOTH",
"104 20 LINE SMOOTH",
"104 7 OFFCURVE",
"111 0 OFFCURVE",
"122 0 CURVE SMOOTH",
"285 0 LINE SMOOTH",
"297 0 OFFCURVE",
"304 7 OFFCURVE",
"304 22 CURVE SMOOTH",
"304 383 LINE SMOOTH",
"304 391 OFFCURVE",
"309 395 OFFCURVE",
"316 395 CURVE SMOOTH",
"378 395 LINE SMOOTH",
"391 395 OFFCURVE",
"400 400 OFFCURVE",
"400 414 CURVE SMOOTH",
"400 508 LINE SMOOTH",
"400 520 OFFCURVE",
"392 530 OFFCURVE",
"375 530 CURVE SMOOTH"
);
}
);
};
layerId = "258ED206-D907-4350-8EBA-CBDDA1C16BF7";
paths = (
{
closed = 1;
nodes = (
"299 530 LINE",
"299 561 LINE SMOOTH",
"299 589 OFFCURVE",
"321 612 OFFCURVE",
"344 612 CURVE SMOOTH",
"405 612 LINE",
"404 742 LINE",
"262 742 LINE SMOOTH",
"165 742 OFFCURVE",
"104 688 OFFCURVE",
"104 601 CURVE SMOOTH",
"104 530 LINE",
"18 530 LINE",
"18 395 LINE",
"104 395 LINE",
"104 0 LINE",
"304 0 LINE",
"304 395 LINE",
"400 395 LINE",
"400 530 LINE"
);
}
);
width = 428;
},
{
background = {
paths = (
{
closed = 1;
nodes = (
"199 530 LINE SMOOTH",
"194 530 OFFCURVE",
"192 532 OFFCURVE",
"192 537 CURVE SMOOTH",
"192 627 LINE SMOOTH",
"192 678 OFFCURVE",
"205 707 OFFCURVE",
"255 707 CURVE SMOOTH",
"335 707 LINE SMOOTH",
"340 707 OFFCURVE",
"343 709 OFFCURVE",
"343 714 CURVE SMOOTH",
"343 735 LINE SMOOTH",
"343 740 OFFCURVE",
"341 742 OFFCURVE",
"337 742 CURVE SMOOTH",
"265 742 LINE SMOOTH",
"185 742 OFFCURVE",
"152 700 OFFCURVE",
"152 618 CURVE SMOOTH",
"152 537 LINE SMOOTH",
"152 532 OFFCURVE",
"150 530 OFFCURVE",
"145 530 CURVE SMOOTH",
"32 530 LINE SMOOTH",
"28 530 OFFCURVE",
"26 528 OFFCURVE",
"26 524 CURVE SMOOTH",
"26 501 LINE SMOOTH",
"26 497 OFFCURVE",
"28 495 OFFCURVE",
"32 495 CURVE SMOOTH",
"146 495 LINE SMOOTH",
"150 495 OFFCURVE",
"152 492 OFFCURVE",
"152 488 CURVE SMOOTH",
"152 10 LINE SMOOTH",
"152 3 OFFCURVE",
"154 0 OFFCURVE",
"160 0 CURVE SMOOTH",
"183 0 LINE SMOOTH",
"189 0 OFFCURVE",
"192 3 OFFCURVE",
"192 11 CURVE SMOOTH",
"192 488 LINE SMOOTH",
"192 493 OFFCURVE",
"194 495 OFFCURVE",
"199 495 CURVE SMOOTH",
"332 495 LINE SMOOTH",
"336 495 OFFCURVE",
"338 497 OFFCURVE",
"338 501 CURVE SMOOTH",
"338 524 LINE SMOOTH",
"338 528 OFFCURVE",
"336 530 OFFCURVE",
"333 530 CURVE SMOOTH"
);
}
);
};
layerId = "91AB5BCA-6A50-42DA-B2F7-8181BF189245";
paths = (
{
closed = 1;
nodes = (
"192 530 LINE",
"192 627 LINE SMOOTH",
"192 678 OFFCURVE",
"205 707 OFFCURVE",
"255 707 CURVE SMOOTH",
"343 707 LINE",
"343 742 LINE",
"265 742 LINE SMOOTH",
"185 742 OFFCURVE",
"152 700 OFFCURVE",
"152 618 CURVE SMOOTH",
"152 530 LINE",
"26 530 LINE",
"26 495 LINE",
"152 495 LINE",
"152 0 LINE",
"192 0 LINE",
"192 495 LINE",
"338 495 LINE",
"338 530 LINE"
);
}
);
width = 364;
}
);
leftKerningGroup = f;
rightKerningGroup = f;
unicode = 0066;
},
{
glyphname = g;
lastChange = "2016-11-03 17:12:50 +0000";
layers = (
{
anchors = (
{
name = top;
position = "{306, 530}";
}
);
background = {
anchors = (
{
name = top;
position = "{306, 530}";
}
);
paths = (
{
closed = 1;
nodes = (
"586 562 OFFCURVE",
"530 534 OFFCURVE",
"503 496 CURVE SMOOTH",
"496 486 OFFCURVE",
"482 485 OFFCURVE",
"472 493 CURVE SMOOTH",
"439 519 OFFCURVE",
"381 538 OFFCURVE",
"305 538 CURVE SMOOTH",
"126 538 OFFCURVE",
"35 469 OFFCURVE",
"35 373 CURVE SMOOTH",
"35 312 OFFCURVE",
"73 265 OFFCURVE",
"139 237 CURVE SMOOTH",
"149 231 OFFCURVE",
"142 228 OFFCURVE",
"136 225 CURVE SMOOTH",
"82 202 OFFCURVE",
"27 169 OFFCURVE",
"27 122 CURVE SMOOTH",
"27 81 OFFCURVE",
"58 56 OFFCURVE",
"93 39 CURVE SMOOTH",
"101 35 OFFCURVE",
"103 31 OFFCURVE",
"93 28 CURVE SMOOTH",
"40 13 OFFCURVE",
"-4 -8 OFFCURVE",
"-4 -53 CURVE SMOOTH",
"-4 -137 OFFCURVE",
"98 -175 OFFCURVE",
"307 -175 CURVE SMOOTH",
"508 -175 OFFCURVE",
"610 -99 OFFCURVE",
"610 3 CURVE SMOOTH",
"610 85 OFFCURVE",
"544 143 OFFCURVE",
"396 152 CURVE SMOOTH",
"244 161 LINE SMOOTH",
"215 163 OFFCURVE",
"200 167 OFFCURVE",
"200 182 CURVE SMOOTH",
"200 198 OFFCURVE",
"227 209 OFFCURVE",
"293 209 CURVE SMOOTH",
"461 209 OFFCURVE",
"550 284 OFFCURVE",
"550 374 CURVE SMOOTH",
"550 384 OFFCURVE",
"548 395 OFFCURVE",
"545 405 CURVE SMOOTH",
"541 419 OFFCURVE",
"546 428 OFFCURVE",
"565 428 CURVE SMOOTH",
"577 428 OFFCURVE",
"596 425 OFFCURVE",
"609 421 CURVE SMOOTH",
"624 416 OFFCURVE",
"635 424 OFFCURVE",
"635 447 CURVE SMOOTH",
"635 537 LINE SMOOTH",
"635 555 OFFCURVE",
"626 562 OFFCURVE",
"615 562 CURVE SMOOTH"
);
},
{
closed = 1;
nodes = (
"241 300 OFFCURVE",
"213 334 OFFCURVE",
"213 370 CURVE SMOOTH",
"213 411 OFFCURVE",
"241 445 OFFCURVE",
"291 445 CURVE SMOOTH",
"347 445 OFFCURVE",
"369 411 OFFCURVE",
"369 370 CURVE SMOOTH",
"369 335 OFFCURVE",
"347 300 OFFCURVE",
"291 300 CURVE SMOOTH"
);
},
{
closed = 1;
nodes = (
"414 0 OFFCURVE",
"437 -16 OFFCURVE",
"437 -35 CURVE SMOOTH",
"437 -64 OFFCURVE",
"395 -86 OFFCURVE",
"317 -86 CURVE SMOOTH",
"192 -86 OFFCURVE",
"157 -64 OFFCURVE",
"157 -27 CURVE SMOOTH",
"157 -6 OFFCURVE",
"183 10 OFFCURVE",
"226 8 CURVE SMOOTH",
"371 2 LINE SMOOTH"
);
}
);
};
layerId = "258ED206-D907-4350-8EBA-CBDDA1C16BF7";
paths = (
{
closed = 1;
nodes = (
"508 -175 OFFCURVE",
"610 -99 OFFCURVE",
"610 3 CURVE SMOOTH",
"610 85 OFFCURVE",
"545 142 OFFCURVE",
"398 152 CURVE SMOOTH",
"353 155 OFFCURVE",
"311 157 OFFCURVE",
"293 158 CURVE SMOOTH",
"241 161 OFFCURVE",
"207 161 OFFCURVE",
"207 184 CURVE SMOOTH",
"207 195 OFFCURVE",
"222 209 OFFCURVE",
"293 209 CURVE SMOOTH",
"461 209 OFFCURVE",
"550 284 OFFCURVE",
"550 374 CURVE SMOOTH",
"550 381 OFFCURVE",
"549 390 OFFCURVE",
"547 397 CURVE SMOOTH",
"543 411 OFFCURVE",
"546 419 OFFCURVE",
"565 421 CURVE SMOOTH",
"586 423 OFFCURVE",
"613 426 OFFCURVE",
"634 428 CURVE",
"635 549 LINE",
"601 535 OFFCURVE",
"550 515 OFFCURVE",
"503 496 CURVE SMOOTH",
"493 492 OFFCURVE",
"482 485 OFFCURVE",
"472 493 CURVE SMOOTH",
"439 519 OFFCURVE",
"381 538 OFFCURVE",
"305 538 CURVE SMOOTH",
"126 538 OFFCURVE",
"35 469 OFFCURVE",
"35 373 CURVE SMOOTH",
"35 312 OFFCURVE",
"73 265 OFFCURVE",
"139 237 CURVE SMOOTH",
"149 231 OFFCURVE",
"142 228 OFFCURVE",
"136 225 CURVE SMOOTH",
"82 202 OFFCURVE",
"27 169 OFFCURVE",
"27 122 CURVE SMOOTH",
"27 81 OFFCURVE",
"58 56 OFFCURVE",
"93 39 CURVE SMOOTH",
"101 35 OFFCURVE",
"103 31 OFFCURVE",
"93 28 CURVE SMOOTH",
"40 13 OFFCURVE",
"-4 -8 OFFCURVE",
"-4 -53 CURVE SMOOTH",
"-4 -137 OFFCURVE",
"98 -175 OFFCURVE",
"307 -175 CURVE SMOOTH"
);
},
{
closed = 1;
nodes = (
"192 -86 OFFCURVE",
"157 -64 OFFCURVE",
"157 -27 CURVE SMOOTH",
"157 -6 OFFCURVE",
"183 10 OFFCURVE",
"226 8 CURVE SMOOTH",
"371 2 LINE SMOOTH",
"414 0 OFFCURVE",
"437 -16 OFFCURVE",
"437 -35 CURVE SMOOTH",
"437 -64 OFFCURVE",
"395 -86 OFFCURVE",
"317 -86 CURVE SMOOTH"
);
},
{
closed = 1;
nodes = (
"241 300 OFFCURVE",
"213 334 OFFCURVE",
"213 370 CURVE SMOOTH",
"213 411 OFFCURVE",
"241 445 OFFCURVE",
"291 445 CURVE SMOOTH",
"347 445 OFFCURVE",
"369 411 OFFCURVE",
"369 370 CURVE SMOOTH",
"369 335 OFFCURVE",
"347 300 OFFCURVE",
"291 300 CURVE SMOOTH"
);
}
);
width = 663;
},
{
anchors = (
{
name = top;
position = "{283, 530}";
}
);
background = {
anchors = (
{
name = top;
position = "{283, 530}";
}
);
guideLines = (
{
angle = 90;
position = "{279, 374}";
showMeasurement = 1;
}
);
paths = (
{
closed = 1;
nodes = (
"497 530 OFFCURVE",
"467 507 OFFCURVE",
"447 492 CURVE SMOOTH",
"440 487 OFFCURVE",
"436 487 OFFCURVE",
"429 493 CURVE SMOOTH",
"395 522 OFFCURVE",
"352 538 OFFCURVE",
"286 538 CURVE SMOOTH",
"154 538 OFFCURVE",
"76 475 OFFCURVE",
"76 369 CURVE SMOOTH",
"76 307 OFFCURVE",
"100 266 OFFCURVE",
"155 235 CURVE SMOOTH",
"162 231 OFFCURVE",
"164 225 OFFCURVE",
"156 223 CURVE SMOOTH",
"106 207 OFFCURVE",
"89 181 OFFCURVE",
"89 159 CURVE SMOOTH",
"89 137 OFFCURVE",
"100 121 OFFCURVE",
"127 109 CURVE SMOOTH",
"134 106 OFFCURVE",
"134 102 OFFCURVE",
"127 98 CURVE SMOOTH",
"64 63 OFFCURVE",
"35 21 OFFCURVE",
"35 -27 CURVE SMOOTH",
"35 -120 OFFCURVE",
"121 -175 OFFCURVE",
"275 -175 CURVE SMOOTH",
"426 -175 OFFCURVE",
"514 -119 OFFCURVE",
"514 -19 CURVE SMOOTH",
"514 60 OFFCURVE",
"467 110 OFFCURVE",
"360 116 CURVE SMOOTH",
"240 123 LINE SMOOTH",
"163 127 OFFCURVE",
"131 136 OFFCURVE",
"131 160 CURVE SMOOTH",
"131 184 OFFCURVE",
"164 209 OFFCURVE",
"279 209 CURVE SMOOTH",
"420 209 OFFCURVE",
"481 280 OFFCURVE",
"481 369 CURVE SMOOTH",
"481 411 OFFCURVE",
"467 434 OFFCURVE",
"460 451 CURVE SMOOTH",
"457 458 OFFCURVE",
"462 464 OFFCURVE",
"480 474 CURVE SMOOTH",
"496 483 OFFCURVE",
"509 487 OFFCURVE",
"535 488 CURVE SMOOTH",
"549 489 OFFCURVE",
"552 495 OFFCURVE",
"552 504 CURVE SMOOTH",
"552 517 LINE SMOOTH",
"552 526 OFFCURVE",
"548 530 OFFCURVE",
"533 530 CURVE SMOOTH"
);
},
{
closed = 1;
nodes = (
"175 247 OFFCURVE",
"116 290 OFFCURVE",
"116 371 CURVE SMOOTH",
"116 453 OFFCURVE",
"176 500 OFFCURVE",
"280 500 CURVE SMOOTH",
"386 500 OFFCURVE",
"441 454 OFFCURVE",
"441 371 CURVE SMOOTH",
"441 289 OFFCURVE",
"388 247 OFFCURVE",
"280 247 CURVE SMOOTH"
);
},
{
closed = 1;
nodes = (
"443 70 OFFCURVE",
"472 36 OFFCURVE",
"472 -19 CURVE SMOOTH",
"472 -101 OFFCURVE",
"406 -137 OFFCURVE",
"284 -137 CURVE SMOOTH",
"153 -137 OFFCURVE",
"77 -96 OFFCURVE",
"77 -23 CURVE SMOOTH",
"77 43 OFFCURVE",
"151 88 OFFCURVE",
"183 86 CURVE SMOOTH",
"359 75 LINE SMOOTH"
);
}
);
};
guideLines = (
{
angle = 90;
position = "{387, 374}";
showMeasurement = 1;
}
);
layerId = "91AB5BCA-6A50-42DA-B2F7-8181BF189245";
paths = (
{
closed = 1;
nodes = (
"426 -175 OFFCURVE",
"514 -119 OFFCURVE",
"514 -19 CURVE SMOOTH",
"514 60 OFFCURVE",
"467 110 OFFCURVE",
"360 116 CURVE SMOOTH",
"310 119 OFFCURVE",
"271 121 OFFCURVE",
"240 123 CURVE SMOOTH",
"155 129 OFFCURVE",
"131 137 OFFCURVE",
"131 160 CURVE SMOOTH",
"131 184 OFFCURVE",
"164 209 OFFCURVE",
"279 209 CURVE SMOOTH",
"420 209 OFFCURVE",
"481 280 OFFCURVE",
"481 369 CURVE SMOOTH",
"481 407 OFFCURVE",
"468 433 OFFCURVE",
"463 444 CURVE SMOOTH",
"457 457 OFFCURVE",
"457 459 OFFCURVE",
"480 464 CURVE SMOOTH",
"505 469 OFFCURVE",
"515 471 OFFCURVE",
"552 478 CURVE",
"552 537 LINE",
"513 521 OFFCURVE",
"471 503 OFFCURVE",
"447 492 CURVE SMOOTH",
"440 489 OFFCURVE",
"436 487 OFFCURVE",
"429 493 CURVE SMOOTH",
"395 522 OFFCURVE",
"352 538 OFFCURVE",
"286 538 CURVE SMOOTH",
"154 538 OFFCURVE",
"76 475 OFFCURVE",
"76 369 CURVE SMOOTH",
"76 307 OFFCURVE",
"100 266 OFFCURVE",
"155 235 CURVE SMOOTH",
"162 231 OFFCURVE",
"164 225 OFFCURVE",
"156 223 CURVE SMOOTH",
"106 207 OFFCURVE",
"89 181 OFFCURVE",
"89 159 CURVE SMOOTH",
"89 137 OFFCURVE",
"100 121 OFFCURVE",
"127 109 CURVE SMOOTH",
"134 106 OFFCURVE",
"134 102 OFFCURVE",
"127 98 CURVE SMOOTH",
"64 63 OFFCURVE",
"35 21 OFFCURVE",
"35 -27 CURVE SMOOTH",
"35 -120 OFFCURVE",
"121 -175 OFFCURVE",
"275 -175 CURVE SMOOTH"
);
},
{
closed = 1;
nodes = (
"153 -137 OFFCURVE",
"77 -96 OFFCURVE",
"77 -23 CURVE SMOOTH",
"77 43 OFFCURVE",
"151 88 OFFCURVE",
"183 86 CURVE SMOOTH",
"359 75 LINE SMOOTH",
"443 70 OFFCURVE",
"472 36 OFFCURVE",
"472 -19 CURVE SMOOTH",
"472 -101 OFFCURVE",
"406 -137 OFFCURVE",
"284 -137 CURVE SMOOTH"
);
},
{
closed = 1;
nodes = (
"175 247 OFFCURVE",
"116 290 OFFCURVE",
"116 371 CURVE SMOOTH",
"116 453 OFFCURVE",
"176 500 OFFCURVE",
"280 500 CURVE SMOOTH",
"386 500 OFFCURVE",
"441 454 OFFCURVE",
"441 371 CURVE SMOOTH",
"441 289 OFFCURVE",
"388 247 OFFCURVE",
"280 247 CURVE SMOOTH"
);
}
);
width = 582;
}
);
leftKerningGroup = g;
unicode = 0067;
},
{
glyphname = gcommaaccent;
lastChange = "2016-11-02 00:47:50 +0000";
layers = (
{
anchors = (
{
name = _top;
position = "{303, 550}";
}
);
background = {
anchors = (
{
name = _top;
position = "{303, 550}";
}
);
components = (
{
name = g;
}
);
paths = (
{
closed = 1;
nodes = (
"350 599 LINE SMOOTH",
"360 599 OFFCURVE",
"368 605 OFFCURVE",
"368 619 CURVE SMOOTH",
"368 680 LINE SMOOTH",
"368 696 OFFCURVE",
"362 702 OFFCURVE",
"345 702 CURVE SMOOTH",
"336 702 LINE SMOOTH",
"322 702 OFFCURVE",
"316 717 OFFCURVE",
"327 731 CURVE SMOOTH",
"360 776 LINE SMOOTH",
"366 784 OFFCURVE",
"359 796 OFFCURVE",
"348 796 CURVE SMOOTH",
"330 796 LINE SMOOTH",
"312 796 OFFCURVE",
"305 793 OFFCURVE",
"297 782 CURVE SMOOTH",
"243 715 LINE SMOOTH",
"242 712 OFFCURVE",
"239 707 OFFCURVE",
"239 702 CURVE SMOOTH",
"239 615 LINE SMOOTH",
"239 605 OFFCURVE",
"245 599 OFFCURVE",
"256 599 CURVE SMOOTH"
);
}
);
};
components = (
{
name = g;
}
);
layerId = "258ED206-D907-4350-8EBA-CBDDA1C16BF7";
paths = (
{
closed = 1;
nodes = (
"368 599 LINE",
"368 702 LINE",
"306 702 LINE",
"375 796 LINE",
"308 796 LINE",
"239 710 LINE",
"239 599 LINE"
);
}
);
width = 663;
},
{
anchors = (
{
name = _top;
position = "{283, 550}";
}
);
background = {
anchors = (
{
name = _top;
position = "{283, 550}";
}
);
components = (
{
name = g;
}
);
paths = (
{
closed = 1;
nodes = (
"302 632 LINE SMOOTH",
"306 632 OFFCURVE",
"309 634 OFFCURVE",
"309 640 CURVE SMOOTH",
"309 706 LINE SMOOTH",
"309 713 OFFCURVE",
"307 715 OFFCURVE",
"301 715 CURVE SMOOTH",
"293 715 LINE SMOOTH",
"288 715 OFFCURVE",
"286 718 OFFCURVE",
"289 724 CURVE SMOOTH",
"314 778 LINE SMOOTH",
"316 782 OFFCURVE",
"314 786 OFFCURVE",
"310 786 CURVE SMOOTH",
"297 786 LINE SMOOTH",
"289 786 OFFCURVE",
"286 785 OFFCURVE",
"283 780 CURVE SMOOTH",
"252 721 LINE SMOOTH",
"252 720 OFFCURVE",
"251 717 OFFCURVE",
"251 715 CURVE SMOOTH",
"251 639 LINE SMOOTH",
"251 634 OFFCURVE",
"253 632 OFFCURVE",
"257 632 CURVE SMOOTH"
);
}
);
};
components = (
{
name = g;
transform = "{1, 0, 0, 1, -4, 0}";
}
);
layerId = "91AB5BCA-6A50-42DA-B2F7-8181BF189245";
paths = (
{
closed = 1;
nodes = (
"309 632 LINE",
"309 715 LINE",
"285 715 LINE",
"318 786 LINE",
"286 786 LINE",
"251 719 LINE",
"251 632 LINE"
);
}
);
width = 566;
}
);
leftKerningGroup = g;
unicode = 0123;
},
{
glyphname = h;
lastChange = "2016-11-02 00:47:50 +0000";
layers = (
{
anchors = (
{
name = bottom;
position = "{306, 0}";
},
{
name = top;
position = "{445, 530}";
}
);
background = {
anchors = (
{
name = bottom;
position = "{306, 0}";
},
{
name = top;
position = "{445, 530}";
}
);
paths = (
{
closed = 1;
nodes = (
"209 0 LINE SMOOTH",
"233 0 OFFCURVE",
"242 8 OFFCURVE",
"242 29 CURVE SMOOTH",
"242 349 LINE",
"261 383 OFFCURVE",
"285 399 OFFCURVE",
"316 399 CURVE SMOOTH",
"348 399 OFFCURVE",
"368 381 OFFCURVE",
"368 351 CURVE SMOOTH",
"368 25 LINE SMOOTH",
"368 6 OFFCURVE",
"374 0 OFFCURVE",
"391 0 CURVE SMOOTH",
"538 0 LINE SMOOTH",
"559 0 OFFCURVE",
"568 10 OFFCURVE",
"568 30 CURVE SMOOTH",
"568 375 LINE SMOOTH",
"568 481 OFFCURVE",
"511 540 OFFCURVE",
"412 540 CURVE SMOOTH",
"359 540 OFFCURVE",
"309 523 OFFCURVE",
"252 468 CURVE SMOOTH",
"244 461 OFFCURVE",
"239 464 OFFCURVE",
"239 472 CURVE SMOOTH",
"239 721 LINE SMOOTH",
"239 734 OFFCURVE",
"233 742 OFFCURVE",
"221 742 CURVE SMOOTH",
"61 742 LINE SMOOTH",
"49 742 OFFCURVE",
"42 733 OFFCURVE",
"42 719 CURVE SMOOTH",
"42 25 LINE SMOOTH",
"42 7 OFFCURVE",
"49 0 OFFCURVE",
"68 0 CURVE SMOOTH"
);
}
);
};
layerId = "258ED206-D907-4350-8EBA-CBDDA1C16BF7";
paths = (
{
closed = 1;
nodes = (
"242 0 LINE",
"242 349 LINE",
"261 383 OFFCURVE",
"285 399 OFFCURVE",
"316 399 CURVE SMOOTH",
"348 399 OFFCURVE",
"368 381 OFFCURVE",
"368 351 CURVE SMOOTH",
"368 0 LINE",
"568 0 LINE",
"568 375 LINE SMOOTH",
"568 481 OFFCURVE",
"511 540 OFFCURVE",
"412 540 CURVE SMOOTH",
"355 540 OFFCURVE",
"301 520 OFFCURVE",
"239 455 CURVE",
"239 742 LINE",
"42 742 LINE",
"42 0 LINE"
);
}
);
width = 615;
},
{
anchors = (
{
name = bottom;
position = "{303, 0}";
},
{
name = top;
position = "{325, 530}";
}
);
background = {
anchors = (
{
name = bottom;
position = "{303, 0}";
},
{
name = top;
position = "{325, 530}";
}
);
paths = (
{
closed = 1;
nodes = (
"122 0 LINE SMOOTH",
"128 0 OFFCURVE",
"131 3 OFFCURVE",
"131 9 CURVE SMOOTH",
"131 410 LINE",
"211 471 OFFCURVE",
"258 502 OFFCURVE",
"329 502 CURVE SMOOTH",
"416 502 OFFCURVE",
"452 455 OFFCURVE",
"452 377 CURVE SMOOTH",
"452 9 LINE SMOOTH",
"452 3 OFFCURVE",
"455 0 OFFCURVE",
"461 0 CURVE SMOOTH",
"483 0 LINE SMOOTH",
"489 0 OFFCURVE",
"492 3 OFFCURVE",
"492 10 CURVE SMOOTH",
"492 393 LINE SMOOTH",
"492 480 OFFCURVE",
"437 540 OFFCURVE",
"330 540 CURVE SMOOTH",
"257 540 OFFCURVE",
"212 511 OFFCURVE",
"136 457 CURVE SMOOTH",
"130 452 OFFCURVE",
"128 453 OFFCURVE",
"128 460 CURVE SMOOTH",
"128 734 LINE SMOOTH",
"128 740 OFFCURVE",
"126 742 OFFCURVE",
"120 742 CURVE SMOOTH",
"99 742 LINE SMOOTH",
"93 742 OFFCURVE",
"91 739 OFFCURVE",
"91 733 CURVE SMOOTH",
"91 9 LINE SMOOTH",
"91 3 OFFCURVE",
"94 0 OFFCURVE",
"100 0 CURVE SMOOTH"
);
}
);
};
layerId = "91AB5BCA-6A50-42DA-B2F7-8181BF189245";
paths = (
{
closed = 1;
nodes = (
"131 0 LINE",
"131 410 LINE",
"211 471 OFFCURVE",
"258 502 OFFCURVE",
"329 502 CURVE SMOOTH",
"416 502 OFFCURVE",
"452 455 OFFCURVE",
"452 377 CURVE SMOOTH",
"452 0 LINE",
"492 0 LINE",
"492 393 LINE SMOOTH",
"492 480 OFFCURVE",
"437 540 OFFCURVE",
"330 540 CURVE SMOOTH",
"254 540 OFFCURVE",
"207 509 OFFCURVE",
"128 451 CURVE",
"128 742 LINE",
"91 742 LINE",
"91 0 LINE"
);
}
);
width = 576;
}
);
unicode = 0068;
},
{
glyphname = hbar;
lastChange = "2016-11-02 00:47:50 +0000";
layers = (
{
background = {
components = (
{
name = h;
transform = "{1, 0, 0, 1, 3, 0}";
}
);
paths = (
{
closed = 1;
nodes = (
"374 680 OFFCURVE",
"368 687 OFFCURVE",
"358 687 CURVE SMOOTH",
"19 687 LINE SMOOTH",
"9 687 OFFCURVE",
"3 680 OFFCURVE",
"3 667 CURVE SMOOTH",
"3 602 LINE SMOOTH",
"3 587 OFFCURVE",
"8 580 OFFCURVE",
"25 580 CURVE SMOOTH",
"345 580 LINE SMOOTH",
"365 580 OFFCURVE",
"374 587 OFFCURVE",
"374 604 CURVE SMOOTH",
"374 669 LINE SMOOTH"
);
}
);
};
components = (
{
name = h;
transform = "{1, 0, 0, 1, 3, 0}";
}
);
layerId = "258ED206-D907-4350-8EBA-CBDDA1C16BF7";
paths = (
{
closed = 1;
nodes = (
"3 687 LINE",
"3 580 LINE",
"374 580 LINE",
"374 687 LINE"
);
}
);
width = 618;
},
{
background = {
components = (
{
name = h;
}
);
paths = (
{
closed = 1;
nodes = (
"309 660 OFFCURVE",
"307 662 OFFCURVE",
"304 662 CURVE SMOOTH",
"25 662 LINE SMOOTH",
"22 662 OFFCURVE",
"20 660 OFFCURVE",
"20 655 CURVE SMOOTH",
"20 635 LINE SMOOTH",
"20 629 OFFCURVE",
"21 627 OFFCURVE",
"27 627 CURVE SMOOTH",
"299 627 LINE SMOOTH",
"306 627 OFFCURVE",
"309 629 OFFCURVE",
"309 635 CURVE SMOOTH",
"309 656 LINE SMOOTH"
);
}
);
};
components = (
{
name = h;
transform = "{1, 0, 0, 1, -4, 0}";
}
);
layerId = "91AB5BCA-6A50-42DA-B2F7-8181BF189245";
paths = (
{
closed = 1;
nodes = (
"20 662 LINE",
"20 627 LINE",
"309 627 LINE",
"309 662 LINE"
);
}
);
width = 560;
}
);
rightMetricsKey = h;
unicode = 0127;
},
{
glyphname = i;
lastChange = "2016-11-02 00:47:50 +0000";
layers = (
{
background = {
paths = (
{
closed = 1;
nodes = (
"241 522 OFFCURVE",
"234 530 OFFCURVE",
"223 530 CURVE SMOOTH",
"60 530 LINE SMOOTH",
"48 530 OFFCURVE",
"41 522 OFFCURVE",
"41 507 CURVE SMOOTH",
"41 25 LINE SMOOTH",
"41 8 OFFCURVE",
"47 0 OFFCURVE",
"67 0 CURVE SMOOTH",
"208 0 LINE SMOOTH",
"231 0 OFFCURVE",
"241 8 OFFCURVE",
"241 29 CURVE SMOOTH",
"241 510 LINE SMOOTH"
);
},
{
closed = 1;
nodes = (
"241 734 OFFCURVE",
"234 742 OFFCURVE",
"223 742 CURVE SMOOTH",
"60 742 LINE SMOOTH",
"48 742 OFFCURVE",
"41 734 OFFCURVE",
"41 719 CURVE SMOOTH",
"41 600 LINE SMOOTH",
"41 583 OFFCURVE",
"47 574 OFFCURVE",
"67 574 CURVE SMOOTH",
"208 574 LINE SMOOTH",
"231 574 OFFCURVE",
"241 583 OFFCURVE",
"241 603 CURVE SMOOTH",
"241 721 LINE SMOOTH"
);
}
);
};
layerId = "258ED206-D907-4350-8EBA-CBDDA1C16BF7";
paths = (
{
closed = 1;
nodes = (
"41 530 LINE",
"41 0 LINE",
"241 0 LINE",
"241 530 LINE"
);
},
{
closed = 1;
nodes = (
"41 742 LINE",
"41 574 LINE",
"241 574 LINE",
"241 742 LINE"
);
}
);
width = 292;
},
{
background = {
paths = (
{
closed = 1;
nodes = (
"131 528 OFFCURVE",
"129 530 OFFCURVE",
"122 530 CURVE SMOOTH",
"100 530 LINE SMOOTH",
"93 530 OFFCURVE",
"91 528 OFFCURVE",
"91 520 CURVE SMOOTH",
"91 10 LINE SMOOTH",
"91 2 OFFCURVE",
"93 0 OFFCURVE",
"102 0 CURVE SMOOTH",
"119 0 LINE SMOOTH",
"129 0 OFFCURVE",
"131 2 OFFCURVE",
"131 12 CURVE SMOOTH",
"131 520 LINE SMOOTH"
);
},
{
closed = 1;
nodes = (
"136 737 OFFCURVE",
"131 742 OFFCURVE",
"124 742 CURVE SMOOTH",
"98 742 LINE SMOOTH",
"91 742 OFFCURVE",
"86 737 OFFCURVE",
"86 729 CURVE SMOOTH",
"86 658 LINE SMOOTH",
"86 650 OFFCURVE",
"88 644 OFFCURVE",
"97 644 CURVE SMOOTH",
"124 644 LINE SMOOTH",
"134 644 OFFCURVE",
"136 650 OFFCURVE",
"136 660 CURVE SMOOTH",
"136 729 LINE SMOOTH"
);
}
);
};
layerId = "91AB5BCA-6A50-42DA-B2F7-8181BF189245";
paths = (
{
closed = 1;
nodes = (
"91 530 LINE",
"91 0 LINE",
"131 0 LINE",
"131 530 LINE"
);
},
{
closed = 1;
nodes = (
"86 742 LINE",
"86 644 LINE",
"136 644 LINE",
"136 742 LINE"
);
}
);
width = 222;
}
);
unicode = 0069;
},
{
glyphname = idotless;
lastChange = "2016-11-02 00:47:50 +0000";
layers = (
{
anchors = (
{
name = ogonek;
position = "{213, 9}";
},
{
name = top;
position = "{145, 530}";
}
);
background = {
anchors = (
{
name = ogonek;
position = "{213, 9}";
},
{
name = top;
position = "{145, 530}";
}
);
paths = (
{
closed = 1;
nodes = (
"241 522 OFFCURVE",
"234 530 OFFCURVE",
"223 530 CURVE SMOOTH",
"60 530 LINE SMOOTH",
"48 530 OFFCURVE",
"41 522 OFFCURVE",
"41 507 CURVE SMOOTH",
"41 25 LINE SMOOTH",
"41 8 OFFCURVE",
"47 0 OFFCURVE",
"67 0 CURVE SMOOTH",
"208 0 LINE SMOOTH",
"231 0 OFFCURVE",
"241 8 OFFCURVE",
"241 29 CURVE SMOOTH",
"241 510 LINE SMOOTH"
);
}
);
};
layerId = "258ED206-D907-4350-8EBA-CBDDA1C16BF7";
paths = (
{
closed = 1;
nodes = (
"41 530 LINE",
"41 0 LINE",
"241 0 LINE",
"241 530 LINE"
);
}
);
width = 292;
},
{
anchors = (
{
name = ogonek;
position = "{123, 13}";
},
{
name = top;
position = "{111, 530}";
}
);
background = {
anchors = (
{
name = ogonek;
position = "{123, 13}";
},
{
name = top;
position = "{111, 530}";
}
);
paths = (
{
closed = 1;
nodes = (
"131 528 OFFCURVE",
"129 530 OFFCURVE",
"122 530 CURVE SMOOTH",
"100 530 LINE SMOOTH",
"93 530 OFFCURVE",
"91 528 OFFCURVE",
"91 520 CURVE SMOOTH",
"91 10 LINE SMOOTH",
"91 2 OFFCURVE",
"93 0 OFFCURVE",
"102 0 CURVE SMOOTH",
"119 0 LINE SMOOTH",
"129 0 OFFCURVE",
"131 2 OFFCURVE",
"131 12 CURVE SMOOTH",
"131 520 LINE SMOOTH"
);
}
);
};
layerId = "91AB5BCA-6A50-42DA-B2F7-8181BF189245";
paths = (
{
closed = 1;
nodes = (
"91 530 LINE",
"91 0 LINE",
"131 0 LINE",
"131 530 LINE"
);
}
);
width = 222;
}
);
unicode = 0131;
},
{
glyphname = j;
lastChange = "2016-11-02 00:47:50 +0000";
layers = (
{
background = {
paths = (
{
closed = 1;
nodes = (
"242 510 LINE SMOOTH",
"242 522 OFFCURVE",
"236 530 OFFCURVE",
"224 530 CURVE SMOOTH",
"62 530 LINE SMOOTH",
"50 530 OFFCURVE",
"42 522 OFFCURVE",
"42 507 CURVE SMOOTH",
"42 36 LINE SMOOTH",
"42 2 OFFCURVE",
"31 -6 OFFCURVE",
"18 -10 CURVE SMOOTH",
"-17 -16 LINE SMOOTH",
"-30 -19 OFFCURVE",
"-37 -32 OFFCURVE",
"-37 -43 CURVE SMOOTH",
"-36 -145 LINE SMOOTH",
"-36 -166 OFFCURVE",
"-24 -170 OFFCURVE",
"32 -170 CURVE SMOOTH",
"174 -170 OFFCURVE",
"242 -103 OFFCURVE",
"242 29 CURVE SMOOTH"
);
},
{
closed = 1;
nodes = (
"242 734 OFFCURVE",
"236 742 OFFCURVE",
"224 742 CURVE SMOOTH",
"62 742 LINE SMOOTH",
"50 742 OFFCURVE",
"42 734 OFFCURVE",
"42 719 CURVE SMOOTH",
"42 600 LINE SMOOTH",
"42 583 OFFCURVE",
"49 574 OFFCURVE",
"69 574 CURVE SMOOTH",
"210 574 LINE SMOOTH",
"210 574 OFFCURVE",
"242 583 OFFCURVE",
"242 603 CURVE SMOOTH",
"242 721 LINE SMOOTH"
);
}
);
};
layerId = "258ED206-D907-4350-8EBA-CBDDA1C16BF7";
paths = (
{
closed = 1;
nodes = (
"242 530 LINE",
"42 530 LINE",
"42 29 LINE",
"42 7 OFFCURVE",
"31 -6 OFFCURVE",
"-7 -14 CURVE",
"-37 -19 LINE",
"-36 -153 LINE",
"-36 -153 OFFCURVE",
"-21 -170 OFFCURVE",
"32 -170 CURVE",
"174 -170 OFFCURVE",
"242 -103 OFFCURVE",
"242 29 CURVE SMOOTH"
);
},
{
closed = 1;
nodes = (
"42 742 LINE",
"42 574 LINE",
"242 574 LINE",
"242 742 LINE"
);
}
);
width = 293;
},
{
background = {
paths = (
{
closed = 1;
nodes = (
"131 520 LINE SMOOTH",
"131 527 OFFCURVE",
"129 530 OFFCURVE",
"123 530 CURVE SMOOTH",
"101 530 LINE SMOOTH",
"94 530 OFFCURVE",
"91 527 OFFCURVE",
"91 520 CURVE SMOOTH",
"91 -46 LINE SMOOTH",
"91 -110 OFFCURVE",
"70 -132 OFFCURVE",
"17 -133 CURVE SMOOTH",
"-41 -134 LINE SMOOTH",
"-45 -134 OFFCURVE",
"-47 -136 OFFCURVE",
"-47 -140 CURVE SMOOTH",
"-47 -161 LINE SMOOTH",
"-47 -169 OFFCURVE",
"-41 -170 OFFCURVE",
"18 -170 CURVE SMOOTH",
"109 -170 OFFCURVE",
"131 -133 OFFCURVE",
"131 -51 CURVE SMOOTH"
);
},
{
closed = 1;
nodes = (
"136 737 OFFCURVE",
"131 742 OFFCURVE",
"124 742 CURVE SMOOTH",
"98 742 LINE SMOOTH",
"91 742 OFFCURVE",
"86 737 OFFCURVE",
"86 729 CURVE SMOOTH",
"86 658 LINE SMOOTH",
"86 650 OFFCURVE",
"88 644 OFFCURVE",
"97 644 CURVE SMOOTH",
"124 644 LINE SMOOTH",
"134 644 OFFCURVE",
"136 650 OFFCURVE",
"136 660 CURVE SMOOTH",
"136 729 LINE SMOOTH"
);
}
);
};
layerId = "91AB5BCA-6A50-42DA-B2F7-8181BF189245";
paths = (
{
closed = 1;
nodes = (
"131 530 LINE",
"91 530 LINE",
"91 -46 LINE SMOOTH",
"91 -110 OFFCURVE",
"70 -132 OFFCURVE",
"17 -133 CURVE SMOOTH",
"-47 -134 LINE",
"-47 -161 LINE SMOOTH",
"-47 -169 OFFCURVE",
"-41 -170 OFFCURVE",
"18 -170 CURVE SMOOTH",
"109 -170 OFFCURVE",
"131 -133 OFFCURVE",
"131 -51 CURVE SMOOTH"
);
},
{
closed = 1;
nodes = (
"86 742 LINE",
"86 644 LINE",
"136 644 LINE",
"136 742 LINE"
);
}
);
width = 222;
}
);
unicode = 006A;
},
{
glyphname = jdotless;
lastChange = "2016-11-02 00:47:50 +0000";
layers = (
{
anchors = (
{
name = top;
position = "{142, 530}";
}
);
background = {
anchors = (
{
name = top;
position = "{142, 530}";
}
);
paths = (
{
closed = 1;
nodes = (
"242 510 LINE SMOOTH",
"242 522 OFFCURVE",
"236 530 OFFCURVE",
"224 530 CURVE SMOOTH",
"62 530 LINE SMOOTH",
"50 530 OFFCURVE",
"42 522 OFFCURVE",
"42 507 CURVE SMOOTH",
"42 36 LINE SMOOTH",
"42 2 OFFCURVE",
"31 -6 OFFCURVE",
"18 -10 CURVE SMOOTH",
"-17 -16 LINE SMOOTH",
"-30 -19 OFFCURVE",
"-37 -32 OFFCURVE",
"-37 -43 CURVE SMOOTH",
"-36 -145 LINE SMOOTH",
"-36 -166 OFFCURVE",
"-24 -170 OFFCURVE",
"32 -170 CURVE SMOOTH",
"174 -170 OFFCURVE",
"242 -103 OFFCURVE",
"242 29 CURVE SMOOTH"
);
}
);
};
layerId = "258ED206-D907-4350-8EBA-CBDDA1C16BF7";
paths = (
{
closed = 1;
nodes = (
"242 530 LINE",
"42 530 LINE",
"42 29 LINE",
"42 7 OFFCURVE",
"31 -6 OFFCURVE",
"-7 -14 CURVE",
"-37 -19 LINE",
"-36 -153 LINE",
"-36 -153 OFFCURVE",
"-21 -170 OFFCURVE",
"32 -170 CURVE",
"174 -170 OFFCURVE",
"242 -103 OFFCURVE",
"242 29 CURVE SMOOTH"
);
}
);
width = 293;
},
{
anchors = (
{
name = top;
position = "{111, 530}";
}
);
background = {
anchors = (
{
name = top;
position = "{111, 530}";
}
);
paths = (
{
closed = 1;
nodes = (
"131 520 LINE SMOOTH",
"131 527 OFFCURVE",
"129 530 OFFCURVE",
"123 530 CURVE SMOOTH",
"101 530 LINE SMOOTH",
"94 530 OFFCURVE",
"91 527 OFFCURVE",
"91 520 CURVE SMOOTH",
"91 -46 LINE SMOOTH",
"91 -110 OFFCURVE",
"70 -132 OFFCURVE",
"17 -133 CURVE SMOOTH",
"-41 -134 LINE SMOOTH",
"-45 -134 OFFCURVE",
"-47 -136 OFFCURVE",
"-47 -140 CURVE SMOOTH",
"-47 -161 LINE SMOOTH",
"-47 -169 OFFCURVE",
"-41 -170 OFFCURVE",
"18 -170 CURVE SMOOTH",
"109 -170 OFFCURVE",
"131 -133 OFFCURVE",
"131 -51 CURVE SMOOTH"
);
}
);
};
layerId = "91AB5BCA-6A50-42DA-B2F7-8181BF189245";
paths = (
{
closed = 1;
nodes = (
"131 530 LINE",
"91 530 LINE",
"91 -46 LINE SMOOTH",
"91 -110 OFFCURVE",
"70 -132 OFFCURVE",
"17 -133 CURVE SMOOTH",
"-47 -134 LINE",
"-47 -161 LINE SMOOTH",
"-47 -169 OFFCURVE",
"-41 -170 OFFCURVE",
"18 -170 CURVE SMOOTH",
"109 -170 OFFCURVE",
"131 -133 OFFCURVE",
"131 -51 CURVE SMOOTH"
);
}
);
width = 222;
}
);
unicode = 0237;
},
{
glyphname = k;
lastChange = "2016-11-02 00:47:50 +0000";
layers = (
{
anchors = (
{
name = bottom;
position = "{302, 0}";
}
);
background = {
anchors = (
{
name = bottom;
position = "{302, 0}";
}
);
paths = (
{
closed = 1;
nodes = (
"455 337 LINE SMOOTH",
"446 355 OFFCURVE",
"448 361 OFFCURVE",
"457 372 CURVE SMOOTH",
"586 501 LINE SMOOTH",
"599 515 OFFCURVE",
"595 530 OFFCURVE",
"572 530 CURVE SMOOTH",
"435 530 LINE SMOOTH",
"425 530 OFFCURVE",
"414 523 OFFCURVE",
"404 513 CURVE SMOOTH",
"254 344 LINE SMOOTH",
"246 335 OFFCURVE",
"242 340 OFFCURVE",
"242 346 CURVE SMOOTH",
"242 721 LINE SMOOTH",
"242 734 OFFCURVE",
"236 742 OFFCURVE",
"224 742 CURVE SMOOTH",
"61 742 LINE SMOOTH",
"50 742 OFFCURVE",
"42 734 OFFCURVE",
"42 719 CURVE SMOOTH",
"42 25 LINE SMOOTH",
"42 8 OFFCURVE",
"48 0 OFFCURVE",
"69 0 CURVE SMOOTH",
"210 0 LINE SMOOTH",
"233 0 OFFCURVE",
"242 8 OFFCURVE",
"242 29 CURVE SMOOTH",
"242 130 LINE SMOOTH",
"242 146 OFFCURVE",
"245 153 OFFCURVE",
"251 158 CURVE SMOOTH",
"299 203 LINE SMOOTH",
"309 213 OFFCURVE",
"314 211 OFFCURVE",
"320 198 CURVE SMOOTH",
"392 26 LINE SMOOTH",
"399 10 OFFCURVE",
"408 0 OFFCURVE",
"425 0 CURVE SMOOTH",
"596 0 LINE SMOOTH",
"614 0 OFFCURVE",
"621 17 OFFCURVE",
"615 28 CURVE SMOOTH"
);
}
);
};
layerId = "258ED206-D907-4350-8EBA-CBDDA1C16BF7";
paths = (
{
closed = 1;
nodes = (
"444 359 LINE",
"615 530 LINE",
"419 530 LINE",
"242 330 LINE",
"242 742 LINE",
"42 742 LINE",
"42 0 LINE",
"242 0 LINE",
"242 150 LINE",
"313 216 LINE",
"403 0 LINE",
"629 0 LINE"
);
}
);
width = 641;
},
{
anchors = (
{
name = bottom;
position = "{273, 0}";
}
);
background = {
anchors = (
{
name = bottom;
position = "{273, 0}";
}
);
paths = (
{
closed = 1;
nodes = (
"306 331 LINE SMOOTH",
"303 336 OFFCURVE",
"304 339 OFFCURVE",
"307 342 CURVE SMOOTH",
"476 515 LINE SMOOTH",
"485 524 OFFCURVE",
"484 530 OFFCURVE",
"474 530 CURVE SMOOTH",
"442 530 LINE SMOOTH",
"435 530 OFFCURVE",
"432 528 OFFCURVE",
"425 520 CURVE",
"141 229 LINE SMOOTH",
"133 221 OFFCURVE",
"131 222 OFFCURVE",
"131 234 CURVE SMOOTH",
"131 732 LINE SMOOTH",
"131 740 OFFCURVE",
"129 742 OFFCURVE",
"122 742 CURVE SMOOTH",
"100 742 LINE SMOOTH",
"93 742 OFFCURVE",
"91 740 OFFCURVE",
"91 732 CURVE SMOOTH",
"91 10 LINE SMOOTH",
"91 2 OFFCURVE",
"93 0 OFFCURVE",
"102 0 CURVE SMOOTH",
"119 0 LINE SMOOTH",
"129 0 OFFCURVE",
"131 2 OFFCURVE",
"131 12 CURVE SMOOTH",
"131 152 LINE SMOOTH",
"131 159 OFFCURVE",
"133 164 OFFCURVE",
"138 169 CURVE SMOOTH",
"266 299 LINE SMOOTH",
"271 304 OFFCURVE",
"272 302 OFFCURVE",
"274 299 CURVE SMOOTH",
"456 7 LINE SMOOTH",
"459 2 OFFCURVE",
"462 0 OFFCURVE",
"468 0 CURVE SMOOTH",
"499 0 LINE SMOOTH",
"508 0 OFFCURVE",
"509 4 OFFCURVE",
"504 12 CURVE SMOOTH"
);
}
);
};
layerId = "91AB5BCA-6A50-42DA-B2F7-8181BF189245";
paths = (
{
closed = 1;
nodes = (
"302 337 LINE",
"491 530 LINE",
"435 530 LINE",
"131 219 LINE",
"131 742 LINE",
"91 742 LINE",
"91 0 LINE",
"131 0 LINE",
"131 162 LINE",
"271 304 LINE",
"460 0 LINE",
"511 0 LINE"
);
}
);
width = 538;
}
);
rightKerningGroup = k;
unicode = 006B;
},
{
glyphname = kgreenlandic;
lastChange = "2016-11-02 00:47:50 +0000";
layers = (
{
background = {
paths = (
{
closed = 1;
nodes = (
"455 337 LINE SMOOTH",
"446 355 OFFCURVE",
"448 361 OFFCURVE",
"457 372 CURVE SMOOTH",
"586 501 LINE SMOOTH",
"599 515 OFFCURVE",
"595 530 OFFCURVE",
"572 530 CURVE SMOOTH",
"435 530 LINE SMOOTH",
"425 530 OFFCURVE",
"414 523 OFFCURVE",
"404 513 CURVE SMOOTH",
"254 344 LINE SMOOTH",
"246 335 OFFCURVE",
"242 340 OFFCURVE",
"242 346 CURVE SMOOTH",
"242 509 LINE SMOOTH",
"242 522 OFFCURVE",
"236 530 OFFCURVE",
"224 530 CURVE SMOOTH",
"61 530 LINE SMOOTH",
"50 530 OFFCURVE",
"42 522 OFFCURVE",
"42 507 CURVE SMOOTH",
"42 25 LINE SMOOTH",
"42 8 OFFCURVE",
"48 0 OFFCURVE",
"69 0 CURVE SMOOTH",
"210 0 LINE SMOOTH",
"233 0 OFFCURVE",
"242 8 OFFCURVE",
"242 29 CURVE SMOOTH",
"242 130 LINE SMOOTH",
"242 146 OFFCURVE",
"245 153 OFFCURVE",
"251 158 CURVE SMOOTH",
"299 203 LINE SMOOTH",
"309 213 OFFCURVE",
"314 211 OFFCURVE",
"320 198 CURVE SMOOTH",
"392 26 LINE SMOOTH",
"399 10 OFFCURVE",
"408 0 OFFCURVE",
"425 0 CURVE SMOOTH",
"596 0 LINE SMOOTH",
"614 0 OFFCURVE",
"621 17 OFFCURVE",
"615 28 CURVE SMOOTH"
);
}
);
};
layerId = "258ED206-D907-4350-8EBA-CBDDA1C16BF7";
paths = (
{
closed = 1;
nodes = (
"444 359 LINE",
"615 530 LINE",
"419 530 LINE",
"242 330 LINE",
"242 530 LINE",
"42 530 LINE",
"42 0 LINE",
"242 0 LINE",
"242 150 LINE",
"313 216 LINE",
"403 0 LINE",
"629 0 LINE"
);
}
);
width = 641;
},
{
background = {
paths = (
{
closed = 1;
nodes = (
"306 331 LINE SMOOTH",
"303 336 OFFCURVE",
"304 339 OFFCURVE",
"307 342 CURVE SMOOTH",
"476 515 LINE SMOOTH",
"485 524 OFFCURVE",
"484 530 OFFCURVE",
"474 530 CURVE SMOOTH",
"442 530 LINE SMOOTH",
"435 530 OFFCURVE",
"432 528 OFFCURVE",
"425 520 CURVE",
"141 229 LINE SMOOTH",
"133 221 OFFCURVE",
"131 222 OFFCURVE",
"131 234 CURVE SMOOTH",
"131 520 LINE SMOOTH",
"131 528 OFFCURVE",
"129 530 OFFCURVE",
"122 530 CURVE SMOOTH",
"100 530 LINE SMOOTH",
"93 530 OFFCURVE",
"91 528 OFFCURVE",
"91 520 CURVE SMOOTH",
"91 10 LINE SMOOTH",
"91 2 OFFCURVE",
"93 0 OFFCURVE",
"102 0 CURVE SMOOTH",
"119 0 LINE SMOOTH",
"129 0 OFFCURVE",
"131 2 OFFCURVE",
"131 12 CURVE SMOOTH",
"131 152 LINE SMOOTH",
"131 159 OFFCURVE",
"133 164 OFFCURVE",
"138 169 CURVE SMOOTH",
"266 299 LINE SMOOTH",
"271 304 OFFCURVE",
"272 302 OFFCURVE",
"274 299 CURVE SMOOTH",
"456 7 LINE SMOOTH",
"459 2 OFFCURVE",
"462 0 OFFCURVE",
"468 0 CURVE SMOOTH",
"499 0 LINE SMOOTH",
"508 0 OFFCURVE",
"509 4 OFFCURVE",
"504 12 CURVE SMOOTH"
);
}
);
};
layerId = "91AB5BCA-6A50-42DA-B2F7-8181BF189245";
paths = (
{
closed = 1;
nodes = (
"302 337 LINE",
"491 530 LINE",
"435 530 LINE",
"131 219 LINE",
"131 530 LINE",
"91 530 LINE",
"91 0 LINE",
"131 0 LINE",
"131 162 LINE",
"271 304 LINE",
"460 0 LINE",
"511 0 LINE"
);
}
);
width = 538;
}
);
leftMetricsKey = k;
rightKerningGroup = k;
rightMetricsKey = k;
unicode = 0138;
},
{
glyphname = l;
lastChange = "2016-11-14 15:22:50 +0000";
layers = (
{
anchors = (
{
name = bottom;
position = "{90, 0}";
},
{
name = top;
position = "{146, 742}";
},
{
name = topright;
position = "{333, 530}";
}
);
background = {
anchors = (
{
name = bottom;
position = "{90, 0}";
},
{
name = top;
position = "{146, 742}";
},
{
name = topright;
position = "{333, 530}";
}
);
paths = (
{
closed = 1;
nodes = (
"323 129 LINE",
"323 129 OFFCURVE",
"297 131 OFFCURVE",
"288 133 CURVE SMOOTH",
"249 142 OFFCURVE",
"242 163 OFFCURVE",
"242 190 CURVE SMOOTH",
"242 742 LINE",
"45 742 LINE",
"42 173 LINE",
"42 95 OFFCURVE",
"53 -1 OFFCURVE",
"248 2 CURVE SMOOTH",
"274 3 OFFCURVE",
"290 5 OFFCURVE",
"323 9 CURVE"
);
}
);
};
layerId = "258ED206-D907-4350-8EBA-CBDDA1C16BF7";
paths = (
{
closed = 1;
nodes = (
"274 -11 OFFCURVE",
"300 -4 OFFCURVE",
"323 5 CURVE",
"323 126 LINE",
"302 128 LINE",
"248 135 OFFCURVE",
"242 161 OFFCURVE",
"242 187 CURVE SMOOTH",
"242 742 LINE",
"45 742 LINE",
"42 160 LINE",
"42 82 OFFCURVE",
"53 -11 OFFCURVE",
"248 -11 CURVE SMOOTH"
);
}
);
width = 353;
},
{
anchors = (
{
name = bottom;
position = "{111, 0}";
},
{
name = top;
position = "{111, 742}";
},
{
name = topright;
position = "{256, 742}";
}
);
background = {
anchors = (
{
name = bottom;
position = "{111, 0}";
},
{
name = top;
position = "{111, 742}";
},
{
name = topright;
position = "{256, 742}";
}
);
paths = (
{
closed = 1;
nodes = (
"241 36 LINE",
"231 36 OFFCURVE",
"218 36 OFFCURVE",
"202 36 CURVE SMOOTH",
"138 36 OFFCURVE",
"131 87 OFFCURVE",
"131 130 CURVE",
"131 742 LINE",
"91 742 LINE",
"91 130 LINE",
"91 57 OFFCURVE",
"119 2 OFFCURVE",
"190 2 CURVE SMOOTH",
"214 2 OFFCURVE",
"228 3 OFFCURVE",
"241 6 CURVE"
);
}
);
};
layerId = "91AB5BCA-6A50-42DA-B2F7-8181BF189245";
paths = (
{
closed = 1;
nodes = (
"214 1 OFFCURVE",
"228 2 OFFCURVE",
"241 5 CURVE",
"241 35 LINE",
"208 35 LINE",
"144 35 OFFCURVE",
"131 82 OFFCURVE",
"131 129 CURVE",
"131 742 LINE",
"91 742 LINE",
"91 129 LINE",
"91 56 OFFCURVE",
"119 1 OFFCURVE",
"190 1 CURVE SMOOTH"
);
}
);
width = 275;
}
);
unicode = 006C;
},
{
glyphname = lslash;
lastChange = "2016-11-02 00:47:50 +0000";
layers = (
{
background = {
components = (
{
name = l;
transform = "{1, 0, 0, 1, 40, 0}";
}
);
paths = (
{
closed = 1;
nodes = (
"344 507 OFFCURVE",
"337 511 OFFCURVE",
"320 500 CURVE SMOOTH",
"39 324 LINE SMOOTH",
"27 316 OFFCURVE",
"20 305 OFFCURVE",
"20 290 CURVE SMOOTH",
"20 170 LINE SMOOTH",
"20 153 OFFCURVE",
"26 150 OFFCURVE",
"46 163 CURVE SMOOTH",
"324 345 LINE SMOOTH",
"337 354 OFFCURVE",
"344 366 OFFCURVE",
"344 378 CURVE SMOOTH",
"344 491 LINE SMOOTH"
);
}
);
};
components = (
{
name = l;
transform = "{1, 0, 0, 1, 40, 0}";
}
);
layerId = "258ED206-D907-4350-8EBA-CBDDA1C16BF7";
paths = (
{
closed = 1;
nodes = (
"20 312 LINE",
"20 146 LINE",
"344 358 LINE",
"344 515 LINE"
);
}
);
width = 374;
},
{
background = {
components = (
{
name = l;
transform = "{1, 0, 0, 1, 10, 0}";
}
);
paths = (
{
closed = 1;
nodes = (
"240 437 OFFCURVE",
"238 439 OFFCURVE",
"233 435 CURVE SMOOTH",
"8 225 LINE SMOOTH",
"5 222 OFFCURVE",
"3 219 OFFCURVE",
"3 215 CURVE SMOOTH",
"3 186 LINE SMOOTH",
"3 181 OFFCURVE",
"5 177 OFFCURVE",
"10 181 CURVE SMOOTH",
"234 392 LINE SMOOTH",
"238 396 OFFCURVE",
"240 399 OFFCURVE",
"240 403 CURVE SMOOTH",
"240 433 LINE SMOOTH"
);
}
);
};
components = (
{
name = l;
transform = "{1, 0, 0, 1, 6, 0}";
}
);
layerId = "91AB5BCA-6A50-42DA-B2F7-8181BF189245";
paths = (
{
closed = 1;
nodes = (
"3 220 LINE",
"3 174 LINE",
"240 398 LINE",
"240 442 LINE"
);
}
);
width = 226;
}
);
unicode = 0142;
},
{
glyphname = m;
lastChange = "2016-11-02 00:47:50 +0000";
layers = (
{
background = {
guideLines = (
{
angle = 90;
position = "{324, 331}";
showMeasurement = 1;
}
);
paths = (
{
closed = 1;
nodes = (
"208 0 LINE SMOOTH",
"232 0 OFFCURVE",
"241 8 OFFCURVE",
"241 29 CURVE SMOOTH",
"241 349 LINE",
"260 383 OFFCURVE",
"285 399 OFFCURVE",
"315 399 CURVE SMOOTH",
"347 399 OFFCURVE",
"367 381 OFFCURVE",
"367 351 CURVE SMOOTH",
"367 25 LINE SMOOTH",
"367 6 OFFCURVE",
"374 0 OFFCURVE",
"390 0 CURVE SMOOTH",
"536 0 LINE SMOOTH",
"557 0 OFFCURVE",
"566 10 OFFCURVE",
"566 30 CURVE SMOOTH",
"566 333 LINE SMOOTH",
"566 342 OFFCURVE",
"567 350 OFFCURVE",
"574 360 CURVE SMOOTH",
"589 381 OFFCURVE",
"615 399 OFFCURVE",
"640 399 CURVE SMOOTH",
"671 399 OFFCURVE",
"692 381 OFFCURVE",
"692 351 CURVE SMOOTH",
"692 25 LINE SMOOTH",
"692 6 OFFCURVE",
"698 0 OFFCURVE",
"715 0 CURVE SMOOTH",
"861 0 LINE SMOOTH",
"882 0 OFFCURVE",
"892 10 OFFCURVE",
"892 30 CURVE SMOOTH",
"892 373 LINE SMOOTH",
"892 480 OFFCURVE",
"828 540 OFFCURVE",
"738 540 CURVE SMOOTH",
"678 540 OFFCURVE",
"602 497 OFFCURVE",
"565 446 CURVE SMOOTH",
"560 440 OFFCURVE",
"555 440 OFFCURVE",
"553 445 CURVE SMOOTH",
"530 507 OFFCURVE",
"478 541 OFFCURVE",
"411 541 CURVE SMOOTH",
"350 541 OFFCURVE",
"294 507 OFFCURVE",
"251 461 CURVE SMOOTH",
"243 453 OFFCURVE",
"238 457 OFFCURVE",
"238 465 CURVE SMOOTH",
"238 510 LINE SMOOTH",
"238 522 OFFCURVE",
"232 530 OFFCURVE",
"220 530 CURVE SMOOTH",
"60 530 LINE SMOOTH",
"49 530 OFFCURVE",
"41 521 OFFCURVE",
"41 507 CURVE SMOOTH",
"41 25 LINE SMOOTH",
"41 7 OFFCURVE",
"48 0 OFFCURVE",
"67 0 CURVE SMOOTH"
);
}
);
};
guideLines = (
{
angle = 90;
position = "{324, 331}";
showMeasurement = 1;
}
);
layerId = "258ED206-D907-4350-8EBA-CBDDA1C16BF7";
paths = (
{
closed = 1;
nodes = (
"241 0 LINE",
"241 349 LINE",
"260 383 OFFCURVE",
"285 399 OFFCURVE",
"315 399 CURVE SMOOTH",
"347 399 OFFCURVE",
"367 381 OFFCURVE",
"367 351 CURVE SMOOTH",
"367 0 LINE",
"566 0 LINE",
"566 333 LINE SMOOTH",
"566 342 OFFCURVE",
"567 350 OFFCURVE",
"574 360 CURVE SMOOTH",
"589 381 OFFCURVE",
"615 399 OFFCURVE",
"640 399 CURVE SMOOTH",
"671 399 OFFCURVE",
"692 381 OFFCURVE",
"692 351 CURVE SMOOTH",
"692 0 LINE",
"892 0 LINE",
"892 373 LINE SMOOTH",
"892 480 OFFCURVE",
"828 540 OFFCURVE",
"738 540 CURVE SMOOTH",
"678 540 OFFCURVE",
"602 497 OFFCURVE",
"565 446 CURVE SMOOTH",
"560 440 OFFCURVE",
"555 440 OFFCURVE",
"553 445 CURVE SMOOTH",
"530 507 OFFCURVE",
"478 541 OFFCURVE",
"411 541 CURVE SMOOTH",
"345 541 OFFCURVE",
"284 501 OFFCURVE",
"238 447 CURVE",
"238 530 LINE",
"41 530 LINE",
"41 0 LINE"
);
}
);
width = 938;
},
{
background = {
guideLines = (
{
position = "{271, 454}";
}
);
paths = (
{
closed = 1;
nodes = (
"122 0 LINE SMOOTH",
"128 0 OFFCURVE",
"131 3 OFFCURVE",
"131 9 CURVE SMOOTH",
"131 410 LINE",
"207 471 OFFCURVE",
"252 502 OFFCURVE",
"319 502 CURVE SMOOTH",
"399 502 OFFCURVE",
"432 455 OFFCURVE",
"432 377 CURVE SMOOTH",
"432 9 LINE SMOOTH",
"432 3 OFFCURVE",
"436 0 OFFCURVE",
"441 0 CURVE SMOOTH",
"463 0 LINE SMOOTH",
"468 0 OFFCURVE",
"472 3 OFFCURVE",
"472 10 CURVE SMOOTH",
"472 393 LINE SMOOTH",
"472 407 OFFCURVE",
"477 413 OFFCURVE",
"489 423 CURVE SMOOTH",
"528 455 OFFCURVE",
"587 502 OFFCURVE",
"660 502 CURVE SMOOTH",
"740 502 OFFCURVE",
"773 455 OFFCURVE",
"773 377 CURVE SMOOTH",
"773 9 LINE SMOOTH",
"773 3 OFFCURVE",
"776 0 OFFCURVE",
"782 0 CURVE SMOOTH",
"804 0 LINE SMOOTH",
"810 0 OFFCURVE",
"813 3 OFFCURVE",
"813 10 CURVE SMOOTH",
"813 393 LINE SMOOTH",
"813 480 OFFCURVE",
"761 540 OFFCURVE",
"661 540 CURVE SMOOTH",
"592 540 OFFCURVE",
"549 511 OFFCURVE",
"477 457 CURVE SMOOTH",
"471 452 OFFCURVE",
"464 448 OFFCURVE",
"462 454 CURVE SMOOTH",
"449 494 OFFCURVE",
"404 540 OFFCURVE",
"320 540 CURVE SMOOTH",
"251 540 OFFCURVE",
"208 511 OFFCURVE",
"136 457 CURVE SMOOTH",
"130 452 OFFCURVE",
"128 453 OFFCURVE",
"128 460 CURVE SMOOTH",
"128 522 LINE SMOOTH",
"128 528 OFFCURVE",
"126 530 OFFCURVE",
"120 530 CURVE SMOOTH",
"99 530 LINE SMOOTH",
"93 530 OFFCURVE",
"91 527 OFFCURVE",
"91 521 CURVE SMOOTH",
"91 9 LINE SMOOTH",
"91 3 OFFCURVE",
"94 0 OFFCURVE",
"100 0 CURVE SMOOTH"
);
}
);
};
guideLines = (
{
position = "{379, 454}";
}
);
layerId = "91AB5BCA-6A50-42DA-B2F7-8181BF189245";
paths = (
{
closed = 1;
nodes = (
"131 0 LINE",
"131 410 LINE",
"207 471 OFFCURVE",
"252 502 OFFCURVE",
"319 502 CURVE SMOOTH",
"399 502 OFFCURVE",
"432 455 OFFCURVE",
"432 377 CURVE SMOOTH",
"432 0 LINE",
"472 0 LINE",
"472 393 LINE SMOOTH",
"472 407 OFFCURVE",
"477 413 OFFCURVE",
"489 423 CURVE SMOOTH",
"528 455 OFFCURVE",
"587 502 OFFCURVE",
"660 502 CURVE SMOOTH",
"740 502 OFFCURVE",
"773 455 OFFCURVE",
"773 377 CURVE SMOOTH",
"773 0 LINE",
"813 0 LINE",
"813 393 LINE SMOOTH",
"813 480 OFFCURVE",
"761 540 OFFCURVE",
"661 540 CURVE SMOOTH",
"592 540 OFFCURVE",
"549 511 OFFCURVE",
"477 457 CURVE SMOOTH",
"471 452 OFFCURVE",
"464 448 OFFCURVE",
"462 454 CURVE SMOOTH",
"449 494 OFFCURVE",
"404 540 OFFCURVE",
"320 540 CURVE SMOOTH",
"248 540 OFFCURVE",
"203 509 OFFCURVE",
"128 451 CURVE",
"128 530 LINE",
"91 530 LINE",
"91 0 LINE"
);
}
);
width = 897;
}
);
leftKerningGroup = n;
unicode = 006D;
},
